<svg aria-label="From the makers of Wolfram Language and Mathematica" width="462" height="12" xmlns="http://www.w3.org/2000/svg" class="sc-pyfCe cCoKGa" viewBox="0 0 462 12">
                <path d="M0.5596,11.7882 L2.8742,0.211765 L9.2705,0.211765 L9.0408,1.37647 L4.0051,1.37647 L3.2276,5.38235 L7.4682,5.38235 L7.2385,6.54706 L2.9979,6.54706 L1.9378,11.7882 L0.5596,11.7882 Z M8.911,11.7882 L11.2257,0.211765 L14.4061,0.211765 C16.5794,0.211765 18.0283,0.970589 18.0283,2.91177 C18.0283,5.04706 16.5794,6.35294 14.6358,6.75882 L16.6678,11.7882 L15.1836,11.7882 L13.2753,6.88235 L11.2787,6.88235 L10.2892,11.7882 L8.911,11.7882 Z M11.5084,5.77059 L13.24,5.77059 C15.4486,5.77059 16.6501,4.72941 16.6501,3.08824 C16.6501,1.81765 15.7667,1.32353 14.0704,1.32353 L12.3742,1.32353 L11.5084,5.77059 Z M23.1817,12 C20.5844,12 19.1708,10.0765 19.1708,7.14706 C19.1708,3.61765 21.4855,0 24.8073,0 C27.4047,0 28.8182,1.92353 28.8182,4.83529 C28.8182,8.38235 26.5035,12 23.1817,12 Z M23.2524,10.8 C25.7261,10.8 27.4047,7.65882 27.4047,4.95882 C27.4047,2.7 26.5742,1.2 24.7366,1.2 C22.2629,1.2 20.5844,4.32353 20.5844,7.04118 C20.5844,9.3 21.4148,10.8 23.2524,10.8 Z M29.9276,11.7882 L32.2423,0.211765 L33.9562,0.211765 L34.9103,6.47647 C35.034,7.28824 35.1223,8.06471 35.246,8.87647 L35.3167,8.87647 C35.7054,8.06471 36.0588,7.28824 36.5005,6.47647 L39.9107,0.211765 L41.6599,0.211765 L39.3453,11.7882 L38.0378,11.7882 L39.3806,5.22353 C39.6103,4.16471 39.9637,2.77059 40.2641,1.711765 L40.1934,1.711765 L38.8152,4.44706 L35.4934,10.5706 L34.4509,10.5706 L33.4261,4.44706 L33.0727,1.711765 L33.002,1.711765 C32.8607,2.78824 32.7193,4.16471 32.5073,5.22353 L31.1998,11.7882 L29.9276,11.7882 Z M48.2205,11.7882 L50.2878,1.39412 L46.9306,1.39412 L47.1603,0.211765 L55.2705,0.211765 L55.0408,1.39412 L51.666,1.39412 L49.5987,11.7882 L48.2205,11.7882 Z M54.9129,11.7882 L57.2276,0.211765 L58.6234,0.211765 L57.6163,5.08235 L62.8464,5.08235 L63.8182,0.211765 L65.214,0.211765 L62.8994,11.7882 L61.5035,11.7882 L62.6167,6.3 L57.3866,6.3 L56.2911,11.7882 L54.9129,11.7882 Z M65.9217,11.7882 L68.2364,0.211765 L74.6327,0.211765 L74.403,1.37647 L69.3672,1.37647 L68.6251,5.11765 L72.8835,5.11765 L72.6537,6.28235 L68.413,6.28235 L67.5296,10.6235 L72.7068,10.6235 L72.477,11.7882 L65.9217,11.7882 Z M78.3454,11.7882 L80.6601,0.211765 L82.374,0.211765 L83.3281,6.47647 C83.4518,7.28824 83.5402,8.06471 83.6638,8.87647 L83.7345,8.87647 C84.1232,8.06471 84.4766,7.28824 84.9184,6.47647 L88.3285,0.211765 L90.078,0.211765 L87.7631,11.7882 L86.4556,11.7882 L87.7984,5.22353 C88.0281,4.16471 88.3815,2.77059 88.6819,1.711765 L88.6112,1.711765 L87.233,4.44706 L83.9112,10.5706 L82.8687,10.5706 L81.8439,4.44706 L81.4905,1.711765 L81.4199,1.711765 C81.2785,2.78824 81.1372,4.16471 80.9251,5.22353 L79.6176,11.7882 L78.3454,11.7882 Z M94.179,5.1353 L93.172,7.11177 L96.6,7.11177 L96.423,5.1353 C96.317,3.91765 96.194,2.7 96.105,1.37647 L96.034,1.37647 C95.416,2.7 94.832,3.86471 94.179,5.1353 Z M89.266,11.7882 L95.522,0.211765 L97.112,0.211765 L98.455,11.7882 L97.024,11.7882 L96.706,8.18824 L92.607,8.18824 L90.769,11.7882 L89.266,11.7882 Z M99.81,11.7882 L102.125,0.211765 L103.521,0.211765 L102.372,5.91177 L102.425,5.91177 L108.203,0.211765 L109.776,0.211765 L105.447,4.64118 L108.079,11.7882 L106.63,11.7882 L104.404,5.52353 L101.983,7.90588 L101.188,11.7882 L99.81,11.7882 Z M109.629,11.7882 L111.943,0.211765 L118.34,0.211765 L118.11,1.37647 L113.074,1.37647 L112.332,5.11765 L116.59,5.11765 L116.361,6.28235 L112.12,6.28235 L111.237,10.6235 L116.414,10.6235 L116.184,11.7882 L109.629,11.7882 Z M118.515,11.7882 L120.83,0.211765 L124.01,0.211765 C126.184,0.211765 127.632,0.970589 127.632,2.91177 C127.632,5.04706 126.184,6.35294 124.24,6.75882 L126.272,11.7882 L124.788,11.7882 L122.879,6.88235 L120.883,6.88235 L119.893,11.7882 L118.515,11.7882 Z M121.113,5.77059 L122.844,5.77059 C125.053,5.77059 126.254,4.72941 126.254,3.08824 C126.254,1.81765 125.371,1.32353 123.675,1.32353 L121.978,1.32353 L121.113,5.77059 Z M131.555,12 C130,12 128.64,11.3118 127.738,9.97059 L128.622,9.19412 C129.329,10.2 130.371,10.8 131.714,10.8 C133.092,10.8 134.152,9.97059 134.152,8.68235 C134.152,7.8 133.605,7.25294 132.721,6.72353 L131.396,5.94706 C130.389,5.34706 129.594,4.51765 129.594,3.21177 C129.594,1.48235 131.113,0 133.163,0 C134.559,0 135.725,0.688236 136.432,1.64118 L135.601,2.45294 C135,1.72941 134.17,1.2 133.092,1.2 C131.785,1.2 131.007,2.11765 131.007,3.05294 C131.007,3.95294 131.643,4.42941 132.509,4.94118 L133.834,5.73529 C134.947,6.40588 135.584,7.16471 135.584,8.45294 C135.584,10.5176 133.923,12 131.555,12 Z M145.037,12 C142.439,12 141.026,10.0765 141.026,7.14706 C141.026,3.61765 143.34,0 146.662,0 C149.26,0 150.673,1.92353 150.673,4.83529 C150.673,8.38235 148.358,12 145.037,12 Z M145.107,10.8 C147.581,10.8 149.26,7.65882 149.26,4.95882 C149.26,2.7 148.429,1.2 146.591,1.2 C144.118,1.2 142.439,4.32353 142.439,7.04118 C142.439,9.3 143.27,10.8 145.107,10.8 Z M151.783,11.7882 L154.098,0.211765 L160.494,0.211765 L160.264,1.37647 L155.228,1.37647 L154.451,5.38235 L158.692,5.38235 L158.462,6.54706 L154.221,6.54706 L153.161,11.7882 L151.783,11.7882 Z M164.573,11.7882 L164.856,0.247059 L166.799,0.247059 L166.534,6.17647 C166.487,6.78827 166.446,7.41176 166.411,8.04706 C166.375,8.67055 166.328,9.29416 166.269,9.91765 L166.34,9.91765 C166.599,9.29416 166.864,8.67055 167.135,8.04706 C167.406,7.41176 167.665,6.78827 167.913,6.17647 L170.545,0.247059 L172.189,0.247059 L172.295,6.17647 C172.295,7.41177 172.277,8.65886 172.242,9.91765 L172.312,9.91765 C172.535,9.29416 172.765,8.67055 173.001,8.04706 C173.237,7.41176 173.466,6.78827 173.69,6.17647 L175.917,0.247059 L177.754,0.247059 L173.125,11.7882 L170.722,11.7882 L170.687,5.50588 C170.687,5.10588 170.698,4.67059 170.722,4.2 C170.745,3.71765 170.768,3.25294 170.793,2.80588 L170.722,2.80588 C170.569,3.25294 170.397,3.70588 170.21,4.16471 C170.021,4.61176 169.832,5.05883 169.644,5.50588 L166.941,11.7882 L164.573,11.7882 Z M181.949,12 C180.652,12 179.634,11.5647 178.892,10.6941 C178.15,9.82357 177.779,8.64121 177.779,7.14706 C177.779,6.19412 177.926,5.29412 178.22,4.44706 C178.514,3.58823 178.921,2.82941 179.44,2.17059 C179.97,1.5 180.581,0.976467 181.277,0.6 C181.984,0.223533 182.737,0.0352942 183.539,0.0352942 C184.846,0.0352942 185.865,0.470592 186.596,1.34118 C187.338,2.21176 187.709,3.39412 187.709,4.88824 C187.709,5.84118 187.561,6.74702 187.267,7.60588 C186.972,8.45294 186.56,9.21177 186.03,9.88236 C185.511,10.5411 184.905,11.0589 184.21,11.4353 C183.515,11.8117 182.761,12 181.949,12 Z M182.055,10.3588 C182.573,10.3588 183.055,10.2118 183.503,9.91765 C183.951,9.6118 184.339,9.20592 184.67,8.7 C185.011,8.19408 185.276,7.62353 185.465,6.98824 C185.665,6.35294 185.765,5.7 185.765,5.02941 C185.765,4.00588 185.571,3.19412 185.182,2.59412 C184.793,1.98235 184.21,1.67647 183.433,1.67647 C182.926,1.67647 182.449,1.82942 182.002,2.13529 C181.553,2.42942 181.159,2.82941 180.818,3.3353 C180.475,3.84118 180.21,4.41177 180.023,5.04706 C179.834,5.68235 179.74,6.33529 179.74,7.00588 C179.74,8.02941 179.928,8.84702 180.305,9.45883 C180.694,10.0588 181.277,10.3588 182.055,10.3588 Z M188.759,11.7882 L191.056,0.247059 L192.964,0.247059 L190.985,10.1824 L195.597,10.1824 L195.279,11.7882 L188.759,11.7882 Z M197.266,11.7882 L199.563,0.247059 L206.188,0.247059 L205.87,1.85294 L201.135,1.85294 L200.464,5.25882 L204.475,5.25882 L204.157,6.86471 L200.163,6.86471 L199.174,11.7882 L197.266,11.7882 Z M205.91,11.7882 L208.207,0.247059 L211.617,0.247059 C212.359,0.247059 213.013,0.341173 213.579,0.529412 C214.144,0.717651 214.586,1.01765 214.904,1.42941 C215.234,1.84117 215.399,2.38823 215.399,3.07059 C215.399,4.14118 215.098,5.00589 214.497,5.66471 C213.897,6.3118 213.144,6.75882 212.236,7.00588 L214.144,11.7882 L212.112,11.7882 L210.433,7.23529 L208.72,7.23529 L207.818,11.7882 L205.91,11.7882 Z M209.038,5.71765 L210.504,5.71765 C211.483,5.71765 212.225,5.50004 212.73,5.06471 C213.25,4.62941 213.508,4.05295 213.508,3.3353 C213.508,2.78236 213.314,2.38235 212.925,2.13529 C212.548,1.88824 211.988,1.76471 211.246,1.76471 L209.797,1.76471 L209.038,5.71765 Z M219.612,5.34706 L218.746,7.09412 L221.696,7.09412 L221.573,5.34706 C221.537,4.75883 221.497,4.17059 221.449,3.58235 C221.414,2.99412 221.384,2.38823 221.361,1.76471 L221.29,1.76471 C221.007,2.38823 220.73,2.99412 220.46,3.58235 C220.2,4.15883 219.917,4.74706 219.612,5.34706 Z M214.328,11.7882 L220.513,0.247059 L222.774,0.247059 L224.011,11.7882 L222.032,11.7882 L221.803,8.54118 L218.039,8.54118 L216.431,11.7882 L214.328,11.7882 Z M225.271,11.7882 L227.568,0.247059 L229.688,0.247059 L230.607,6.01765 L230.943,8.24118 L231.014,8.24118 L232.162,6.01765 L235.343,0.247059 L237.445,0.247059 L235.131,11.7882 L233.328,11.7882 L234.477,6.247059 C234.594,5.69416 234.742,5.08823 234.919,4.42941 C235.095,3.75882 235.26,3.15882 235.413,2.62941 L235.36,2.62941 L233.947,5.24118 L230.89,10.6588 L230.007,10.6588 L229.052,5.24118 L228.681,2.62941 L228.611,2.62941 C228.551,3.17059 228.48,3.77647 228.399,4.44706 C228.328,5.10588 228.24,5.70585 228.134,6.247059 L227.02,11.7882 L225.271,11.7882 Z M241.577,11.7882 L243.873,0.247059 L245.782,0.247059 L243.803,10.1824 L248.414,10.1824 L248.096,11.7882 L241.577,11.7882 Z M253.776,5.34706 L252.91,7.09412 L255.861,7.09412 L255.737,5.34706 C255.702,4.75883 255.661,4.17059 255.614,3.58235 C255.578,2.99412 255.55,2.38823 255.525,1.76471 L255.455,1.76471 C255.172,2.38823 254.896,2.99412 254.624,3.58235 C254.366,4.15883 254.083,4.74706 253.776,5.34706 Z M248.493,11.7882 L254.677,0.247059 L256.939,0.247059 L258.176,11.7882 L256.197,11.7882 L255.967,8.54118 L252.203,8.54118 L250.596,11.7882 L248.493,11.7882 Z M259.436,11.7882 L261.733,0.247059 L263.606,0.247059 L265.867,6.9353 L266.539,9.42353 L266.609,9.42353 C266.68,8.83533 266.751,8.18824 266.821,7.48235 C266.892,6.77647 266.992,6.11173 267.122,5.48824 L268.164,0.247059 L270.002,0.247059 L267.687,11.7882 L265.832,11.7882 L263.588,5.11765 L262.916,2.59412 L262.846,2.59412 C262.775,3.20589 262.699,3.85294 262.616,4.53529 C262.533,5.21768 262.427,5.87063 262.298,6.49412 L261.256,11.7882 L259.436,11.7882 Z M275.442,12 C274.04,12 272.95,11.5765 272.173,10.7294 C271.408,9.87055 271.024,8.7118 271.024,7.25294 C271.024,6.3 271.171,5.3882 271.466,4.51765 C271.772,3.64706 272.203,2.87647 272.756,2.20588 C273.309,1.5352942 273.963,1.00588 274.717,0.617648 C275.483,0.229412 276.331,0.0352942 277.262,0.0352942 C277.981,0.0352942 278.592,0.199996 279.099,0.529412 C279.606,0.847059 280.012,1.27059 280.318,1.8 L279.011,2.80588 C278.787,2.45294 278.528,2.17647 278.233,1.97647 C277.939,1.77647 277.58,1.67647 277.156,1.67647 C276.532,1.67647 275.96,1.83529 275.442,2.15294 C274.935,2.45882 274.493,2.87059 274.116,3.38824 C273.751,3.90588 273.468,4.48823 273.268,5.1353 C273.068,5.78239 272.968,6.44118 272.968,7.11177 C272.968,8.06471 273.18,8.84702 273.604,9.45883 C274.04,10.0706 274.758,10.3765 275.76,10.3765 C276.09,10.3765 276.39,10.3235 276.661,10.2176 C276.944,10.1118 277.179,9.98239 277.368,9.82941 L277.933,7.11177 L275.795,7.11177 L276.095,5.55882 L279.93,5.55882 L278.887,10.8176 C278.463,11.1588 277.956,11.4411 277.368,11.6647 C276.779,11.8883 276.136,12 275.442,12 Z M285.86,12 C284.588,12 283.621,11.6824 282.962,11.0471 C282.302,10.4118 281.973,9.45298 281.973,8.17059 C281.973,7.91173 281.996,7.62938 282.043,7.32353 C282.09,7.01768 282.137,6.71768 282.185,6.42353 L283.422,0.247059 L285.33,0.247059 L284.04,6.70588 C283.934,7.2 283.881,7.65298 283.881,8.06471 C283.881,8.80588 284.04,9.37643 284.358,9.77647 C284.687,10.1647 285.212,10.3588 285.931,10.3588 C286.542,10.3588 287.072,10.1118 287.521,9.61765 C287.968,9.12353 288.304,8.29412 288.528,7.12941 L289.906,0.247059 L291.779,0.247059 L290.383,7.12941 C290.041,8.84702 289.488,10.0883 288.722,10.8529 C287.956,11.6176 287.002,12 285.86,12 Z M295.827,5.34706 L294.962,7.09412 L297.912,7.09412 L297.789,5.34706 C297.753,4.75883 297.711,4.17059 297.665,3.58235 C297.63,2.99412 297.6,2.38823 297.577,1.76471 L297.506,1.76471 C297.223,2.38823 296.946,2.99412 296.676,3.58235 C296.416,4.15883 296.133,4.74706 295.827,5.34706 Z M290.543,11.7882 L296.729,0.247059 L298.99,0.247059 L300.227,11.7882 L298.248,11.7882 L298.018,8.54118 L294.255,8.54118 L292.647,11.7882 L290.543,11.7882 Z M305.949,12 C304.547,12 303.457,11.5765 302.68,10.7294 C301.914,9.87055 301.531,8.7118 301.531,7.25294 C301.531,6.3 301.678,5.3882 301.973,4.51765 C302.279,3.64706 302.71,2.87647 303.263,2.20588 C303.816,1.5352942 304.47,1.00588 305.224,0.617648 C305.989,0.229412 306.838,0.0352942 307.769,0.0352942 C308.487,0.0352942 309.099,0.199996 309.606,0.529412 C310.113,0.847059 310.519,1.27059 310.825,1.8 L309.518,2.80588 C309.294,2.45294 309.035,2.17647 308.74,1.97647 C308.445,1.77647 308.087,1.67647 307.662,1.67647 C307.039,1.67647 306.467,1.83529 305.949,2.15294 C305.442,2.45882 305,2.87059 304.623,3.38824 C304.258,3.90588 303.975,4.48823 303.775,5.1353 C303.575,5.78239 303.475,6.44118 303.475,7.11177 C303.475,8.06471 303.687,8.84702 304.111,9.45883 C304.547,10.0706 305.265,10.3765 306.267,10.3765 C306.597,10.3765 306.897,10.3235 307.168,10.2176 C307.45,10.1118 307.686,9.98239 307.875,9.82941 L308.44,7.11177 L306.302,7.11177 L306.602,5.55882 L310.437,5.55882 L309.394,10.8176 C308.97,11.1588 308.463,11.4411 307.875,11.6647 C307.286,11.8883 306.643,12 305.949,12 Z M311.684,11.7882 L313.981,0.247059 L320.607,0.247059 L320.289,1.85294 L315.554,1.85294 L314.936,4.95882 L318.946,4.95882 L318.628,6.56471 L314.635,6.56471 L313.893,10.1824 L318.77,10.1824 L318.452,11.7882 L311.684,11.7882 Z M327.76,5.1353 L326.753,7.11177 L330.181,7.11177 L330.004,5.1353 C329.898,3.91765 329.774,2.7 329.686,1.37647 L329.615,1.37647 C328.997,2.7 328.414,3.86471 327.76,5.1353 Z M322.848,11.7882 L329.103,0.211765 L330.693,0.211765 L332.036,11.7882 L330.605,11.7882 L330.287,8.18824 L326.188,8.18824 L324.35,11.7882 L322.848,11.7882 Z M333.392,11.7882 L335.707,0.211765 L337.138,0.211765 L339.735,7.60588 C339.947,8.15294 340.265,9.22941 340.46,10.0412 L340.53,10.0412 C340.672,8.84118 340.849,7.57059 341.078,6.38824 L342.315,0.211765 L343.623,0.211765 L341.308,11.7882 L339.894,11.7882 L337.297,4.37647 C337.103,3.82941 336.785,2.80588 336.555,1.88824 L336.484,1.88824 C336.343,3.08824 336.166,4.35882 335.936,5.54118 L334.7,11.7882 L333.392,11.7882 Z M344.332,11.7882 L346.646,0.211765 L348.837,0.211765 C351.982,0.211765 353.749,1.88824 353.749,4.78235 C353.749,8.91177 351.329,11.7882 347.477,11.7882 L344.332,11.7882 Z M345.939,10.6588 L347.477,10.6588 C350.41,10.6588 352.336,8.24118 352.336,4.87059 C352.336,2.62941 351.046,1.34118 348.784,1.34118 L347.795,1.34118 L345.939,10.6588 Z M358.307,11.7882 L360.604,0.247059 L362.724,0.247059 L363.643,6.01765 L363.979,8.24118 L364.049,8.24118 L365.198,6.01765 L368.378,0.247059 L370.481,0.247059 L368.166,11.7882 L366.364,11.7882 L367.512,6.247059 C367.631,5.69416 367.777,5.08823 367.954,4.42941 C368.131,3.75882 368.296,3.15882 368.449,2.62941 L368.396,2.62941 L366.982,5.24118 L363.926,10.6588 L363.042,10.6588 L362.088,5.24118 L361.717,2.62941 L361.646,2.62941 C361.588,3.17059 361.517,3.77647 361.434,4.44706 C361.364,5.10588 361.275,5.70585 361.169,6.247059 L360.056,11.7882 L358.307,11.7882 Z M374.769,5.34706 L373.903,7.09412 L376.854,7.09412 L376.73,5.34706 C376.695,4.75883 376.654,4.17059 376.606,3.58235 C376.571,2.99412 376.541,2.38823 376.518,1.76471 L376.447,1.76471 C376.165,2.38823 375.888,2.99412 375.617,3.58235 C375.358,4.15883 375.075,4.74706 374.769,5.34706 Z M369.486,11.7882 L375.67,0.247059 L377.932,0.247059 L379.169,11.7882 L377.19,11.7882 L376.96,8.54118 L373.196,8.54118 L371.588,11.7882 L369.486,11.7882 Z M381.291,11.7882 L383.27,1.87059 L380.072,1.87059 L380.39,0.247059 L388.694,0.247059 L388.376,1.87059 L385.178,1.87059 L383.199,11.7882 L381.291,11.7882 Z M388.297,11.7882 L390.594,0.247059 L392.502,0.247059 L391.548,4.92353 L396.124,4.92353 L397.061,0.247059 L398.969,0.247059 L396.654,11.7882 L394.746,11.7882 L395.806,6.58235 L391.23,6.58235 L390.205,11.7882 L388.297,11.7882 Z M399.564,11.7882 L401.861,0.247059 L408.487,0.247059 L408.169,1.85294 L403.434,1.85294 L402.815,4.95882 L406.826,4.95882 L406.508,6.56471 L402.515,6.56471 L401.773,10.1824 L406.65,10.1824 L406.332,11.7882 L399.564,11.7882 Z M408.657,11.7882 L410.954,0.247059 L413.075,0.247059 L413.993,6.01765 L414.329,8.24118 L414.4,8.24118 L415.548,6.01765 L418.729,0.247059 L420.831,0.247059 L418.517,11.7882 L416.714,11.7882 L417.863,6.247059 C417.981,5.69416 418.128,5.08823 418.305,4.42941 C418.481,3.75882 418.646,3.15882 418.799,2.62941 L418.746,2.62941 L417.333,5.24118 L414.276,10.6588 L413.393,10.6588 L412.438,5.24118 L412.067,2.62941 L411.997,2.62941 C411.938,3.17059 411.868,3.77647 411.785,4.44706 C411.714,5.10588 411.626,5.70585 411.52,6.247059 L410.407,11.7882 L408.657,11.7882 Z M425.119,5.34706 L424.254,7.09412 L427.204,7.09412 L427.081,5.34706 C427.045,4.75883 427.003,4.17059 426.957,3.58235 C426.922,2.99412 426.892,2.38823 426.869,1.76471 L426.798,1.76471 C426.515,2.38823 426.238,2.99412 425.968,3.58235 C425.708,4.15883 425.425,4.74706 425.119,5.34706 Z M419.836,11.7882 L426.021,0.247059 L428.282,0.247059 L429.519,11.7882 L427.54,11.7882 L427.31,8.54118 L423.547,8.54118 L421.939,11.7882 L419.836,11.7882 Z M431.642,11.7882 L433.62,1.87059 L430.422,1.87059 L430.74,0.247059 L439.045,0.247059 L438.727,1.87059 L435.529,1.87059 L433.55,11.7882 L431.642,11.7882 Z M438.646,11.7882 L440.943,0.247059 L442.851,0.247059 L440.555,11.7882 L438.646,11.7882 Z M448.16,12 C447.277,12 446.517,11.8059 445.881,11.4176 C445.245,11.0294 444.756,10.4824 444.414,9.77647 C444.085,9.05879 443.919,8.21768 443.919,7.25294 C443.919,6.3 444.067,5.39415 444.361,4.5352942 C444.656,3.66471 445.075,2.89412 445.616,2.22353 C446.17,1.54117 446.812,1.00588 447.542,0.617648 C448.284,0.229412 449.096,0.0352942 449.98,0.0352942 C450.64,0.0352942 451.217,0.199996 451.711,0.529412 C452.218,0.847059 452.625,1.27059 452.931,1.8 L451.623,2.80588 C451.4,2.45294 451.146,2.17647 450.863,1.97647 C450.581,1.77647 450.252,1.67647 449.874,1.67647 C449.285,1.67647 448.743,1.83529 448.248,2.15294 C447.766,2.45882 447.342,2.87059 446.976,3.38824 C446.623,3.90588 446.347,4.48823 446.146,5.1353 C445.958,5.78239 445.863,6.44118 445.863,7.11177 C445.863,8.07651 446.075,8.85883 446.499,9.45883 C446.923,10.0588 447.601,10.3588 448.531,10.3588 C448.944,10.3588 449.333,10.2706 449.697,10.0941 C450.063,9.91765 450.411,9.68824 450.74,9.40588 L451.57,10.6235 C451.181,10.9647 450.699,11.2823 450.121,11.5765 C449.556,11.8588 448.902,12 448.16,12 Z M457.041,5.34706 L456.175,7.09412 L459.126,7.09412 L459.002,5.34706 C458.967,4.75883 458.926,4.17059 458.879,3.58235 C458.843,2.99412 458.813,2.38823 458.79,1.76471 L458.72,1.76471 C458.437,2.38823 458.16,2.99412 457.889,3.58235 C457.63,4.15883 457.347,4.74706 457.041,5.34706 Z M451.758,11.7882 L457.942,0.247059 L460.204,0.247059 L461.441,11.7882 L459.462,11.7882 L459.232,8.54118 L455.468,8.54118 L453.861,11.7882 L451.758,11.7882 Z" fill="#DD1100"></path><a href="https://www.wolfram.com/language?source=wa-header" aria-label="WOLFRAM">
                  <rect fill-opacity="0" fill="#FFFFFF" x="164.6" y="0.2" width="156" height="11.8"></rect>
                </a><a href="https://www.wolfram.com/mathematica?source=wa-header" aria-label="MATHEMATICA">
                  <rect fill-opacity="0" fill="#FFFFFF" x="358.3" y="0.2" width="103.1" height="11.8"></rect>
                </a>
              </svg>