<svg width="45" height="45" viewBox="0 0 45 45" fill="none" xmlns="http://www.w3.org/2000/svg">
    <path d="m42.343 28.397-8.986 1.918.913 8.929-8.415-3.608-4.636 7.753-4.635-7.753-8.416 3.608.914-8.93-8.986-1.917 6.12-6.703-6.12-6.702 8.986-1.918-.914-8.93 8.416 3.609L21.219 0l4.636 7.753 8.415-3.608-.913 8.94 8.986 1.907-6.12 6.702 6.12 6.703z" fill="#F16850"/>
    <path d="m21.219 13.542-4.636-5.79-8.415-3.607 5.013 6.6 8.038 2.797z" fill="#FD694F"/>
    <path d="M9.082 13.074.096 14.992l6.12 6.702 7.193-2.614-4.327-6.006z" fill="#FF3413"/>
    <path d="m13.18 10.744-5.012-6.6.913 8.93 4.328 6.006-.228-8.336z" fill="#DC1D23"/>
    <path d="M25.856 7.753 21.22 0l-4.636 7.753 4.636 5.789 4.636-5.79z" fill="#FF9281"/>
    <path d="m36.223 21.694 6.12-6.702-8.986-1.918-4.328 6.006 7.194 2.614z" fill="#FF8B79"/>
    <path d="m29.03 19.08 4.327-6.006.925-8.93-5.024 6.6-.229 8.336z" fill="#FD694F"/>
    <path d="m29.258 10.744 5.024-6.6-8.426 3.609-4.636 5.789 8.038-2.798z" fill="#EF5240"/>
    <path d="m34.236 25.69 8.107 2.707-6.12-6.703-7.194-2.614 5.207 6.61z" fill="#FF482C"/>
    <path d="m13.41 19.08-7.194 2.614-6.12 6.703 8.107-2.706 5.206-6.611z" fill="#EC2101"/>
    <path d="M21.22 34.928v8.46l4.636-7.752.194-7.593-4.83 6.885z" fill="#D21C22"/>
    <path d="m34.237 25.69-8.187 2.353 7.308 2.272 8.986-1.918-8.107-2.706z" fill="#C90901"/>
    <path d="m25.855 35.636 8.416 3.608-.914-8.929-7.307-2.272-.195 7.593z" fill="#EC2101"/>
    <path d="M8.203 25.69.096 28.398l8.986 1.907 7.308-2.261-8.187-2.352z" fill="#B6171E"/>
    <path d="m16.39 28.043.194 7.593 4.636 7.753v-8.461l-4.83-6.885z" fill="#B4151B"/>
    <path d="m9.081 30.303-.913 8.94 8.415-3.607-.194-7.593-7.308 2.26z" fill="#D21C22"/>
    <path d="m29.03 19.08.228-8.336-8.038 2.798v8.107l7.81-2.57z" fill="#E63320"/>
    <path d="m21.22 13.542-8.04-2.798.229 8.336 7.81 2.569v-8.107z" fill="#FF4527"/>
    <path d="m16.39 28.043 4.83 6.885 4.83-6.885-4.83-6.394-4.83 6.394z" fill="#FF9281"/>
    <path d="m21.22 21.649 4.83 6.394 8.187-2.352-5.207-6.611-7.81 2.569z" fill="#FD684D"/>
    <path d="m13.41 19.08-5.207 6.61 8.187 2.353 4.83-6.394-7.81-2.57z" fill="#FD745C"/>
</svg>
