<svg class="sc-34cb55e4-1 cPAvSd __Csy" width="48" height="48" xmlns="http://www.w3.org/2000/svg" viewBox="0 0 48 48">
                      <defs>
                        <path id="a" d="M0 0h34.014v23.03H0z"></path>
                      </defs>
                      <g fill="none" fill-rule="evenodd">
                        <path d="M0 0h48v48H0z"></path>
                        <g transform="translate(7 12)">
                          <path class="mainColor" fill="#00ADB8" d="M33.014 19.016a.997.997 0 0 1-.995 1h-26a1.005 1.005 0 0 1-1.006-1v-11l28.006-.001-.005 11.001zm-28-15c0-.202.12-.523.22-.685.178-.282.43-.315.78-.315h26c.548 0 1 .446 1 1v2h-28v-2zm27-2h-2l.005-.001c-.16-1.099-.902-2.151-2-2L15.013 2.016h-9c-.969 0-1.82.072-2 1l-2.145.799C.772 3.967-.14 4.916.02 6.015l2.27 15.048c.16 1.099.631 2.103 1.73 1.952l12.995-1.999h15c1.097 0 2-.891 2-2v-15c0-1.109-.903-2-2-2zM20.72 15.546v.36h-.25l.25-.384v.024zm.543-.882h-.588l-.852 1.347v.383h.897v.54h.543v-.54h.262v-.488h-.262v-1.242zm-2.116-3.34c.155 0 .23.088.23.268 0 .179-.079.29-.207.29-.061 0-.223 0-.282-.389.088-.111.178-.169.26-.169zm.023 1.046c.428 0 .748-.334.748-.778 0-.46-.268-.744-.703-.744a.583.583 0 0 0-.31.097c.047-.275.167-.414.357-.414.081 0 .188.054.237.121l.075.098.349-.393-.066-.068a.861.861 0 0 0-.617-.258c-.42 0-.91.32-.91 1.227 0 .82.434 1.112.84 1.112zm1.582-.5c-.145 0-.268-.06-.407-.2l-.084-.085-.285.407.055.06a.998.998 0 0 0 .767.318c.405 0 .817-.278.817-.812 0-.453-.29-.745-.738-.745a.641.641 0 0 0-.159.019l.023-.255h.784v-.512h-1.288l-.066 1.176.273.183.055-.035c.12-.078.169-.1.276-.1.174 0 .276.105.276.279 0 .186-.114.302-.299.302zm1.165 3.523l.07-.079c.117-.13.224-.196.326-.196.2 0 .229.16.229.256 0 .283-.352.646-.89 1.168l-.032.03v.362h1.578v-.522h-.602l-.091.001c.313-.342.59-.693.59-1.051 0-.445-.29-.732-.738-.732-.285 0-.495.098-.721.341l-.066.071.346.351zM8.495 11.308l.253-.4v.4h-.253zm.253 1.028h.54v-.541h.262v-.487h-.26v-1.243h-.6l-.843 1.347v.383h.9v.541zm3.05-.105l-.005.105h.575l.005-.096c.034-.767.1-1.194.57-1.782l.023-.027v-.366H11.4v.512h.87c-.313.5-.44.955-.471 1.654zm-.53 5.22h.457l.793-3.029h-.458l-.793 3.029zm2.6-6.374c-.103 0-.22-.033-.22-.279 0-.169.082-.279.207-.279.15 0 .245.132.284.392-.08.107-.175.166-.271.166zm-.104.793a.357.357 0 0 1-.253-.126l-.077-.089-.329.39.066.067a.835.835 0 0 0 .617.258c.432 0 .896-.325.896-1.239 0-.812-.451-1.1-.84-1.1-.42 0-.736.329-.736.767 0 .46.263.744.69.744a.625.625 0 0 0 .325-.101c-.045.285-.165.429-.358.429zm4.835 4.117c.122-.077.17-.099.276-.099.178 0 .276.099.276.278 0 .186-.114.303-.297.303-.148 0-.27-.06-.409-.201l-.084-.084-.288.408.06.061c.136.135.361.316.765.316.407 0 .817-.279.817-.813 0-.452-.29-.744-.738-.744a.636.636 0 0 0-.159.018l.023-.255h.782v-.511h-1.287l-.064 1.176.273.183.054-.036zm-2.99-4.91c-.1 0-.23-.03-.23-.279 0-.192.107-.279.207-.279.06 0 .237 0 .282.391-.078.106-.17.167-.258.167zm-.102.793a.364.364 0 0 1-.256-.126l-.074-.087-.343.386.066.069a.86.86 0 0 0 .617.258c.44 0 .909-.325.909-1.239 0-.812-.452-1.1-.84-1.1-.428 0-.738.322-.738.767 0 .467.26.744.692.744a.616.616 0 0 0 .32-.101c-.048.285-.167.429-.353.429zm6.638-1.15c.104-.106.209-.201.328-.201.15 0 .24.095.24.256 0 .287-.393.677-.89 1.17l-.032.03v.361h1.578v-.523h-.6l-.097.002c.331-.37.595-.703.595-1.051 0-.446-.294-.733-.75-.733-.335 0-.543.163-.718.34l-.07.071.346.349.07-.071zm-4.977.588l.254-.401c-.002.013-.002.028-.002.041v.36h-.253zm.253 1.028h.541v-.541h.262v-.487h-.262v-1.243h-.587l-.852 1.347v.383h.898v.541zm-7.192-1.028l.248-.384v.384h-.248zm.248 1.028h.543v-.541h.261v-.487h-.261v-1.243h-.588l-.854 1.347v.383h.9v.541zm4.653 3.076a.614.614 0 0 0-.15.016l.015-.253h.783v-.511H14.49l-.066 1.176.271.183.056-.036c.12-.077.18-.099.276-.099.178 0 .277.099.277.278 0 .186-.115.303-.3.303-.146 0-.268-.06-.407-.201l-.087-.086-.27.41.053.058c.197.212.454.319.768.319.407 0 .818-.279.818-.813 0-.452-.295-.744-.75-.744zm14.268-4.015c.245.103.372.166.372.298 0 .182-.15.21-.24.21-.157 0-.265-.1-.265-.244 0-.098.044-.187.133-.264zm.131-.901c.131 0 .207.077.207.209a.367.367 0 0 1-.096.237c-.192-.081-.284-.142-.284-.271 0-.111.063-.175.173-.175zm0 1.874c.454 0 .784-.279.784-.664 0-.23-.098-.41-.293-.548a.686.686 0 0 0 .213-.475c0-.391-.28-.652-.692-.652-.422 0-.715.262-.715.64 0 .18.075.347.215.489-.204.146-.306.329-.306.546 0 .385.335.664.794.664zm-16.073 4.043c.314-.342.59-.693.59-1.051 0-.445-.288-.732-.736-.732-.357 0-.566.172-.722.341l-.065.071.345.351.072-.079c.116-.13.224-.196.325-.196.2 0 .228.16.228.256 0 .283-.351.646-.89 1.168l-.03.03v.362h1.576v-.522h-.6l-.092.001zm-4.243.009h-.41v-1.758H8.4l-.024.015c-.107.069-.226.112-.436.159l-.077.018v.411h.375v1.155h-.455v.512h1.429v-.512zm1.157-.009c.313-.342.59-.693.59-1.051 0-.445-.29-.732-.738-.732-.285 0-.495.098-.72.341l-.067.071.348.351.07-.079c.116-.13.225-.196.325-.196.2 0 .23.16.23.256 0 .283-.353.646-.891 1.168l-.031.03v.362h1.577v-.522h-.602l-.091.001zm17.034-4.183l-.006.106h.576l.005-.096c.033-.785.122-1.206.58-1.782l.022-.027v-.366h-1.564v.512h.87c-.31.495-.44.95-.483 1.653zm-2.338-.406h-.4v-1.759h-.4l-.023.013a1.442 1.442 0 0 1-.45.162l-.078.018v.41h.377v1.156h-.456v.512h1.43v-.512zm1.026-.5c.102 0 .219.03.219.268 0 .173-.078.29-.195.29-.06 0-.24 0-.285-.39.079-.107.172-.168.26-.168zm.024 1.046c.425 0 .736-.327.736-.778 0-.46-.265-.744-.692-.744a.594.594 0 0 0-.319.102c.051-.279.17-.419.354-.419a.36.36 0 0 1 .255.127l.076.088.326-.388-.06-.065a.823.823 0 0 0-.62-.262c-.415 0-.896.32-.896 1.227 0 .82.433 1.112.84 1.112zm-1.922 3.176v.36h-.25l.25-.384v.024zm.54-.882h-.586l-.854 1.347v.383h.9v.54h.54v-.54h.262v-.488h-.261v-1.242z"></path>
                        </g>
                      </g>
                    </svg>