<svg class="sc-34cb55e4-1 cPAvSd __Csy" width="48" height="48" xmlns="http://www.w3.org/2000/svg" viewBox="0 0 48 48">
                      <defs>
                        <path id="a" d="M0 0h35.005v28H0z"></path>
                      </defs>
                      <g fill="none" fill-rule="evenodd">
                        <path d="M0 0h48v48H0z"></path>
                        <g transform="translate(6 10)">
                          <path class="mainColor" fill="#00ADB8" d="M33.6 13.486a62.96 62.96 0 0 0-3.692.46c-1.522.24-3.295.563-5.157 1.109-.669.199-1.35.428-2.026.71.124.131.244.267.358.407 0 0 .028.041.063.104.584-.273 1.182-.51 1.774-.72 1.793-.626 3.537-1.038 5.036-1.353a64.161 64.161 0 0 1 3.653-.646c.887-.132 1.396-.189 1.396-.189s-.51.032-1.405.117m-1.21 12.78l-.024-.006-.35-.085c-.228-.06-.564-.136-.988-.25-.422-.12-.939-.252-1.52-.441a20.918 20.918 0 0 1-.926-.303 24.077 24.077 0 0 1-1.014-.363 31.263 31.263 0 0 1-2.238-.93 24.798 24.798 0 0 1-2.379-1.25c-.196-.12-.396-.244-.576-.369a11.438 11.438 0 0 1-.543-.42c-.36-.296-.7-.615-.99-.964a3.834 3.834 0 0 1-.475-.712c-.234.238-.472.485-.705.73.114.206.24.401.375.583a8.43 8.43 0 0 0 1.07 1.16c.193.178.374.33.587.505.211.162.415.3.62.44.82.546 1.64 1.014 2.434 1.427.796.41 1.563.773 2.283 1.076.358.157.705.297 1.037.427.331.134.647.25.947.358.596.223 1.125.387 1.558.532.435.139.781.233 1.015.305l.36.107.037.01a.83.83 0 0 0 1.004-.585.809.809 0 0 0-.599-.982m-15.038-2.73c-.043-.125 0 0 .01-.122l.005-.052a6.238 6.238 0 0 0 .007-.103s.045-.117.068-.168a.574.574 0 0 0 .028-.136l.081-.131s.105-.2.043-.308c-.06-.11-.078-.128-.078-.128-.188.014-.564-.06-.564-.06-.289-.044-.32.281-.32.281s-.145-.047-.242-.102c-.096-.055-.224-.526-.208-.634.005-.037.028-.06.048-.087.01.145.111.497.192.543a.657.657 0 0 0 .146.067s.108-.273.377-.232c0 0 .442.168.62.155.433-.562 3.587-3.919 4.027-4.08.466-.172.791-.588 1.06-.957.267-.368-.229-1.108-.229-1.108-1.33-1.635-3.09-2.623-4.106-3.098.046-.005.092-.007.137-.011.646.25 1.537.649 2.438 1.22a1.13 1.13 0 0 1 .092-.247c.035-.042.277-.564.575-1.186 1.74-.09 3.376-.134 4.834-.154a185.4 185.4 0 0 1 4.896.009l1.86.036-1.857-.105a186.89 186.89 0 0 0-4.898-.186 128.605 128.605 0 0 0-4.629-.024c.317-.652.66-1.329.888-1.67l-.005-.08a.04.04 0 0 1 .005-.024l.002-.005c.27-.543.515-1.102.71-1.673.094-.287.194-.569.281-.854.04-.143.08-.285.105-.43.02-.074.013-.144.026-.22.01-.075-.009-.144-.009-.224l.023-.008c.028.072.066.147.08.224.01.077.028.159.025.236.006.16-.01.315-.035.47-.032.152-.062.306-.11.452-.042.15-.103.293-.159.436a16.441 16.441 0 0 1-.825 1.634l-.003.1c.17.338.687 1.31 1.058 1.423.448.138.847-.418 1.08-1.094.198-.582.47-2.378.727-3.172h-.002c.101-.29.241-.66.284-.772.053-.147.226-.69.25-.857.02-.167.177-1.157.184-1.341.006-.185-.045-.29-.115-.287-.069.003-.114.243-.114.243l.047-.266s.041-.199.028-.344c-.015-.143-.146-.12-.19-.114-.043.005-.096.144-.096.144s.012-.176.02-.269c.008-.091-.11-.118-.198-.1-.087.02-.106.23-.106.23-.037-.071-.102-.103-.169-.014-.068.088-.1.37-.16.493-.063.122-.213.742-.213.742-.164.032-.276.271-.426.64-.154.37.161.496.057.96-.102.452-.214 1.04-.22 1.07.015-.409.04-1.3-.035-1.57-.094-.353-.146-.487-.329-.622-.159-.117-1.04-.542-1.306-.77l.045.016c-.125-.242-.182-.516.011-.84.398.068.751.075.983-.093.021-.409.098-.662.087-1.009.043-.095.216-.006.25-.118.013-.19-.16-.449-.24-.655.247-.043.006-.107.228-.288-.022-.288-.14-.512-.219-.762.741-.171.115-.632-.414-.91-.169-.087-.295-.22-.428-.274-.178-.075-.454-.114-.594-.141-.02-.005-.038-.067-.072-.069-.295-.026-.675.277-.873.113-.317.266-.713.411-.887.911-.15.431-.094.94-.232 1.453.148.196.184.646.165 1.027.107.11.121.067.274.19-.05.056-.093.123-.135.195a5.859 5.859 0 0 0-.852-.11c-.66-.023-.368-.701-2.276-.407-1.908.293-1.842.13-2.087.202-.244.071-1.425.89-2.129 2.055-.706 1.165-1.275 2.484-1.275 2.484s-.59.564-.657.753c-.07.19-.204.854.072.89.277.034.333.155.545.17.211.017.473.05.62.049.145-.003.385-.334.37-.478-.016-.143.094-.19.094-.19s.133-.155.095-.354c-.037-.197-.203-.6-.169-.688.034-.088.77-1.005 1.137-1.287.37-.284.906-1.022 1.124-1.418.218-.4.487-.276.75-.242.262.034 1.455.43 1.98.367 0 0-.115 1.178-.392 2.157-.278.977-.598 1.81-.71 2.06-.114.25-.332.662-.432.746a3.164 3.164 0 0 0-.274.264c-.043.048-.008-.053-.043.048-.035.101-.197.14-.223.307-.029.167.016.287-.033.387-.048.1.004.456-.05.633-.012.041-.073.194-.14.406-1.422.118-2.864.28-4.304.52-1.345.226-2.685.512-3.982.905-1.296.399-2.553.896-3.692 1.565-1.132.676-2.15 1.505-2.87 2.554a5.299 5.299 0 0 0-.952 3.431c.082 1.123.463 2.075.868 2.846.412.774.862 1.383 1.251 1.864.393.48.732.83.971 1.066.24.235.383.355.394.366a.84.84 0 0 0 1.164-.099.797.797 0 0 0-.1-1.137c.011.01-.108-.082-.323-.276a12.047 12.047 0 0 1-.893-.904 9.947 9.947 0 0 1-1.154-1.573c-.373-.64-.709-1.41-.809-2.268-.1-.856.078-1.794.627-2.66.54-.868 1.411-1.65 2.412-2.297 1.013-.647 2.18-1.164 3.407-1.59 1.23-.421 2.523-.75 3.832-1.018a51.467 51.467 0 0 1 3.993-.642c-.128.688-.132 1.548.473 2.117l.25.476s-1.016 2.007-1.392 3.38c0 0-.098.337-.414.521-.316.183-1.506 1.113-2.166 2.29 0 0-.334.303-.474.38 0 0-.142.239 0 1.35 0 0 .11-.088.225.05 0 0 1.698-1.21 2.407-1.777.71-.569 1.602-1.096 1.784-1.395.18-.288 1.018-1.038 1.427-1.315.218-.659.555-2.02 1.098-2.314 0 0-1.165-.431-2.03-.94.967.42 2.41.78 2.41.78-.639.349-1.197 2.035-1.408 2.451-.209.418-1.529 2.288-1.529 2.288-.264-.02-.75.305-.926.5-.173.195.096.802.096.802s-.277.36.221 1.42 1.43.94 1.752.947c.323.008.244-.448.158-.697-.086-.248-.22-1.004-.264-1.127m-5.53.436c-.142-1.113 0-1.351 0-1.351l.001-.006c.005-.018-.006-.081-.382-.11-.44-.035-.962-.136-1.053.005-.09.14-.354.56-.435 1.783-.082 1.223-.415 1.854-.308 2.277.107.423.27.817.756.716.486-.101.833-1.336.934-1.71.101-.373.508-.81.573-.96.065-.15.147-.3.147-.3l.031-.152-.04-.142c-.116-.139-.225-.05-.225-.05"></path>
                        </g>
                      </g>
                    </svg>