<svg class="sc-34cb55e4-1 cPAvSd __Csy" viewBox="0 0 24 24" width="24" height="24" xmlns="http://www.w3.org/2000/svg" aria-labelledby="keyboard">
                      <title id="keyboard"></title>
                      <path class="mainColor" fill="#9371B5" d="M9 21v-1.326l2.3-3.66-2.181-3.688V11h5.62v1.91h-3.154v.053l1.779 3.05-1.85 3.024v.053H15V21H9zm-5.118-2c-.362 0-.709-.079-.882-.126l.231-1.958c.145.047.318.063.52.063.723 0 .896-.474.896-1.926 0-2.464-.52-4.327-.52-7.042C4.127 5.72 4.618 4 7.118 4c.362 0 .709.079.882.126l-.231 1.958a1.697 1.697 0 0 0-.52-.063c-.723 0-.896.505-.896 1.926 0 2.464.52 4.327.52 7.042 0 2.29-.491 4.011-2.991 4.011zm12.85-10c-1.606 0-2.124-.89-2.124-2.203 0-.258.052-1.36.052-2.227h-1.204c0 1.313-.155 2.907-.323 4.407l-2.227-.118a21.78 21.78 0 0 0 .466-4.289H10v-1.5l.984-.07h6.99v1.57h-1.19c-.078.914-.078 2.133-.078 2.297 0 .399.207.516.57.516.129 0 .297-.024.465-.047L18 8.812c-.259.094-.738.188-1.269.188zm1.716 10C17.103 19 16 18.086 16 16.638c0-1.65 1.115-2.742 2.594-2.742.533 0 1.067.238 1.442.677v-.166c0-1.08-.266-1.769-1.188-1.769-.46 0-.824.178-1.2.522l-.884-1.258c.703-.57 1.43-.902 2.315-.902 2 0 2.921 1.353 2.921 3.347C22 17.172 20.521 19 18.448 19zm.337-2c.454 0 .957-.284 1.215-1.358-.27-.47-.638-.642-1.03-.642-.491 0-.97.247-.97 1.123 0 .618.38.877.785.877z"></path>
                    </svg>