<svg class="sc-34cb55e4-1 cPAvSd __Csy" width="48" height="48" xmlns="http://www.w3.org/2000/svg" viewBox="0 0 48 48">
                      <defs>
                        <path id="a" d="M0 0h29v29H0z"></path>
                      </defs>
                      <g fill="none" fill-rule="evenodd" transform="translate(10 9)">
                        <path class="mainColor" fill="#9371b5" d="M22.599 9.685h1.377V7.681h-.015c-.37.504-.862 1.21-1.362 2.004zm2.98 1.508v.261h-2.298v-.26c.659-.05.699-.16.699-.63v-.44h-1.96v-.31a55.178 55.178 0 0 1 2.38-3.172h.55v3.041h.7v.44h-.7v.47c0 .47.06.55.63.6zM18.3 3.631l-.388-.03v-.22c.509-.08 1.08-.21 1.75-.4v3.901c0 .53.06.66.669.7v.26h-2.36v-.26c.61-.04.68-.15.68-.7v-2.77c0-.41-.03-.46-.35-.48zm6.32.2l-5.41 7.512a.258.258 0 0 1-.21.111.297.297 0 0 1-.16-.05.278.278 0 0 1-.058-.37l5.449-7.553A13.928 13.928 0 0 0 15 .001v13.993h14c0-4-1.68-7.612-4.38-10.163zM11.27 24.428h-.69v.48c0 .46.05.54.622.59v.26H8.91v-.26c.649-.05.689-.16.689-.62v-.45H7.64v-.31c.84-1.17 1.65-2.27 2.38-3.172h.56v3.052h.69v.43zm-6.77-2.18c-.39 0-.7-.14-.858-.26-.13-.1-.181-.2-.181-.3 0-.14.13-.28.23-.35.09-.07.18-.09.29-.01.16.15.53.49.99.49.38 0 .68-.32.68-1.042 0-.73-.5-.99-.92-.99-.14 0-.3.02-.42.05l-.05-.26c.65-.21 1.11-.52 1.11-.99 0-.5-.32-.7-.66-.7-.39 0-.65.22-.92.58l-.2-.19.39-.51a1.41 1.41 0 0 1 1.08-.48h.01c.8 0 1.25.44 1.25 1.04 0 .2-.1.38-.24.51-.13.12-.31.23-.56.39v.02c.74.13 1.13.63 1.13 1.21 0 1.25-1.67 1.791-2.15 1.791zM14 1C6.27 1 0 7.262 0 14.995c0 4.051 1.722 7.702 4.472 10.253l5.629-7.792c.08-.12.25-.14.37-.06.11.08.14.25.06.37l-5.66 7.832A13.937 13.937 0 0 0 14 29c7.73 0 14-6.262 14-14.004H14V1zM8.222 23.998H9.6v-2.01h-.02c-.37.51-.86 1.21-1.36 2.01z"></path>
                      </g>
                    </svg>