<svg class="sc-34cb55e4-1 cPAvSd __Csy" width="48" height="48" xmlns="http://www.w3.org/2000/svg" viewBox="0 0 48 48">
                      <defs>
                        <path id="a" d="M0 0h27.485v31.39H0z"></path>
                      </defs>
                      <g fill="none" fill-rule="evenodd">
                        <path d="M0 0h48v48H0z"></path>
                        <g transform="translate(10 8)">
                          <path class="mainColor" fill="#00ADB8" d="M3.338 3.917a11.16 11.16 0 0 1-.295-.063c.217-.786 2.033-.354 2.379-.265.16.067.303.15.412.257 0 0-1.975-.555-2.496.07m.394-1.956c.515 0 .549.839.549.839-.31-.105-1.1 0-1.1 0s.035-.84.55-.84m1.254 19.135c-.918-.84-1.63-3.593-1.448-3.593.022 0 .058.042.109.134.442.799 1.165 2.264 1.945 2.264a.65.65 0 0 0 .116-.01c.824-.158.412-.84.206-1.73-.063-.275-.04-.381.042-.381.182 0 .644.527 1.026.853a.87.87 0 0 0 .563.2c.506 0 .977-.423.533-1.25-.475-.885-.372-1.246.1-1.246.14 0 .316.034.518.094.1.03.184.043.256.043.563 0 .34-.836.158-1.302-.18-.452.066-1.1.534-1.1.074 0 .154.017.238.053.095.04.186.057.269.057.469 0 .743-.557.349-1.001-.423-.48-.073-.957.344-.957.04 0 .08.004.12.013a.441.441 0 0 0 .104.013c.38 0 .478-.543.05-1.22-.401-.634-.957-1.308-.631-1.308.05 0 .123.016.219.05a.85.85 0 0 0 .299.06c.457 0 .513-.511.165-.688-.412-.21-3.35-3.512-4.895-6.343-.65-1.187-1.405-1.746-2.066-1.996.053.346-.121.853-.72.878-.641.027-.833.909-.861 1.55l-.154.022c-.011-.593.13-1.648.812-1.677.824-.035.79-1.05.48-1.118C3.458.388 2.716.423 2.71.213c-.008-.21-.582-.35-.741 0-.16.35-.194.458-.538.404-.344-.054-.55.225-.446.469.102.245.103.42 0 .595-.081.135.265.402.307.594l-.028-.041c-.011.06-.02.123-.028.184-.813.075-1.351 1.29-1.213 1.16.137-.13 1.213 0 1.213 0 1.06.234.845-1.064.137-1.156l.015-.003c.913-.083 1.265 1.58 0 1.3 0 0-.204-.023-.454-.042-.082.19-.263.56-.533.835-.378.384-.207 1.537.584 1.468.79-.071.893-.344 1.305.002.412.347 1.443-.107 1.374-.527-.07-.42.172-.555.653-.627.344-.051.864-.084.89-.241.026.013.056.025.079.038.696.41-.183.447-.696.524-.513.078-.77.222-.696.669.073.447-1.026.932-1.466.562-.348-.292-.49-.171-.95-.07a295.65 295.65 0 0 1-.15 5.82c-.26 7.772 2.283 9.489 3.345 9.489.414 0 .603-.26.313-.525M26.303 8.18c1.004-2.715-.545-2.831-.82-2.831h-.04c-.096-1.555-.983-1.784-1.494-1.784-.213 0-.361.04-.361.04-.173-.151-.347-.217-.518-.217-1.011 0-1.921 2.317-2.127 2.975-.241.769-1.375 2.516-3.091 3.494-.467.266-1.156.363-1.911.363-1.485 0-3.228-.372-4.06-.573-.002.013-.002.025-.005.038a.844.844 0 0 1-.625.627c.097.142.196.29.29.439.37.584.46 1.175.243 1.58a.8.8 0 0 1-.717.428c-.07 0-.141-.008-.224-.026a.052.052 0 0 0-.03.009.261.261 0 0 0 .06.093c.319.358.405.83.229 1.235a1.026 1.026 0 0 1-.952.622c-.155 0-.31-.033-.462-.097-.027-.012-.04-.013-.04-.014-.052.029-.135.236-.072.398.289.735.315 1.289.078 1.645-.02.03-.046.054-.07.08 1.557 1.97 3.924 2.716 6.245 2.716 2.004 0 3.974-.554 5.355-1.35 3.64-2.096 2.92-3.984 2.92-3.984.584 1.049.343 1.398.343 1.398 3.608-1.677 2.19-4.158 2.19-4.158 2.088-1.573-.334-3.146-.334-3.146m-1.647 7.77l-.55.256c-.53.817-1.426 1.592-2.674 2.31-1.54.887-3.634 1.416-5.603 1.416-2.897 0-5.204-1.052-6.682-2.97a.957.957 0 0 1-.196.02 1.4 1.4 0 0 1-.397-.062 2.335 2.335 0 0 0-.247-.06c.033.102.094.255.213.475.383.716.217 1.207.084 1.435-.21.358-.606.572-1.06.572-.326 0-.638-.11-.878-.312.062.314.064.612-.1.884-.15.248-.407.409-.766.478a1.12 1.12 0 0 1-.21.019c-.227 0-.44-.067-.64-.184.119.2.245.369.372.485.278.254.374.586.26.888-.096.254-.318.429-.616.498 1.427 1.293 3.949 3.26 6.822 4.06v.002s-1.624 2.142-2.126 2.652c-.503.512-1.572.839-2.19.853-.618.013-.644.419-.296.459.348.039 1.584-.171 1.584-.171-.31.092-.683.485-.683.485-.154.379.412.472.618.236.207-.236 1.199-.774 1.199-.774 1.03-.42 1.417.328 1.778.21.36-.118.073-.402.073-.402-.592-.105-.97-.804-.97-.804.24-.872 1.938-2.528 1.942-2.531.93.168 1.887.199 2.848.035 0 0-.771 2.426-1.287 2.776-.515.349-.24-.035-1.477.419-1.236.455-.378.665-.378.665.756-.21 1.409-.175 1.409-.175-1.134 1.118-.412 1.328-.241 1.293.172-.035.516-.21.516-.21.068-.385.68-1.256 1.092-1.361.412-.105.704.052 1.504.383.633.26 1.079.419 1.079.419s.24-.175-.15-.7c-.39-.523-1.74-.488-2.048-.733-.31-.245 1.613-3.254 1.613-3.254h-.001l.158-.066c5.503-2.47 7.87-7.272 7.689-10.11a6.652 6.652 0 0 1-.387.196"></path>
                        </g>
                      </g>
                    </svg>