<svg class="sc-34cb55e4-1 cPAvSd __Csy" width="24" height="24" xmlns="http://www.w3.org/2000/svg" viewBox="0 0 24 24">
                    <path class="mainColor" fill="#F96932" fill-rule="evenodd" d="M20.753 15.22c.33.293.33.767 0 1.06l-2.813 2.5c-.527.469-1.44.14-1.44-.53V17h-2.067a.448.448 0 0 1-.308-.12l-2.48-2.361 1.874-1.786 1.856 1.767H16.5v-1.25c0-.67.912-1 1.44-.53l2.813 2.5zM3.422 9.5C3.189 9.5 3 9.332 3 9.125v-1.75C3 7.168 3.189 7 3.422 7h3.895c.117 0 .228.043.308.12l2.48 2.362-1.874 1.785L6.375 9.5H3.422zm13.078 0h-1.125l-7.75 7.38a.448.448 0 0 1-.308.12H3.422C3.189 17 3 16.832 3 16.625v-1.75c0-.207.189-.375.422-.375h2.953l7.75-7.38a.448.448 0 0 1 .308-.12H16.5V5.75c0-.67.912-1 1.44-.53l2.813 2.5c.33.293.33.767 0 1.06l-2.813 2.5c-.527.469-1.44.14-1.44-.53V9.5z"></path>
                  </svg>