<svg class="sc-34cb55e4-1 cPAvSd __Csy" width="48" height="48" xmlns="http://www.w3.org/2000/svg" viewBox="0 0 48 48">
                      <path class="mainColor" fill="#359D6E" fill-rule="evenodd" d="M17.651 12.858l.719-.481 3.056 4.581.954-.638-3.055-4.581.706-.47L17.466 10l.185 2.858zm12.627 2.408l.481.72-2.317 1.546.638.955 2.316-1.545.471.706 1.268-2.567-2.857.185zm-11.295 4.361l4.539 6.792 6.789-4.539-4.538-6.792-6.79 4.539zM36 20.002v17H11v1h26v-18h-1zm-9 5.406v5.594h2l-2.528 3.001L24 31.002h2v-5.125L11 36.002h24v-16l-8 5.406zm-9.146-1.157l-.97-1.453-.723 3.627 3.626.725-.978-1.466 2.203-1.469-.957-1.433-2.201 1.469z"></path>
                    </svg>