<svg class="sc-34cb55e4-1 cPAvSd __Csy" width="48" height="48" xmlns="http://www.w3.org/2000/svg" viewBox="0 0 48 48">
                      <defs>
                        <path id="a" d="M0 0h28.8v27.895H0z"></path>
                      </defs>
                      <g fill="none" fill-rule="evenodd" transform="translate(10 10)">
                        <path class="mainColor" fill="#9371b5" d="M28.622 14.886l-2.117-2.042a.614.614 0 0 0-.865 0l-9.882 9.549-3.833-3.703a.63.63 0 0 0-.438-.165.605.605 0 0 0-.427.165l-2.117 2.041a.58.58 0 0 0 0 .837l6.377 6.15a.628.628 0 0 0 .438.164.6.6 0 0 0 .426-.164L28.622 15.71a.566.566 0 0 0 0-.824zm-3.57 11.741h-5.95l-1.315 1.268h8.517V19.68l-1.253 1.205v5.743zm-21.294 0V25.36h1.253v-2.536H3.758v-2.535h1.253v-2.536H3.758v-2.537h1.253V12.68H3.758v-2.536h1.253V7.608H3.758V5.072h1.253V2.535H3.758V1.268h21.293v10.46a1.82 1.82 0 0 1 1.028-.304c.075 0 .613.353.688.378V0H2.505v2.535H0v2.537h2.505v2.536H0v2.536h2.505v2.536H0v2.535h2.505v2.537H0v2.536h2.505v2.535H0v2.536h2.505v2.536h11.21l-1.301-1.268H3.758zm3.758-8.875h2.743a1.847 1.847 0 0 1 1.228-.483c.463 0 .901.178 1.239.483h6.05l1.315-1.268H7.516v1.268zm0-3.804h15.03V12.68H7.517v1.268zm0-3.804h15.03V8.876H7.517v1.268zm0-3.804h15.03V5.072H7.517V6.34z"></path>
                      </g>
                    </svg>