<svg class="sc-34cb55e4-1 cPAvSd __Csy" width="48" height="48" xmlns="http://www.w3.org/2000/svg" viewBox="0 0 48 48">
                      <defs>
                        <path id="a" d="M0 0h24.02v29.988H0z"></path>
                      </defs>
                      <g fill="none" fill-rule="evenodd" transform="translate(12 10)">
                        <path class="mainColor" fill="#F96932" d="M14.566 11.974c.29-.325-.075-.646-.344-.763-.247.2.042.73.344.763zm.572-1.253c-.267-.19-.684-.5-1.146-.327.24.407.465.829 1.146.817v-.49zM1.577 10.4c.42-.032.685-.207 1.074-.268.069.469-1.204.12-1.032.86l.013-.003c.002.004.002.007.002.01a1.1 1.1 0 0 1 .829.027c.15.062.302.147.474.24v-.002a.11.11 0 0 1 .015.008c1.103-1.072.32-3.6.344-5.285-.006.004-.01.01-.015.016L3.28 5.98c-.276.183-.256.814-.46 1.362-.199.545-.62.797-.744 1.308-.065.272.038.592-.057.872-.095.282-.541.498-.458.872l.015-.003c.002.003 0 .006.002.009zm6.705 1.684c.118-.35-.023-.867-.115-.927-.094-.06-.171 0-.171 0-.508.818.091.988.091.988.1-.072.195-.061.195-.061zm.146-3.797a.59.59 0 0 0-.059.213c.528-.353 1.348-.597 2.245-.644.003-.027-.002-.05-.003-.073l.03-.003c.07-.917-1.863-.548-2.248-.067.016.006.027.007.04.01-.023.022-.048.043-.064.065.384.173.623-.217 1.034-.216-.304.258-.837.299-.974.715zm.596 5.592l-.508.023c-.155.015-.325.06-.487.098l-.033.007-.027-.004a3.49 3.49 0 0 0-.425-.052l-.45.033c-.304.027-.61.056-.923.076a5.15 5.15 0 0 1 .89-.268 4.38 4.38 0 0 1 .466-.084c.173-.01.31.013.458.034.165-.045.325-.077.508-.095.192-.003.355.007.535.02.35.032.7.069 1.038.176l-1.042.036zm-.498.658c-.154.035-.309.047-.463.059a3.035 3.035 0 0 1-.465-.013 1.707 1.707 0 0 1-.465-.1c.309-.093.61-.134.915-.152.153-.004.306-.01.46.003.155.007.306.027.466.044-.14.092-.298.123-.449.159zM7.11 15.902c.184-.474 1.402-.474 1.833-.218-.595.086-1.323.047-1.832.218zm.5-2.582l.177-.025c.125 0 .247-.018.397.028-.103.115-.238.149-.376.173-.13 0-.31-.005-.393-.147.075 0 .135-.02.194-.03zm4.741 2.364c.116-.077.332-.238.332-.238v-.001c.38-.132.685-.92.361-1.163 0 0-.113-.594-.113-.65 0-.054 0-.065-.011-.153-.011-.09-.072-.122-.053-.19.017-.065 0-.108 0-.108s.031-.123-.074-.123c-.104 0 0-.032-.104 0a1.887 1.887 0 0 0-.313.154.121.121 0 0 0-.087.039l.047-.012c-.002.003-.01.008-.013.01a.503.503 0 0 0-.191.086c-.152.115-.14.022-.14.022s-.094-.2.07-.386c.162-.187.232-.435.232-.435l.022-.14s.012-.077.012-.131c0-.055.013-.077.013-.121l-.007-1.046c.034-.708.082-1.395.45-1.843.042-.461-.058-.783-.232-1.036-.554-.085-1.098-.181-1.5-.414.242.539-.104.98-.646 1.058-.1-.117.405-.246.23-.493-.452.043-.647.333-1.21.274-.155-.053.191-.49-.171-.44-.259.04-.044.368 0 .44-.224.015-.455-.142-.633 0 .037.367.068.738.289.93-.136.255-.288.217-.345.382-.32.916 1.098 1.725.23 2.243-.091.055-.364.079-.576.165-.242.097-.45.26-.518.273-.73.133-1.627-.178-1.724-.804-.138-.87.397-2.116.057-3.19-.469.236-.934.26-1.324-.054-.042.167.058.198.058.328-.212.018-.32-.06-.46-.11.175-.69 1.048-.722 1.84-.547.04-.576-1.128-.844-1.668-.437-.127.135-.095.42-.345.437-.098-.192.09-.574-.173-.71-.051.023-.103.048-.115.109l-.011.003a.062.062 0 0 1 .007.012c-.02 2.42.158 5.829 1.262 7.519.248.38.619.619.974 1.036.242.287.415.807.744.98.893.473 2.527-.041 3.095-.545.604.08 1.088-.048 1.47-.323v.002s.614-.39.66-.441c.048-.052.162-.172.232-.195.07-.023-.045.056.07-.023zM9.61.924L9.564.918c.761-.141 1.732-.13 2.138.213a13.781 13.781 0 0 0-2.578.015c.026 0 .048.003.074.004-.143.013-.288.024-.424.04.184-.11.49-.2.837-.264zM3.677 7.167c.952-.47 2.4-.208 2.797.65.005.173.022 1.075-.103 1.687-.14.679-.465 2.209-.186 2.473.277.264.292.27.918.18 0 0 .39-.284.308-.616-.192-.756-.181-1.614.202-2.918.106-.364-.218-.885-.197-1.401.545-.482 1.529-.903 2.474-.875.597.017 1.059.46 1.652.383.413-.33.045-.742.038-1.29-.008-.751.606-1.657.401-2.723-.104-.548-.537-.87-1.03-1.144.13-.02.25-.024.37-.028-.004-.004-.011-.007-.017-.01 1.116-.02 1.865.62 2.288 1.34-.725-.072-.737-.824-1.431-.927.322.992.434 1.986 1.03 2.67.2.23.535.344.745.546.409.39.59.942 1.088 1.198-.871.049-.88-1.196-1.833-1.253-.233.738.394 1.112.745 1.47-.184.1-.45-.186-.745-.162-.275 1.718.806 2.609 2.178 2.943-.563.268-1.13-.224-1.604-.382-.36 1.05.645.958 1.431 1.199.425.129.643.49.974.49.392 0 .67-.324.689-.49.044-.423-.34-.351-.402-.764.614-.068 1.966.71 2.407.055.168-.25.099-.493-.058-.763-.252-.171-.463.082-.686.109-.047-.245.163-.244.229-.381.539-.041.667.31 1.088.38.813-.673-.407-1.395-.515-1.852-.046-.195.105-.472.056-.707-.165-.8-1.377-.64-.916.163-.42.055-.308-.397-.573-.491-.692-.16-1.142-.548-1.72-.817.441-.092 2.326 1.246 2.523.218.056-.301-.105-.422-.345-.545-.373-.101-.152.363-.459.327-.047-.257.373-1.156-.057-1.634-.974.112-1.133-.646-1.604-1.145-.64-.676-1.813-1.038-2.407-1.69a5.473 5.473 0 0 0-.783-.291C11.645.13 10.412-.094 9.066.04 7.628.185 6.17 1.07 5.123 2.283c.119-.112.236-.213.353-.308-.593.608-1.085 1.31-1.404 2.062-.037.089-.07.176-.102.26l-.046.133-.078.238a4.687 4.687 0 0 0-.172.935c-.046.584.033 1.035 0 1.576l.002-.013zM22.229 20.56c-1.072-.624-2.242-1.307-1.375-2.18-.174-.51-.344-1.19-.686-1.798-.232-.41-.686-1.243-1.146-1.361-.31-.081-.634-.013-1.002.038l.005.013.037.122c.08.09.128.17.145.204l.08.147-.024.165c-.032.218-.447 2.136-5.409 3.128l.021.36h.03l.132.352c.12.319.295.689.524 1.105h.204l.02.509c.034.802-.084 1.29-.38 1.583a.911.911 0 0 1-.3.196c.155.388.276.858.08 1.28-.092.2-.295.469-.74.614a1.122 1.122 0 0 0-.08.03l.011.073c.12.67.018 1.379-1.512 2.03a5.799 5.799 0 0 0-.204.093c-.02.12-.122.286-.36.513-.973.926-.591 1.874-.33 2.21 0 0 5.36-2.448 6.36-1.634 0 0 .482.049 1.034-.411.553-.46.697-.761 1.846-.86 1.146-.1.576-1.167 1.28-2.001.707-.834.087-.694 1.421-1.101 1.334-.406.06-.981.846-1.3.788-.318 1.256-.405 1.248-.647.171-.638-1.18-1.126-1.776-1.472zm-18.5 6.24c.033-.051.051-.081.06-.097v-.023c-.001-.087-.003-.213.032-.416l-.033-.03c-.165-.155-.67-.626-.094-1.38.15-.196.156-.24.163-.285.04-.27.131-.496.527-.984.035-.045.058-.08.072-.101l-.003-.003c-.502-.775.304-1.254.737-1.511l.088-.053a.642.642 0 0 1-.135-.408c.01-.366.32-.612.591-.787l.073-.046a1.259 1.259 0 0 1-.04-.376c-.367.315-.888.574-1.184.805a18.27 18.27 0 0 0-1.66 1.47C1.817 23.687.775 24.644 0 25.847v.254c.788-.018 2.154.31 3.515 2.316.102.03.208.046.322.046.048 0 .09-.007.133-.013a.713.713 0 0 1-.02-.335c-.33-.391-.513-.881-.224-1.312zm5.03.053s2.144-1.014 1.722-1.898c-.423-.881.746-.816.746-.816-.51.24-.835.067-.393.949.442.883-2.075 1.765-2.075 1.765zm3.667-4.684s-1.068-.654-1.946 1.419c0 0 .453-2.441 1.946-1.42zm-5.06-3.087s-.32.275-.767-.172c0 0 .175.146.766.172zm-2.68 7.992s.687-1.717 0-1.58c-.684.139 1.53-1.068 0 1.58zM17.19 15.653s-.437 1.56-2.76 2.178c0 0 1.438-.561 2.76-2.178zm-4.926 8.885c1.258-.411-.514-2.251.235-1.92.608.269.765-.355.73-1.233h-.002c-.351-.607-.575-1.081-.716-1.457h-.002c-.257-.582-.828-.485-1.039-.427l-.009.004c-.016.006-.034.009-.05.013l-.027.01.002-.002a1.02 1.02 0 0 1-.341.04 1.14 1.14 0 0 0-.329.015c-.422.1-.792.45-1.262.652-.248.125-.584.107-.812.012a1.71 1.71 0 0 0-.671-.12 1.92 1.92 0 0 0-1.269.553c.245-.415.732-.697 1.245-.755.267-.036.545.023.772.102.23.08.421.082.62-.013.426-.181.768-.558 1.322-.68.132-.028.286-.024.405-.011a.767.767 0 0 0 .308-.04c.201-.064.426-.236.728-.24.069.002.133.01.195.024-.02-.39.127-.485.127-.485 5.027-.926 5.287-2.741 5.287-2.741s-.073-.137-.22-.228c-.148-.09 0-.184 0-.184l-.261-.818-.14-.165-.42-.315h-.293c-.17 1.229-5.142 4.019-7.927 4.246-2.786.226-1.974-.794-1.974-.794l-.215.137s-.133.09-.181.272c-.05.18 0 0-.027.158-.022.159 0 0 .099.113.098.114-.05.09 0 .204.05.113.098.136.22.272.123.136 0 0 0 .203 0 .204 0 0 .074.204.073.204 0 0-.05.137-.048.135.074.089 0 .36-.072.273 0 0 0 .115v.18l-.074.318a.693.693 0 0 0 .224.61 8.324 8.324 0 0 0-.502.298c-1.074.695.834.43-.558 1.258-1.393.827.034.628-.662 1.489-.696.86-.173.596-.68 1.257-.506.662.332.629.234 1.126-.095.496.063.43-.18.794-.244.364.417.927.417.927s-.835.794 1.88.595c2.715-.198 1.808-.926 4.14-1.92 2.332-.992.372-1.74 1.63-2.15z"></path>
                      </g>
                    </svg>