<svg width="14" height="14" xmlns="http://www.w3.org/2000/svg" viewBox="0 0 14 14">
                    <path class="mainColor" fill="#777" d="M12.5 0h-11A1.5 1.5 0 0 0 0 1.5v11A1.5 1.5 0 0 0 1.5 14h11a1.5 1.5 0 0 0 1.5-1.5v-11A1.5 1.5 0 0 0 12.5 0zM9.928 11.381c-.266.285-.975.619-1.903.619-2.36 0-2.872-1.734-2.872-2.747V6.441h-.928a.195.195 0 0 1-.194-.194V4.919a.33.33 0 0 1 .222-.313C5.466 4.178 5.843 3.122 5.9 2.32c.016-.216.128-.319.313-.319h1.384c.106 0 .194.087.194.194v2.25h1.621c.107 0 .194.087.194.194v1.596a.195.195 0 0 1-.194.194H7.784v2.603c0 .669.463 1.047 1.329.7.093-.037.175-.062.25-.043.068.015.112.065.143.153l.431 1.256c.032.1.063.21-.009.284z"></path>
                  </svg>