<svg class="sc-80ecefa5-5 sc-jcMfQk fLnWxo cBuCap" width="40" height="40" xmlns="http://www.w3.org/2000/svg" viewBox="0 0 40 40">
                <path d="M20 4A18 4 0 002 8a18 4 0 0018 4 18 4 0 0018-4 18 4 0 00-18-4zM2 10v8a18 4 0 0018 4 18 4 0 0018-4v-8a18 4 0 01-18 4 18 4 0 01-18-4zm32.5 5a1.5 1.5 0 011.5 1.5 1.5 1.5 0 01-1.5 1.5 1.5 1.5 0 01-1.5-1.5 1.5 1.5 0 011.5-1.5zM2 20v8a18 4 0 0018 4 18 4 0 0018-4v-8a18 4 0 01-18 4 18 4 0 01-18-4zm32.5 5a1.5 1.5 0 011.5 1.5 1.5 1.5 0 01-1.5 1.5 1.5 1.5 0 01-1.5-1.5 1.5 1.5 0 011.5-1.5zM2 30v8a18 4 0 0018 4 18 4 0 0018-4v-8a18 4 0 01-18 4 18 4 0 01-18-4zm32.5 5a1.5 1.5 0 011.5 1.5 1.5 1.5 0 01-1.5 1.5 1.5 1.5 0 01-1.5-1.5 1.5 1.5 0 011.5-1.5z" fill="#ff9a38"></path>
              </svg>