<svg class="sc-80ecefa5-5 sc-jcMfQk fLnWxo cBuCap" width="40" height="40" xmlns="http://www.w3.org/2000/svg" viewBox="0 0 40 40">
                <path d="M18.85 4c-2.2.12-1 3.98-3.12 4.55-2.13.57-3-3.38-4.97-2.38-1.96 1 .72 4.03-1 5.42-1.7 1.38-4.12-1.88-5.5-.16-1.4 1.7 2.3 3.4 1.3 5.35-1 1.96-4.53-.04-5.1 2.1-.57 2.12 3.48 2.16 3.36 4.36-.12 2.2-4.14 1.8-3.8 4 .35 2.17 4.06.55 4.85 2.6.8 2.07-3.05 3.35-1.85 5.2 1.2 1.85 3.93-1.13 5.5.43 1.55 1.55-1.43 4.28.42 5.48 1.85 1.2 3.13-2.64 5.2-1.85 2.05.8.43 4.5 2.6 4.85 2.2.34 1.8-3.68 4-3.8 2.2-.12 2.24 3.93 4.37 3.36 2.14-.57.14-4.1 2.1-5.1 1.97-1 3.65 2.7 5.36 1.3 1.72-1.38-1.54-3.8-.15-5.5 1.4-1.72 4.43.96 5.43-1 1-1.97-2.95-2.84-2.38-4.97.57-2.13 4.43-.9 4.55-3.12.1-2.2-3.85-1.4-4.2-3.57-.34-2.17 3.68-2.63 2.9-4.7-.8-2.05-4.1.3-5.3-1.55-1.2-1.85 2.3-3.9.73-5.46-1.56-1.56-3.6 1.93-5.46.73-1.85-1.2.5-4.5-1.56-5.3-2.05-.78-2.5 3.24-4.68 2.9-2.18-.35-1.37-4.3-3.57-4.2zM20 11a13 13 0 0113 13 13 13 0 01-13 13A13 13 0 017 24a13 13 0 0113-13zm0 7a6 6 0 00-6 6 6 6 0 006 6 6 6 0 006-6 6 6 0 00-6-6z" fill="#ff9a38"></path>
              </svg>