<svg class="sc-34cb55e4-1 cPAvSd __Csy" width="48" height="48" xmlns="http://www.w3.org/2000/svg" viewBox="0 0 48 48">
                      <defs>
                        <path id="a" d="M0 0h25v28H0z"></path>
                      </defs>
                      <g fill="none" fill-rule="evenodd" transform="translate(12 10)">
                        <path class="mainColor" fill="#F96932" d="M15.842 17.226c.876 0 1.454-.697 1.454-1.529 0-.852-.578-1.549-1.454-1.549s-1.454.697-1.454 1.55c0 .831.578 1.528 1.454 1.528zM4.88 14.052a.32.32 0 0 1 .13-.272l2.127-1.587a.507.507 0 0 1 .335-.116H9.56c.112 0 .186.078.186.194v12.775c0 .116-.074.194-.186.194H7.322c-.111 0-.185-.078-.185-.194v-9.91h-.038l-2.013 1.432c-.112.077-.206.038-.206-.116v-2.4zm6.953 1.645c0-2.033 1.436-3.833 4.009-3.833 2.573 0 4.008 1.8 4.008 3.833 0 1.238-.633 2.187-1.231 2.633v.038c.802.562 1.51 1.607 1.51 3.078 0 2.42-1.826 4.007-4.287 4.007s-4.288-1.588-4.288-4.007c0-1.47.708-2.516 1.51-3.078v-.038c-.597-.446-1.231-1.395-1.231-2.633zM0 26.872C0 27.496.487 28 1.087 28h22.822c.603 0 1.087-.504 1.087-1.128L25 10H.004L0 26.872zm15.842-3.704c1.025 0 1.715-.755 1.715-1.838 0-1.065-.69-1.82-1.715-1.82-1.025 0-1.715.755-1.715 1.82 0 1.083.69 1.838 1.715 1.838zM12.62 5.828l-.33 1.054h.67l-.327-1.055h-.013zm8.215-2.19c0 .132-.012.24-.017.362H21c0 .011-.165-.374-.165-.362zm-.312 3.64a.888.888 0 0 0 .604-.254.704.704 0 0 1-.676.551.706.706 0 0 1-.69-.64c-.01-.036-.022-.07-.022-.108 0-.075.02-.142.05-.203a.702.702 0 0 1 .583-.492c.188-.345.402-1.072.446-2.132H20c.006-1.735.348-3.045.53-3.1.168.056.652.981.652 2.738 0 1.757-.484 2.683-.667 2.738a.44.44 0 0 0-.43.451c0 .248.197.45.438.45zm-5.14-.472v1.157c0 .026-.016.044-.042.044H14.8c-.026 0-.043-.018-.043-.044V6.806L13.9 5.038c-.01-.022 0-.044.03-.044h.555c.03 0 .05.013.063.044l.525 1.1h.013l.526-1.1c.012-.03.034-.044.063-.044h.538c.03 0 .043.022.03.044l-.858 1.768zM13.91 8.007h-.555c-.03 0-.046-.013-.055-.044l-.167-.528h-1.016l-.162.528c-.01.031-.025.044-.055.044h-.56c-.03 0-.038-.018-.03-.044l1-2.925c.008-.026.025-.044.055-.044h.538c.03 0 .046.018.055.044l.982 2.925c.008.026 0 .044-.03.044zm-3.041-.044c0 .026-.017.044-.043.044h-.482c-.025 0-.043-.018-.043-.044V6.266h-.017l-.538 1.272c-.016.04-.043.057-.081.057H9.37c-.04 0-.064-.018-.081-.057l-.538-1.272h-.017v1.697c0 .026-.017.044-.042.044H8.21c-.025 0-.043-.018-.043-.044V5.038c0-.026.018-.044.043-.044h.508c.034 0 .056.013.068.044l.735 1.72h.016l.722-1.72a.066.066 0 0 1 .067-.044h.5c.026 0 .043.018.043.044v2.925zM5.205 6.934a.706.706 0 0 1-.69.641.702.702 0 0 1-.676-.55.885.885 0 0 0 .604.252.446.446 0 0 0 .437-.45.44.44 0 0 0-.43-.45c-.183-.056-.674-.654-.674-2.41 0-1.758.49-3.01.66-3.067.182.055.562 1.365.567 3.1h-1c0 .011-.004-.047-.004-.036 0 1.275.385 1.783.595 2.168a.702.702 0 0 1 .582.492.469.469 0 0 1 .05.203c0 .038-.012.072-.021.107zM24 4h-2c-.005-1.743-.433-4-1.476-4S19.007 2.257 19 4H6.003c-.006-1.743-.517-4-1.56-4C3.4 0 3.009 2.257 3.003 4h-2c-.6 0-1 .38-1 1v4H25V5c0-.62-.398-1-1-1z"></path>
                      </g>
                    </svg>