<svg class="sc-34cb55e4-1 cPAvSd __Csy" width="24" height="24" xmlns="http://www.w3.org/2000/svg" viewBox="0 0 24 24">
                    <path class="mainColor" fill="#fa6800" d="M6 8a2 2 0 1 1 0-4 2 2 0 0 1 0 4zm0 6a2 2 0 1 1 0-4 2 2 0 0 1 0 4zm0 6a2 2 0 1 1 0-4 2 2 0 0 1 0 4zm6-12a2 2 0 1 1 0-4 2 2 0 0 1 0 4zm0 6a2 2 0 1 1 0-4 2 2 0 0 1 0 4zm0 6a2 2 0 1 1 0-4 2 2 0 0 1 0 4zm6-12a2 2 0 1 1 0-4 2 2 0 0 1 0 4zm0 6a2 2 0 1 1 0-4 2 2 0 0 1 0 4zm0 6a2 2 0 1 1 0-4 2 2 0 0 1 0 4z"></path>
                  </svg>