<svg class="sc-34cb55e4-1 cPAvSd __Csy" width="48" height="48" xmlns="http://www.w3.org/2000/svg" viewBox="0 0 48 48">
                      <path class="mainColor" d="M42.9 17.5s-4.1-1-8.7 3c.5-5.6-1.7-10.4-5.5-11.3-.5-.1-.9-.2-1.4-.2-.6-.4-1.2-.6-1.8-.8-4.8-1.3-10.2 3.2-11.9 10-1.8 6.8.7 13.3 5.6 14.6.5.1 1 .2 1.5.2.5.3 1.1.6 1.7.8 4 1 8.5-2.5 10.6-8.1 3.5-2.9 9-5.9 15-2.6 0 0-2.5-2.1-5.1-5.6zM32.6 22c-.7.8-1.4 1.6-2.1 2.6l.6-1.8c1.1-4.5.5-8.8-1.5-11.6 2.6 1.5 3.9 5.9 3 10.8zm-10.3-3.2c-.1.3-.3.4-.4.4-.2 0-.3-.3-.2-.5.1-.3.3-.4.4-.4.2 0 .3.2.2.5zm.2 1.2c.1 0 .2.2.2.4s-.2.3-.3.3c-.1 0-.2-.2-.2-.4s.1-.4.3-.3zm-.5 1.6c.2 0 .3.3.2.5-.1.3-.3.4-.4.4-.2 0-.3-.3-.2-.5 0-.2.2-.4.4-.4zm2.6 1.5c1.3.3 2 2.2 1.6 4.1-.5 1.9-2 3.1-3.3 2.8-1.3-.3-2-2.2-1.6-4.1.4-1.9 1.9-3.2 3.3-2.8zm-1-2.4c.2 0 .3.3.2.5-.1.3-.3.4-.4.4-.2 0-.3-.3-.2-.5 0-.3.2-.4.4-.4zm-.4-1.7c.1-.3.3-.4.4-.4.2 0 .3.3.2.5-.1.3-.3.4-.4.4-.2 0-.3-.3-.2-.5zm4.9-2.7c1.3.3 2 2.2 1.6 4.1-.5 1.9-2 3.1-3.3 2.8-1.3-.3-2-2.2-1.6-4.1.5-1.9 1.9-3.1 3.3-2.8zm-6.6-2.9c.5-1.9 2-3.1 3.3-2.8 1.3.3 2 2.2 1.6 4.1-.5 1.9-2 3.1-3.3 2.8-1.3-.4-2-2.2-1.6-4.1zm-.4 6.7c.2 0 .3.3.2.5-.1.3-.3.4-.4.4-.2 0-.3-.3-.2-.5.1-.3.3-.5.4-.4zM16 16.8c.5-1.9 2-3.1 3.3-2.8 1.3.3 2 2.2 1.5 4.1-.5 1.9-2 3.1-3.3 2.8-1.3-.4-2-2.2-1.5-4.1zm1.3 11.7c-1.3-.4-2-2.2-1.6-4.1.5-1.9 2-3.1 3.3-2.8 1.3.3 2 2.2 1.6 4.1-.4 1.9-1.9 3.2-3.3 2.8zm11.9.7h-.8c.2-.5.9-1.3 1.1-1.8l1.2.1c-.8.8-1.3 1.4-1.5 1.7zm2-2.2l-1.4-.2c.3-.6.6-1.1 1-1.6l2 .4c-.7.5-1.2 1-1.6 1.4zm2.1-1.9l-2.3-.4c.7-1 1.3-1.8 2-2.5l3 1.1c-1 .5-1.9 1.1-2.7 1.8zm3.5-2.2l-3.2-1.2c1.1-1.1 2.2-1.9 3.2-2.4l3.2 2.4c-1.2.3-2.2.7-3.2 1.2zm5.8-1.5c-.6 0-1.3.1-1.9.2L37.4 19c1.5-.6 2.8-.9 3.9-1 .5 0 .9 0 1.1.1.9 1.2 2.8 3.1 3.9 4-.8-.2-1.6-.7-3.7-.7z" fill="#F96932"></path>
                    </svg>