<svg class="sc-34cb55e4-1 cPAvSd __Csy" width="20" height="20" xmlns="http://www.w3.org/2000/svg" viewBox="0 0 20 20">
                    <path class="mainColor" d="M16 5H4a1 1 0 00-1 1v8a1 1 0 001 1h12a1 1 0 001-1V6a1 1 0 00-1-1zm-9.5 8.5a.5.5 0 01-.5.5H5a.5.5 0 01-.5-.5v-1A.5.5 0 015 12h1a.5.5 0 01.5.5zm0-3a.5.5 0 01-.5.5H5a.5.5 0 01-.5-.5v-1A.5.5 0 015 9h1a.5.5 0 01.5.5zm0-3A.5.5 0 016 8H5a.5.5 0 01-.5-.5v-1A.5.5 0 015 6h1a.5.5 0 01.5.5zm3 6a.5.5 0 01-.5.5H8a.5.5 0 01-.5-.5v-1A.5.5 0 018 12h1a.5.5 0 01.5.5zm0-3a.5.5 0 01-.5.5H8a.5.5 0 01-.5-.5v-1A.5.5 0 018 9h1a.5.5 0 01.5.5zm0-3A.5.5 0 019 8H8a.5.5 0 01-.5-.5v-1A.5.5 0 018 6h1a.5.5 0 01.5.5zm3 6a.5.5 0 01-.5.5h-1a.5.5 0 01-.5-.5v-1a.5.5 0 01.5-.5h1a.5.5 0 01.5.5zm0-3a.5.5 0 01-.5.5h-1a.5.5 0 01-.5-.5v-1A.5.5 0 0111 9h1a.5.5 0 01.5.5zm0-3a.5.5 0 01-.5.5h-1a.5.5 0 01-.5-.5v-1A.5.5 0 0111 6h1a.5.5 0 01.5.5zm3 6a.5.5 0 01-.5.5h-1a.5.5 0 01-.5-.5v-1a.5.5 0 01.5-.5h1a.5.5 0 01.5.5zm0-3a.5.5 0 01-.5.5h-1a.5.5 0 01-.5-.5v-1A.5.5 0 0114 9h1a.5.5 0 01.5.5zm0-3a.5.5 0 01-.5.5h-1a.5.5 0 01-.5-.5v-1A.5.5 0 0114 6h1a.5.5 0 01.5.5z" fill="#fa6800"></path>
                  </svg>