<svg class="sc-34cb55e4-1 cPAvSd __Csy" width="48" height="48" xmlns="http://www.w3.org/2000/svg" viewBox="0 0 48 48">
                      <defs>
                        <path id="a" d="M0 0h37.011v30.99H.001z"></path>
                      </defs>
                      <g fill="none" fill-rule="evenodd" transform="translate(5 9)">
                        <path class="mainColor" fill="#359D6E" d="M21.634 23.638a3.438 3.438 0 0 0-1.872.531l-4.23-5.514a.564.564 0 0 0-.812-.097.613.613 0 0 0-.094.84l4.254 5.545a3.732 3.732 0 0 0-.836 2.331c-.021 2.031 1.552 3.692 3.514 3.714 1.962.022 3.569-1.603 3.59-3.634.02-2.03-1.552-3.694-3.514-3.716zm-7.159-5.399a.95.95 0 0 1 1.367.163l.414.54a5.039 5.039 0 0 0 1.311-2.76l7.3-1.14c.517-.082.878-.602.803-1.162-.067-.509-.47-.873-.933-.878a.855.855 0 0 0-.141.01l-7.157 1.118c-.564-2.074-2.39-3.605-4.578-3.63-.109 0-.215.008-.322.013l-.553-4.27a.506.506 0 0 0-.559-.44.508.508 0 0 0-.425.575l.557 4.297c-2.03.564-3.532 2.466-3.557 4.747a5.071 5.071 0 0 0 .777 2.766l-3.843 2.916a.612.612 0 0 0-.125.835.564.564 0 0 0 .807.13l3.912-2.964a4.695 4.695 0 0 0 3.228 1.346 4.637 4.637 0 0 0 1.884-.379l-.323-.422a1.031 1.031 0 0 1 .156-1.41zm18.139.664a2.74 2.74 0 0 0-1.175.29c-.081.04-.155.092-.233.14l-1.997-2.77a.48.48 0 0 0-.694-.103.523.523 0 0 0-.102.717l2.041 2.83a2.968 2.968 0 0 0-.64 1.88c.02 1.622 1.31 2.918 2.88 2.896 1.57-.022 2.822-1.357 2.8-2.979-.02-1.624-1.31-2.923-2.88-2.9zM10.636 6.61l-.023-.176a.937.937 0 0 1 .174-.68.875.875 0 0 1 .712-.362.906.906 0 0 1 .875.797l.034.26c1.197-.478 2.05-1.669 2.066-3.076C14.492 1.53 13.066.02 11.284 0c-1.782-.02-3.24 1.456-3.26 3.3-.016 1.637 1.11 3.01 2.612 3.31zM5.849 22.4a.954.954 0 0 1-1.356-.219 1.032 1.032 0 0 1 .21-1.405l.405-.307a3.089 3.089 0 0 0-1.52-.659c-1.737-.24-3.33 1.021-3.561 2.816-.23 1.794.99 3.442 2.724 3.681 1.735.24 3.327-1.023 3.558-2.817a3.365 3.365 0 0 0-.104-1.362l-.358.271zm13.894-10.36a2.07 2.07 0 0 0 1.25-.403l-.659-.356a.94.94 0 0 1-.376-1.243.883.883 0 0 1 .8-.492.868.868 0 0 1 .401.104l.727.394c.006-.06.011-.123.011-.185.012-1.217-.93-2.215-2.107-2.228-1.178-.014-2.143.964-2.155 2.18-.014 1.218.931 2.216 2.108 2.23zm14.943-9.812c-1.298-.015-2.363 1.063-2.377 2.404a2.47 2.47 0 0 0 .564 1.594l-3.559 4.082a4.048 4.048 0 0 0-2.549-.945c-1.448-.017-2.732.74-3.487 1.895l-2.3-1.247a.485.485 0 0 0-.67.216.521.521 0 0 0 .21.692l2.31 1.252a4.587 4.587 0 0 0-.194.735l1.904-.298c.067-.01.135-.014.201-.013.672.007 1.227.524 1.322 1.23.102.777-.407 1.504-1.137 1.62l-1.84.286c.7 1.312 2.04 2.208 3.592 2.225a4.004 4.004 0 0 0 1.587-.307l-.165-.229a.936.936 0 0 1 .177-1.284.86.86 0 0 1 .544-.187.875.875 0 0 1 .704.371l.21.291a4.356 4.356 0 0 0 1.141-2.905 4.382 4.382 0 0 0-.864-2.667l3.65-4.185c.297.146.623.234.974.238 1.297.014 2.361-1.063 2.377-2.407.014-1.34-1.029-2.443-2.325-2.457z"></path>
                      </g>
                    </svg>