<svg width="14" height="14" xmlns="http://www.w3.org/2000/svg" viewBox="0 0 14 14">
                    <path class="mainColor" fill="#777" d="M13 0H.997C.447 0 0 .453 0 1.01v11.98C0 13.548.447 14 .997 14H13c.55 0 1-.453 1-1.01V1.01C14 .452 13.55 0 13 0zM4.231 11.994H2.156V5.313h2.078v6.68h-.003zM3.203 4.406A1.204 1.204 0 1 1 3.204 2a1.204 1.204 0 0 1 0 2.407zm8.803 7.597H9.931v-3.25c0-.775-.015-1.772-1.078-1.772-1.081 0-1.247.844-1.247 1.716v3.306H5.531V5.322h1.99v.912h.029c.278-.525.956-1.078 1.966-1.078 2.1 0 2.49 1.385 2.49 3.185v3.662z"></path>
                  </svg>