<svg xmlns="http://www.w3.org/2000/svg" xmlns:xlink="http://www.w3.org/1999/xlink" version="1.1" x="0px" y="0px" width="400" height="400" viewBox="0 0 100 100" enable-background="new 0 0 100 100" xml:space="preserve"><g><path d="M62.244,15.803c0.094,0.312,0.438,1.188,0.219,1.562s-1.5,2.219-0.219,2.094s2.719-0.688,2.188-1.75   s-1.156-1.938-1.375-2.531s-0.201-1.156-0.201-1.156s-0.705-0.781-1.08-0.719c0,0-0.719,0.625-0.594,1.188   S62.15,15.49,62.244,15.803z"/><path d="M60.9,17.771c0.375-0.406,0.969-2.188-0.312-1.844c0,0-1.344,1.531-1.344,1.844S60.525,18.178,60.9,17.771z"/><path d="M91.256,45.443c-0.082-0.667-0.18-1.329-0.293-1.986c-0.102-0.587-0.212-1.171-0.338-1.749   c-1.277-5.875-3.796-11.292-7.277-15.952c-0.656-0.879-1.355-1.724-2.077-2.547c-2.298-2.619-4.915-4.95-7.798-6.924   c-0.772-0.529-1.566-1.028-2.375-1.505c-0.639-0.377-1.289-0.735-1.949-1.078c-0.15-0.265-2.26-1.107-2.992-1.416   c-4.605-1.94-9.635-3.062-14.903-3.206c-0.384-0.011-0.767-0.029-1.153-0.029c-0.82,0-1.635,0.03-2.443,0.078   c-3.571,0.208-7.021,0.872-10.295,1.932c-1.352,0.437-2.67,0.943-3.957,1.512c-1.155,0.51-2.284,1.068-3.381,1.678   c-8.068,4.482-14.497,11.572-18.128,20.129c-2.107,4.967-3.274,10.425-3.274,16.15c0,22.871,18.607,41.479,41.479,41.479   S91.578,73.4,91.578,50.529C91.578,48.807,91.461,47.111,91.256,45.443z M88.982,43.743c-0.523-0.128-1.066-0.494-1.666-1.294   c-1.625-2.167-6.334-9.375-4.666-8.5c1.666,0.875,5.625,5.75,5.625,8.375c0,0,0.145,0.047,0.445,0.024   C88.818,42.81,88.901,43.276,88.982,43.743z M50.1,90.008c-21.768,0-39.479-17.71-39.479-39.479c0-4.79,0.859-9.382,2.43-13.634   c0.098,0.269,0.193,0.55,0.287,0.845c0.75,2.375,4.688,3.125,6,2.875s0.875,0.812,2.125,1.188s2.25,1.625,3.75,3.188   s3.104,0.834,3.104,0.834s-0.166,1.667-0.584,2.167c-0.416,0.5-2.666-1-0.666,5.75s5,5.749,5.666,6.249   c0.668,0.5,0.084,6.667-0.166,9.583S32.4,74.24,33.316,80.74s4.916,4.333,5.5,3.417c0.582-0.916-2-0.75-2.166-1.667   c-0.168-0.917-0.5-2.333,0.416-3.25s-0.416-0.917-0.834-1.333c-0.416-0.416,1-3.417,1.668-4.417c0.666-1,2-0.917,2.391-1.417   c0.393-0.5,1.441-1.833,2.775-2.844c1.332-1.011,1.5-3.739,1.75-4.739s2.666-1.75,3.666-2.333s0.668-3.667,0.75-4.667   c0.084-1,1.918-2.5,2.25-3.917c0.334-1.417-1.916-2.166-3.25-2.666c-1.332-0.5-2.332-1-4.666-1.25s-1.166-3.084-3.334-3.334   c-2.166-0.25-1.082-0.166-2.166-1.166s-1.334-1.417-3-1.482c-1.668-0.065-2.416-0.268-3.334-0.602   c-0.916-0.334-2.666,1.25-2.666,1.25s-0.557,0.526-0.713,0.573s-0.656-0.219-0.906-0.469s-0.672,0.5-1.031,0.375   s-0.734-1.031-1.172-1.312s0.188-1.25-0.219-2.375s-1.812-0.188-2.625-0.406s0.531-1.938,0.906-2.594s-0.469-0.656-1.188-0.594   s-1.094,1.594-2.219,1.469s-1.469-0.562-1.406-1.469s-0.906-1.125-0.062-3.375s3.531-1.281,4.156-1.594s1.625-0.25,2.938,0.125   s1.062,1.75,1.125,2.25s0.5-1.75,0.375-3.125s2.062-1.562,3.062-2.438s1.625-2.812,2.125-3.625s1.688-0.938,2-1.875   s1.797-1.234,2-1.391s0.516,0.078,0.312,0.562s0.438,0.391,0.938,0s2.332-1.463,1.979-1.755c-0.355-0.292-0.521,0.292-0.896,0.209   s-0.688-0.417-0.854-0.812c-0.168-0.396,0.25-0.542-0.104-1c-0.355-0.458-0.73-0.646-0.271-0.979s2.541,0.167,3.416-0.042   s1-0.375,0.959,0.042s-0.729,1.416-0.979,1.729s2.312,0.625,2.938,0.625s-0.188-1.438-1-1.875s0.062-1.875-0.188-2.796   s-1.938-2.059-2.105-2.6c-0.084-0.275-0.18-0.854-0.298-1.434c2.774-0.729,5.667-1.158,8.642-1.263   c0.406,0.541,0.811,0.787,1.156,0.404c0.109-0.12,0.22-0.272,0.33-0.438c7.439,0.017,14.401,2.1,20.342,5.706l-0.66,0.106   c0,0-0.781-0.792-1.199-0.5c-0.416,0.292-0.938,0.437-1.5,0.833s-1.77,1.438-2.02,1.959s-0.875,1.021-1.875,1.271   s-1.875,0.291-1.438,0.583s1.479,0.73,1.479,1.584s0.291,1.562-0.166,1.688c-0.459,0.125-2.668-0.291-3.084,0.584   s-0.625,1.832-0.666,2.541c-0.043,0.709-0.125,1.376,1.25,1.334s2.291-0.297,2.75-0.586c0.457-0.289,0.332-0.872,1.125-1.664   c0.791-0.792,1.041-0.458,1.082-1.125c0.043-0.667-0.125-1.375,0.375-1.25s0.959-0.459,1.5-0.209   c0.543,0.25,0.875-0.625,1.709,0.292s1.791,1.501,2.041,2.042s1.125,0.875,0.834,1.583s0.875-1.271,0.812-1.833   s-1.188-1.375-1.334-1.604c-0.145-0.229-0.896-1.479-0.041-1.188c0.854,0.292,2.104,1.479,2.166,1.938s0.646,2,1.146,2.625   s1.188,0.854,1.25,0.833s-0.354-1.5-0.041-2.146s1.02-0.917,1.312-0.75c0.291,0.167,0.332,0.458,0.666,0.25   s0.771-0.417,0.709-1.042c-0.046-0.453,0.041-0.98,0.156-1.372c0.557,0.593,1.101,1.197,1.621,1.824   c-1.146,0.197-2.842,0.553-2.777,1.36c0.082,1.042,1.041,2.625,2.666,2.167s2.146-0.354,2.334,0s0.375,2.667-1.48,2.938   c0,0-5.666-0.916-6.25-1.083c-1.082-0.167-0.5,1.25-0.5,1.583s-4.666-0.86-4.666-1.597s1.75-2.736-3.084-1.986   c-4.832,0.75-6.166,1.698-7.416,3.641s-4.25,2.609-4.084,6.192c0.168,3.583-0.666,3.917,1.418,5.833   c2.082,1.916,2.082,3.582,8,1.916c5.916-1.666,2.332-0.133,2.916,0.684s1.666,0.066,1.834,0.816c0.166,0.75-1.168,2.25,0.166,3.75   s2.084,5.25,1.334,6.25s0.916,3.167,0.666,5.334s1.625,2.417,1.959,4.042c0.332,1.625,1.207,3.083,5.291,1s2-4.042,3.125-4.542   s0.459-2.791,1.875-3.666s3.25-1.334,2.166-5.501c-1.082-4.167,1.084-4.166,2.834-5.958c0.209-0.214,0.432-0.459,0.658-0.722   c0.062,0.899,0.104,1.804,0.104,2.719C89.578,72.298,71.869,90.008,50.1,90.008z"/></g></svg>