<?xml version="1.0" encoding="UTF-8" standalone="no"?>
<!DOCTYPE svg PUBLIC "-//W3C//DTD SVG 1.1//EN" "http://www.w3.org/Graphics/SVG/1.1/DTD/svg11.dtd">
<svg xmlns="http://www.w3.org/2000/svg" version="1.1" viewBox="0.00 0.00 296.00 296.00">
<g stroke-width="2.00" fill="none" stroke-linecap="butt">
<path stroke="#36678e" vector-effect="non-scaling-stroke" d="
  M 61.01 94.89
  Q 55.32 103.64 55.29 115.25
  Q 55.21 144.82 55.21 176.16
  Q 55.21 188.02 56.83 193.16
  Q 60.84 205.92 72.47 212.84
  Q 82.25 218.65 110.16 234.54"
/>
<path stroke="#294d6c" vector-effect="non-scaling-stroke" d="
  M 110.16 234.54
  Q 116.59 238.32 123.24 242.15
  Q 132.19 247.31 136.34 249.23
  Q 146.15 253.76 157.99 250.87
  Q 162.57 249.75 173.42 243.53
  Q 202.80 226.69 226.38 212.88
  Q 237.73 206.24 241.40 195.17"
/>
<path stroke="#345d7c" vector-effect="non-scaling-stroke" d="
  M 241.40 195.17
  Q 243.38 190.03 243.49 187.25
  Q 244.14 171.79 243.57 152.41"
/>
<path stroke="#3f6f93" vector-effect="non-scaling-stroke" d="
  M 243.57 152.41
  Q 243.95 128.88 243.74 114.25
  Q 243.53 99.52 233.51 89.46
  C 230.07 86.01 225.13 83.29 220.66 80.73
  Q 193.85 65.33 167.24 49.94
  Q 155.00 42.86 141.76 45.94
  Q 136.31 47.21 127.04 52.61
  Q 100.34 68.17 73.58 83.48
  Q 67.35 87.05 62.86 92.19
  C 62.16 93.00 61.92 94.04 61.01 94.89"
/>
<path stroke="#68b5e7" vector-effect="non-scaling-stroke" d="
  M 243.57 152.41
  L 219.92 108.61"
/>
<path stroke="#b0e2fd" vector-effect="non-scaling-stroke" d="
  M 219.92 108.61
  Q 215.59 104.15 209.89 101.63
  C 209.33 101.38 209.08 100.96 208.57 100.67
  Q 196.84 94.09 186.72 88.27
  Q 174.81 81.43 162.01 74.01
  Q 154.78 69.81 150.14 68.15"
/>
<path stroke="#b8e3ff" vector-effect="non-scaling-stroke" d="
  M 150.14 68.15
  Q 149.06 68.63 148.24 68.84
  Q 146.98 69.17 146.41 69.49
  Q 120.79 84.03 95.20 98.62
  Q 88.57 102.40 82.25 106.51"
/>
<path stroke="#69bffa" vector-effect="non-scaling-stroke" d="
  M 82.25 106.51
  Q 81.93 105.78 80.77 105.74
  Q 79.67 105.70 78.93 105.02
  Q 78.56 104.67 77.78 104.25
  L 63.42 96.35
  Q 63.01 96.12 62.65 95.83
  Q 62.06 95.34 61.01 94.89"
/>
<path stroke="#5293c1" vector-effect="non-scaling-stroke" d="
  M 241.40 195.17
  L 219.81 157.38"
/>
<path stroke="#aed1e8" vector-effect="non-scaling-stroke" d="
  M 219.81 157.38
  Q 219.94 154.10 217.63 151.14
  Q 217.08 150.43 215.74 149.55
  Q 214.61 148.80 213.53 148.15
  Q 190.99 134.62 166.22 119.99
  Q 160.92 116.87 156.53 114.39
  Q 153.00 112.40 150.73 111.87
  C 147.69 111.17 144.10 113.28 141.54 114.85
  Q 131.11 121.28 119.76 127.65"
/>
<path stroke="#5293c1" vector-effect="non-scaling-stroke" d="
  M 119.76 127.65
  L 114.15 124.11"
/>
<path stroke="#f6fefe" vector-effect="non-scaling-stroke" d="
  M 150.14 68.15
  L 150.09 105.44"
/>
<path stroke="#aed1e8" vector-effect="non-scaling-stroke" d="
  M 150.09 105.44
  C 148.27 105.76 146.77 105.57 145.18 106.39
  Q 143.09 107.47 141.07 108.63
  Q 127.77 116.26 114.15 124.11"
/>
<path stroke="#a2c1d8" vector-effect="non-scaling-stroke" d="
  M 114.15 124.11
  L 107.60 127.94"
/>
<path stroke="#ecfdfe" vector-effect="non-scaling-stroke" d="
  M 107.60 127.94
  Q 106.98 128.47 105.99 126.89
  Q 105.72 126.47 105.25 126.29
  Q 102.37 125.23 99.83 123.53
  Q 98.24 122.47 96.63 121.63
  Q 95.36 120.98 93.53 119.88
  Q 91.45 118.63 89.15 117.32
  Q 86.12 115.60 83.94 113.06
  Q 81.75 110.52 80.17 109.20"
/>
<path stroke="#afdbfa" vector-effect="non-scaling-stroke" d="
  M 80.17 109.20
  L 82.25 106.51"
/>
<path stroke="#9dd9f9" vector-effect="non-scaling-stroke" d="
  M 80.17 109.20
  C 79.85 109.91 79.40 110.51 79.38 111.33
  Q 79.04 130.79 79.28 140.74
  Q 79.35 143.37 81.27 145.83"
/>
<path stroke="#539dd3" vector-effect="non-scaling-stroke" d="
  M 81.27 145.83
  L 81.07 146.90
  Q 80.97 147.41 81.27 147.82
  L 101.18 175.67"
/>
<path stroke="#a7d9f9" vector-effect="non-scaling-stroke" d="
  M 101.18 175.67
  L 79.76 187.99
  Q 79.28 188.27 79.65 188.69
  Q 80.76 189.98 80.85 190.94"
/>
<path stroke="#539dd3" vector-effect="non-scaling-stroke" d="
  M 80.85 190.94
  L 110.16 234.54"
/>
<path stroke="#a6d0e6" vector-effect="non-scaling-stroke" d="
  M 219.92 108.61
  Q 217.96 109.42 215.74 110.75
  Q 207.37 115.79 198.73 120.79
  Q 195.12 122.89 192.54 123.59
  C 187.05 125.09 182.14 122.64 177.43 119.86
  Q 171.01 116.07 164.30 112.18
  Q 162.29 111.01 160.19 109.88
  Q 158.15 108.78 156.19 107.35
  Q 154.74 106.29 150.09 105.44"
/>
<path stroke="#9ac0d7" vector-effect="non-scaling-stroke" d="
  M 80.85 190.94
  L 143.51 226.50
  A 1.06 1.03 1.6 0 1 143.91 226.91
  Q 144.23 227.54 144.88 227.51
  Q 145.43 227.48 145.86 227.82
  Q 147.07 228.80 148.84 228.45"
/>
<path stroke="#90bfd7" vector-effect="non-scaling-stroke" d="
  M 148.84 228.45
  Q 150.98 228.43 151.75 228.00
  Q 176.59 213.87 201.35 199.60
  Q 206.51 196.62 211.68 193.67
  Q 213.19 192.81 215.33 191.24
  Q 217.04 189.99 219.00 188.79"
/>
<path stroke="#90bfd7" vector-effect="non-scaling-stroke" d="
  M 191.36 169.08
  Q 174.23 179.00 157.78 188.53
  Q 156.85 189.07 153.85 190.59
  C 152.17 191.44 150.62 191.20 148.80 191.58"
/>
<path stroke="#9ac0d7" vector-effect="non-scaling-stroke" d="
  M 148.80 191.58
  C 146.58 191.01 144.59 190.55 142.56 189.38
  Q 132.29 183.46 120.80 176.67
  Q 116.89 174.36 114.76 173.72
  Q 107.52 171.54 101.18 175.67"
/>
<path stroke="#a2c1d8" vector-effect="non-scaling-stroke" d="
  M 219.81 157.38
  Q 220.23 173.40 219.00 188.79"
/>
<path stroke="#ecfdfe" vector-effect="non-scaling-stroke" d="
  M 219.00 188.79
  Q 214.61 182.44 209.18 179.29
  Q 207.01 178.04 205.40 177.04
  Q 203.61 175.93 201.46 175.05
  C 200.28 174.57 199.71 173.55 198.49 172.99
  Q 194.68 171.25 191.36 169.08"
/>
<path stroke="#a2c1d8" vector-effect="non-scaling-stroke" d="
  M 191.36 169.08
  Q 189.13 168.06 187.86 166.83
  Q 187.46 166.44 186.91 166.56
  Q 186.43 166.67 186.15 166.25
  Q 185.93 165.91 185.58 165.70
  L 119.76 127.65"
/>
<path stroke="#90bfd7" vector-effect="non-scaling-stroke" d="
  M 107.60 127.94
  L 111.38 130.22
  Q 111.72 130.43 112.13 130.42
  Q 112.65 130.41 112.91 130.91
  A 0.95 0.93 -89.3 0 0 113.29 131.31
  Q 119.16 134.53 125.04 137.94
  Q 148.76 151.69 170.05 164.00
  Q 172.74 165.56 175.39 166.87
  C 176.68 167.51 177.28 168.56 178.46 169.07
  Q 179.23 169.41 178.50 169.82
  Q 168.30 175.47 158.34 181.65
  C 155.41 183.47 151.35 186.04 147.87 185.05
  Q 145.21 184.28 143.07 183.02
  Q 118.61 168.59 89.50 151.43
  Q 89.08 151.18 88.83 150.78
  Q 88.53 150.30 88.03 150.53
  A 0.74 0.73 -26.9 0 1 87.09 150.23
  L 86.93 149.98
  Q 86.67 149.54 86.21 149.33
  Q 83.44 148.04 81.27 145.83"
/>
<path stroke="#e4fcfc" vector-effect="non-scaling-stroke" d="
  M 148.84 228.45
  L 148.80 191.58"
/>
</g>
<path fill="#0b1727" d="
  M 0.00 0.00
  L 296.00 0.00
  L 296.00 296.00
  L 0.00 296.00
  L 0.00 0.00
  Z
  M 61.01 94.89
  Q 55.32 103.64 55.29 115.25
  Q 55.21 144.82 55.21 176.16
  Q 55.21 188.02 56.83 193.16
  Q 60.84 205.92 72.47 212.84
  Q 82.25 218.65 110.16 234.54
  Q 116.59 238.32 123.24 242.15
  Q 132.19 247.31 136.34 249.23
  Q 146.15 253.76 157.99 250.87
  Q 162.57 249.75 173.42 243.53
  Q 202.80 226.69 226.38 212.88
  Q 237.73 206.24 241.40 195.17
  Q 243.38 190.03 243.49 187.25
  Q 244.14 171.79 243.57 152.41
  Q 243.95 128.88 243.74 114.25
  Q 243.53 99.52 233.51 89.46
  C 230.07 86.01 225.13 83.29 220.66 80.73
  Q 193.85 65.33 167.24 49.94
  Q 155.00 42.86 141.76 45.94
  Q 136.31 47.21 127.04 52.61
  Q 100.34 68.17 73.58 83.48
  Q 67.35 87.05 62.86 92.19
  C 62.16 93.00 61.92 94.04 61.01 94.89
  Z"
/>
<path fill="#72c7fe" d="
  M 243.57 152.41
  L 219.92 108.61
  Q 215.59 104.15 209.89 101.63
  C 209.33 101.38 209.08 100.96 208.57 100.67
  Q 196.84 94.09 186.72 88.27
  Q 174.81 81.43 162.01 74.01
  Q 154.78 69.81 150.14 68.15
  Q 149.06 68.63 148.24 68.84
  Q 146.98 69.17 146.41 69.49
  Q 120.79 84.03 95.20 98.62
  Q 88.57 102.40 82.25 106.51
  Q 81.93 105.78 80.77 105.74
  Q 79.67 105.70 78.93 105.02
  Q 78.56 104.67 77.78 104.25
  L 63.42 96.35
  Q 63.01 96.12 62.65 95.83
  Q 62.06 95.34 61.01 94.89
  C 61.92 94.04 62.16 93.00 62.86 92.19
  Q 67.35 87.05 73.58 83.48
  Q 100.34 68.17 127.04 52.61
  Q 136.31 47.21 141.76 45.94
  Q 155.00 42.86 167.24 49.94
  Q 193.85 65.33 220.66 80.73
  C 225.13 83.29 230.07 86.01 233.51 89.46
  Q 243.53 99.52 243.74 114.25
  Q 243.95 128.88 243.57 152.41
  Z"
/>
<path fill="#feffff" d="
  M 150.14 68.15
  L 150.09 105.44
  C 148.27 105.76 146.77 105.57 145.18 106.39
  Q 143.09 107.47 141.07 108.63
  Q 127.77 116.26 114.15 124.11
  L 107.60 127.94
  Q 106.98 128.47 105.99 126.89
  Q 105.72 126.47 105.25 126.29
  Q 102.37 125.23 99.83 123.53
  Q 98.24 122.47 96.63 121.63
  Q 95.36 120.98 93.53 119.88
  Q 91.45 118.63 89.15 117.32
  Q 86.12 115.60 83.94 113.06
  Q 81.75 110.52 80.17 109.20
  L 82.25 106.51
  Q 88.57 102.40 95.20 98.62
  Q 120.79 84.03 146.41 69.49
  Q 146.98 69.17 148.24 68.84
  Q 149.06 68.63 150.14 68.15
  Z"
/>
<path fill="#eefcfc" d="
  M 150.14 68.15
  Q 154.78 69.81 162.01 74.01
  Q 174.81 81.43 186.72 88.27
  Q 196.84 94.09 208.57 100.67
  C 209.08 100.96 209.33 101.38 209.89 101.63
  Q 215.59 104.15 219.92 108.61
  Q 217.96 109.42 215.74 110.75
  Q 207.37 115.79 198.73 120.79
  Q 195.12 122.89 192.54 123.59
  C 187.05 125.09 182.14 122.64 177.43 119.86
  Q 171.01 116.07 164.30 112.18
  Q 162.29 111.01 160.19 109.88
  Q 158.15 108.78 156.19 107.35
  Q 154.74 106.29 150.09 105.44
  L 150.14 68.15
  Z"
/>
<path fill="#60b6f5" d="
  M 61.01 94.89
  Q 62.06 95.34 62.65 95.83
  Q 63.01 96.12 63.42 96.35
  L 77.78 104.25
  Q 78.56 104.67 78.93 105.02
  Q 79.67 105.70 80.77 105.74
  Q 81.93 105.78 82.25 106.51
  L 80.17 109.20
  C 79.85 109.91 79.40 110.51 79.38 111.33
  Q 79.04 130.79 79.28 140.74
  Q 79.35 143.37 81.27 145.83
  L 81.07 146.90
  Q 80.97 147.41 81.27 147.82
  L 101.18 175.67
  L 79.76 187.99
  Q 79.28 188.27 79.65 188.69
  Q 80.76 189.98 80.85 190.94
  L 110.16 234.54
  Q 82.25 218.65 72.47 212.84
  Q 60.84 205.92 56.83 193.16
  Q 55.21 188.02 55.21 176.16
  Q 55.21 144.82 55.29 115.25
  Q 55.32 103.64 61.01 94.89
  Z"
/>
<path fill="#5da3d0" d="
  M 150.09 105.44
  Q 154.74 106.29 156.19 107.35
  Q 158.15 108.78 160.19 109.88
  Q 162.29 111.01 164.30 112.18
  Q 171.01 116.07 177.43 119.86
  C 182.14 122.64 187.05 125.09 192.54 123.59
  Q 195.12 122.89 198.73 120.79
  Q 207.37 115.79 215.74 110.75
  Q 217.96 109.42 219.92 108.61
  L 243.57 152.41
  Q 244.14 171.79 243.49 187.25
  Q 243.38 190.03 241.40 195.17
  L 219.81 157.38
  Q 219.94 154.10 217.63 151.14
  Q 217.08 150.43 215.74 149.55
  Q 214.61 148.80 213.53 148.15
  Q 190.99 134.62 166.22 119.99
  Q 160.92 116.87 156.53 114.39
  Q 153.00 112.40 150.73 111.87
  C 147.69 111.17 144.10 113.28 141.54 114.85
  Q 131.11 121.28 119.76 127.65
  L 114.15 124.11
  Q 127.77 116.26 141.07 108.63
  Q 143.09 107.47 145.18 106.39
  C 146.77 105.57 148.27 105.76 150.09 105.44
  Z"
/>
<path fill="#d9fbfc" d="
  M 80.17 109.20
  Q 81.75 110.52 83.94 113.06
  Q 86.12 115.60 89.15 117.32
  Q 91.45 118.63 93.53 119.88
  Q 95.36 120.98 96.63 121.63
  Q 98.24 122.47 99.83 123.53
  Q 102.37 125.23 105.25 126.29
  Q 105.72 126.47 105.99 126.89
  Q 106.98 128.47 107.60 127.94
  L 111.38 130.22
  Q 111.72 130.43 112.13 130.42
  Q 112.65 130.41 112.91 130.91
  A 0.95 0.93 -89.3 0 0 113.29 131.31
  Q 119.16 134.53 125.04 137.94
  Q 148.76 151.69 170.05 164.00
  Q 172.74 165.56 175.39 166.87
  C 176.68 167.51 177.28 168.56 178.46 169.07
  Q 179.23 169.41 178.50 169.82
  Q 168.30 175.47 158.34 181.65
  C 155.41 183.47 151.35 186.04 147.87 185.05
  Q 145.21 184.28 143.07 183.02
  Q 118.61 168.59 89.50 151.43
  Q 89.08 151.18 88.83 150.78
  Q 88.53 150.30 88.03 150.53
  A 0.74 0.73 -26.9 0 1 87.09 150.23
  L 86.93 149.98
  Q 86.67 149.54 86.21 149.33
  Q 83.44 148.04 81.27 145.83
  Q 79.35 143.37 79.28 140.74
  Q 79.04 130.79 79.38 111.33
  C 79.40 110.51 79.85 109.91 80.17 109.20
  Z"
/>
<path fill="#feffff" d="
  M 219.81 157.38
  Q 220.23 173.40 219.00 188.79
  Q 214.61 182.44 209.18 179.29
  Q 207.01 178.04 205.40 177.04
  Q 203.61 175.93 201.46 175.05
  C 200.28 174.57 199.71 173.55 198.49 172.99
  Q 194.68 171.25 191.36 169.08
  Q 189.13 168.06 187.86 166.83
  Q 187.46 166.44 186.91 166.56
  Q 186.43 166.67 186.15 166.25
  Q 185.93 165.91 185.58 165.70
  L 119.76 127.65
  Q 131.11 121.28 141.54 114.85
  C 144.10 113.28 147.69 111.17 150.73 111.87
  Q 153.00 112.40 156.53 114.39
  Q 160.92 116.87 166.22 119.99
  Q 190.99 134.62 213.53 148.15
  Q 214.61 148.80 215.74 149.55
  Q 217.08 150.43 217.63 151.14
  Q 219.94 154.10 219.81 157.38
  Z"
/>
<path fill="#4683b1" d="
  M 114.15 124.11
  L 119.76 127.65
  L 185.58 165.70
  Q 185.93 165.91 186.15 166.25
  Q 186.43 166.67 186.91 166.56
  Q 187.46 166.44 187.86 166.83
  Q 189.13 168.06 191.36 169.08
  Q 174.23 179.00 157.78 188.53
  Q 156.85 189.07 153.85 190.59
  C 152.17 191.44 150.62 191.20 148.80 191.58
  C 146.58 191.01 144.59 190.55 142.56 189.38
  Q 132.29 183.46 120.80 176.67
  Q 116.89 174.36 114.76 173.72
  Q 107.52 171.54 101.18 175.67
  L 81.27 147.82
  Q 80.97 147.41 81.07 146.90
  L 81.27 145.83
  Q 83.44 148.04 86.21 149.33
  Q 86.67 149.54 86.93 149.98
  L 87.09 150.23
  A 0.74 0.73 -26.9 0 0 88.03 150.53
  Q 88.53 150.30 88.83 150.78
  Q 89.08 151.18 89.50 151.43
  Q 118.61 168.59 143.07 183.02
  Q 145.21 184.28 147.87 185.05
  C 151.35 186.04 155.41 183.47 158.34 181.65
  Q 168.30 175.47 178.50 169.82
  Q 179.23 169.41 178.46 169.07
  C 177.28 168.56 176.68 167.51 175.39 166.87
  Q 172.74 165.56 170.05 164.00
  Q 148.76 151.69 125.04 137.94
  Q 119.16 134.53 113.29 131.31
  A 0.95 0.93 -89.3 0 1 112.91 130.91
  Q 112.65 130.41 112.13 130.42
  Q 111.72 130.43 111.38 130.22
  L 107.60 127.94
  L 114.15 124.11
  Z"
/>
<path fill="#4683b1" d="
  M 219.81 157.38
  L 241.40 195.17
  Q 237.73 206.24 226.38 212.88
  Q 202.80 226.69 173.42 243.53
  Q 162.57 249.75 157.99 250.87
  Q 146.15 253.76 136.34 249.23
  Q 132.19 247.31 123.24 242.15
  Q 116.59 238.32 110.16 234.54
  L 80.85 190.94
  L 143.51 226.50
  A 1.06 1.03 1.6 0 1 143.91 226.91
  Q 144.23 227.54 144.88 227.51
  Q 145.43 227.48 145.86 227.82
  Q 147.07 228.80 148.84 228.45
  Q 150.98 228.43 151.75 228.00
  Q 176.59 213.87 201.35 199.60
  Q 206.51 196.62 211.68 193.67
  Q 213.19 192.81 215.33 191.24
  Q 217.04 189.99 219.00 188.79
  Q 220.23 173.40 219.81 157.38
  Z"
/>
<path fill="#d9fbfc" d="
  M 191.36 169.08
  Q 194.68 171.25 198.49 172.99
  C 199.71 173.55 200.28 174.57 201.46 175.05
  Q 203.61 175.93 205.40 177.04
  Q 207.01 178.04 209.18 179.29
  Q 214.61 182.44 219.00 188.79
  Q 217.04 189.99 215.33 191.24
  Q 213.19 192.81 211.68 193.67
  Q 206.51 196.62 201.35 199.60
  Q 176.59 213.87 151.75 228.00
  Q 150.98 228.43 148.84 228.45
  L 148.80 191.58
  C 150.62 191.20 152.17 191.44 153.85 190.59
  Q 156.85 189.07 157.78 188.53
  Q 174.23 179.00 191.36 169.08
  Z"
/>
<path fill="#eefcfc" d="
  M 148.80 191.58
  L 148.84 228.45
  Q 147.07 228.80 145.86 227.82
  Q 145.43 227.48 144.88 227.51
  Q 144.23 227.54 143.91 226.91
  A 1.06 1.03 1.6 0 0 143.51 226.50
  L 80.85 190.94
  Q 80.76 189.98 79.65 188.69
  Q 79.28 188.27 79.76 187.99
  L 101.18 175.67
  Q 107.52 171.54 114.76 173.72
  Q 116.89 174.36 120.80 176.67
  Q 132.29 183.46 142.56 189.38
  C 144.59 190.55 146.58 191.01 148.80 191.58
  Z"
/>
</svg>
