<?xml version="1.0" encoding="UTF-8" standalone="no"?>
<!DOCTYPE svg PUBLIC "-//W3C//DTD SVG 1.1//EN" "http://www.w3.org/Graphics/SVG/1.1/DTD/svg11.dtd">
<svg xmlns="http://www.w3.org/2000/svg" version="1.1" viewBox="0.00 0.00 446.00 278.00">
<g stroke-width="2.00" fill="none" stroke-linecap="butt">
<path stroke="#8e8d8e" vector-effect="non-scaling-stroke" d="
  M 60.98 153.38
  Q 61.06 153.54 61.22 153.60
  Q 68.28 156.47 76.12 153.85
  Q 76.77 153.63 77.34 153.27
  Q 77.97 152.87 78.68 152.69
  Q 79.62 152.44 80.48 151.78
  Q 82.98 149.86 85.18 147.74
  Q 85.55 147.38 85.87 147.78
  Q 86.95 149.11 87.92 150.54
  C 88.89 152.00 90.23 152.93 91.44 154.14
  Q 92.51 155.19 94.38 153.76
  Q 98.66 150.50 102.55 146.78
  A 1.34 1.34 0.0 0 0 102.72 145.05
  C 99.91 141.00 98.15 138.38 98.24 133.20
  Q 98.46 120.84 98.13 110.48
  Q 97.85 102.15 91.75 98.45
  Q 82.60 92.91 71.25 95.32
  Q 61.66 97.35 57.19 103.39
  Q 56.96 103.70 56.91 104.09
  Q 56.87 104.50 56.64 104.84
  Q 54.84 107.53 54.21 110.81
  Q 53.83 112.77 55.82 113.03
  L 65.89 114.33
  A 1.50 1.49 9.3 0 0 67.55 113.14
  Q 68.14 110.14 70.49 108.10
  C 75.12 104.09 83.46 105.70 83.60 112.72
  Q 83.65 115.00 83.64 117.25
  Q 83.63 117.79 83.09 117.83
  Q 81.27 117.96 79.49 118.22
  Q 77.48 118.52 75.47 118.62
  Q 67.88 119.02 62.12 122.17
  Q 51.68 127.86 52.77 140.56
  Q 52.92 142.25 53.06 143.79
  C 53.35 147.00 56.11 150.32 58.49 152.17
  Q 59.43 152.89 60.65 153.13
  Q 60.87 153.18 60.98 153.38"
/>
<path stroke="#8e8d8e" vector-effect="non-scaling-stroke" d="
  M 195.45 125.87
  Q 194.73 126.36 194.10 127.34
  Q 188.30 136.44 191.77 145.67
  Q 193.32 149.79 196.37 151.84
  Q 200.00 154.27 203.81 154.84
  Q 210.77 155.89 217.42 152.48
  C 219.67 151.33 221.64 149.57 223.46 147.86
  Q 223.92 147.43 224.22 147.98
  Q 225.98 151.16 226.91 151.62
  Q 227.84 152.07 228.46 152.99
  Q 230.42 155.89 232.94 153.60
  Q 236.55 150.33 240.53 147.11
  A 1.72 1.71 -40.3 0 0 240.74 144.64
  C 237.73 141.24 236.60 138.38 236.61 133.50
  Q 236.63 122.45 236.34 110.44
  C 236.14 101.83 229.47 96.40 221.34 95.10
  Q 211.41 93.52 203.22 97.31
  Q 198.52 99.48 196.10 102.72
  Q 193.24 106.55 192.47 111.26
  A 1.43 1.43 0.0 0 0 193.64 112.90
  C 196.85 113.44 200.06 113.72 203.22 114.25
  Q 205.39 114.61 206.03 112.50
  C 207.88 106.36 214.48 103.73 219.64 107.80
  Q 221.10 108.95 221.28 110.70
  Q 221.62 113.88 221.63 117.12
  Q 221.63 117.64 221.12 117.73
  Q 217.19 118.40 213.50 118.61
  Q 205.78 119.07 199.11 122.66
  Q 197.37 123.60 196.14 125.22
  Q 195.84 125.60 195.45 125.87"
/>
<path stroke="#8e8d8e" vector-effect="non-scaling-stroke" d="
  M 137.14 111.07
  Q 138.78 113.45 138.75 116.12
  Q 138.49 135.02 138.87 152.80
  A 1.42 1.42 0.0 0 0 140.29 154.19
  L 151.25 154.21
  A 1.94 1.94 0.0 0 0 153.20 152.28
  Q 153.28 135.82 153.17 120.13
  C 153.14 115.37 154.20 110.54 159.13 108.87
  Q 161.41 108.09 163.85 109.45
  C 166.17 110.75 166.87 114.46 166.86 116.91
  Q 166.78 134.03 166.85 152.29
  A 1.91 1.90 89.8 0 0 168.75 154.19
  L 179.48 154.21
  A 1.93 1.93 0.0 0 0 181.42 152.28
  Q 181.53 131.27 181.44 110.63
  C 181.41 104.13 178.60 98.69 172.43 96.35
  Q 162.71 92.66 154.87 100.37
  Q 153.07 102.15 152.46 104.48
  Q 152.18 105.53 151.74 104.54
  Q 148.05 96.32 140.62 95.34
  Q 135.54 94.67 131.29 96.86
  Q 127.43 98.84 124.66 104.68
  Q 124.60 104.79 124.59 104.67
  Q 124.20 101.76 124.47 98.84
  A 2.26 2.26 0.0 0 0 122.22 96.36
  L 112.84 96.36
  Q 110.54 96.36 110.54 98.66
  L 110.55 152.56
  A 1.63 1.63 0.0 0 0 112.18 154.19
  L 122.94 154.20
  A 2.12 2.11 0.4 0 0 125.07 152.11
  Q 125.24 135.22 125.09 117.56
  C 125.05 113.19 127.93 108.03 132.84 108.37
  Q 135.41 108.56 137.14 111.07"
/>
<path stroke="#8e8d8e" vector-effect="non-scaling-stroke" d="
  M 333.09 149.09
  C 334.09 148.00 335.34 147.02 336.12 145.75
  Q 337.41 143.65 338.57 141.39
  Q 339.60 139.37 340.25 136.90
  Q 342.95 126.57 340.80 116.09
  Q 340.19 113.09 339.07 110.33
  Q 337.77 107.10 336.04 104.71
  Q 327.57 92.99 312.53 95.75
  C 310.35 96.15 308.48 97.29 306.51 98.31
  Q 303.42 99.92 301.51 102.09
  Q 298.99 104.95 297.62 108.10
  Q 291.58 121.99 295.39 136.19
  Q 297.26 143.16 300.51 147.19
  Q 304.47 152.10 310.92 154.30
  Q 316.66 156.25 322.08 155.02
  Q 326.34 154.06 329.77 151.92
  Q 331.41 150.90 333.09 149.09"
/>
<path stroke="#8e8d8e" vector-effect="non-scaling-stroke" d="
  M 363.50 104.99
  L 363.48 98.42
  A 2.07 2.06 89.9 0 0 361.42 96.36
  L 351.81 96.37
  A 2.07 2.06 -90.0 0 0 349.75 98.44
  L 349.75 152.48
  A 1.73 1.72 -0.0 0 0 351.48 154.20
  L 362.24 154.21
  A 2.03 2.03 0.0 0 0 364.28 152.16
  Q 364.13 136.03 364.41 118.72
  Q 364.52 112.08 369.84 108.80
  A 1.29 1.27 -60.3 0 1 370.51 108.61
  L 373.56 108.62
  A 1.43 1.42 61.6 0 1 374.35 108.86
  Q 378.40 111.53 378.43 116.30
  Q 378.54 133.80 378.47 152.16
  Q 378.46 154.21 380.51 154.21
  L 391.18 154.20
  A 1.75 1.75 0.0 0 0 392.93 152.46
  Q 392.99 136.72 393.10 120.75
  Q 393.17 111.78 391.96 105.76
  Q 390.82 100.13 385.25 97.01
  Q 380.57 94.39 374.73 95.49
  Q 367.32 96.89 364.12 105.11
  Q 363.51 106.69 363.50 104.99"
/>
<path stroke="#8e8d8e" vector-effect="non-scaling-stroke" d="
  M 255.02 128.83
  Q 254.79 128.95 254.65 129.16
  Q 251.63 133.45 248.65 137.65
  A 6.80 6.79 -27.3 0 0 247.39 141.59
  L 247.37 151.20
  A 1.69 1.69 0.0 0 0 249.76 152.74
  Q 252.12 151.66 254.52 150.54
  Q 256.66 149.55 259.14 149.22
  C 263.88 148.60 268.12 147.80 272.92 148.71
  Q 274.82 149.07 276.71 149.09
  Q 278.53 149.11 280.11 149.83
  Q 283.27 151.26 286.56 152.67
  A 1.72 1.72 0.0 0 0 288.95 151.14
  L 289.20 142.69
  A 3.25 3.25 0.0 0 0 287.30 139.63
  Q 285.22 138.68 283.15 137.72
  Q 281.39 136.91 278.94 136.64
  Q 277.26 136.45 275.57 136.14
  C 273.12 135.69 270.74 136.06 268.21 135.40
  Q 267.57 135.23 267.93 134.68
  Q 269.39 132.48 270.97 130.26
  A 23.31 8.56 -37.3 0 0 272.63 127.66
  Q 273.39 126.32 274.66 125.37
  A 1.34 1.33 -14.4 0 0 275.18 124.50
  C 275.41 122.84 276.77 121.98 277.44 121.02
  Q 282.06 114.36 287.28 106.79
  A 4.06 4.03 -27.8 0 0 288.00 104.49
  L 288.00 98.48
  A 2.28 2.27 90.0 0 0 285.73 96.20
  L 251.26 96.20
  A 2.04 2.03 90.0 0 0 249.23 98.24
  L 249.22 105.92
  A 2.21 2.21 0.0 0 0 251.42 108.13
  L 267.76 108.13
  A 0.77 0.76 16.0 0 1 268.41 109.30
  Q 265.95 113.26 262.90 117.09
  C 261.52 118.81 260.46 120.71 259.28 122.55
  Q 258.36 123.99 257.25 125.30
  Q 256.08 126.69 255.41 128.39
  Q 255.30 128.68 255.02 128.83"
/>
<path stroke="#f9ca8c" vector-effect="non-scaling-stroke" d="
  M 279.11 173.53
  Q 281.53 166.01 281.04 160.52
  Q 281.00 160.12 280.77 159.80
  Q 279.30 157.75 275.73 157.20
  Q 262.89 155.23 252.18 159.94
  Q 249.59 161.08 247.66 162.83
  Q 246.84 163.57 247.48 164.36
  A 1.58 1.57 -24.1 0 0 248.94 164.91
  Q 255.05 163.95 262.21 163.68
  C 264.98 163.58 272.22 163.39 272.47 167.19
  Q 272.74 171.48 271.08 176.34
  Q 269.08 182.16 266.64 188.50
  Q 266.11 189.87 267.51 190.20
  Q 267.99 190.31 268.39 190.01
  Q 275.54 184.57 279.11 173.53"
/>
<path stroke="#f9ca8c" vector-effect="non-scaling-stroke" d="
  M 139.39 187.22
  Q 142.34 188.68 145.37 189.75
  Q 159.03 194.56 174.18 196.49
  Q 192.15 198.77 210.46 195.86
  C 229.82 192.79 248.74 186.16 264.20 174.68
  C 266.79 172.76 264.58 169.53 261.48 170.26
  C 258.89 170.88 256.64 172.19 254.14 173.10
  Q 192.84 195.33 131.07 173.54
  Q 116.96 168.56 102.84 160.35
  A 1.58 1.57 20.9 0 0 100.51 161.39
  C 100.37 162.10 100.70 162.89 101.22 163.36
  Q 117.90 178.44 138.90 187.24
  Q 139.07 187.32 139.23 187.22
  Q 139.31 187.18 139.39 187.22"
/>
<path stroke="#8e8d8e" vector-effect="non-scaling-stroke" d="
  M 83.68 132.36
  C 83.84 130.49 83.95 128.54 83.71 126.71
  Q 83.65 126.20 83.14 126.18
  Q 78.24 125.93 74.51 127.47
  C 69.02 129.72 66.41 134.78 68.55 140.38
  C 70.02 144.24 74.57 145.40 77.83 143.27
  Q 83.04 139.86 83.68 132.36"
/>
<path stroke="#8e8d8e" vector-effect="non-scaling-stroke" d="
  M 206.98 132.44
  C 205.68 135.66 205.83 139.46 207.88 142.32
  Q 208.43 143.08 209.23 143.47
  Q 213.84 145.72 217.93 141.77
  Q 220.71 139.08 221.09 136.38
  Q 221.68 132.27 221.57 126.76
  Q 221.56 126.23 221.02 126.20
  C 216.04 125.97 208.97 127.46 206.98 132.44"
/>
<path stroke="#8e8d8e" vector-effect="non-scaling-stroke" d="
  M 326.01 132.63
  C 326.51 127.03 328.13 103.29 316.08 106.63
  C 307.68 108.96 309.11 126.80 309.86 132.99
  Q 310.26 136.31 311.58 139.48
  C 313.46 143.99 317.55 145.35 321.71 143.00
  Q 323.57 141.96 324.37 139.66
  Q 325.72 135.80 326.01 132.63"
/>
</g>
<path fill="#f9fafb" d="
  M 0.00 0.00
  L 446.00 0.00
  L 446.00 278.00
  L 0.00 278.00
  L 0.00 0.00
  Z
  M 60.98 153.38
  Q 61.06 153.54 61.22 153.60
  Q 68.28 156.47 76.12 153.85
  Q 76.77 153.63 77.34 153.27
  Q 77.97 152.87 78.68 152.69
  Q 79.62 152.44 80.48 151.78
  Q 82.98 149.86 85.18 147.74
  Q 85.55 147.38 85.87 147.78
  Q 86.95 149.11 87.92 150.54
  C 88.89 152.00 90.23 152.93 91.44 154.14
  Q 92.51 155.19 94.38 153.76
  Q 98.66 150.50 102.55 146.78
  A 1.34 1.34 0.0 0 0 102.72 145.05
  C 99.91 141.00 98.15 138.38 98.24 133.20
  Q 98.46 120.84 98.13 110.48
  Q 97.85 102.15 91.75 98.45
  Q 82.60 92.91 71.25 95.32
  Q 61.66 97.35 57.19 103.39
  Q 56.96 103.70 56.91 104.09
  Q 56.87 104.50 56.64 104.84
  Q 54.84 107.53 54.21 110.81
  Q 53.83 112.77 55.82 113.03
  L 65.89 114.33
  A 1.50 1.49 9.3 0 0 67.55 113.14
  Q 68.14 110.14 70.49 108.10
  C 75.12 104.09 83.46 105.70 83.60 112.72
  Q 83.65 115.00 83.64 117.25
  Q 83.63 117.79 83.09 117.83
  Q 81.27 117.96 79.49 118.22
  Q 77.48 118.52 75.47 118.62
  Q 67.88 119.02 62.12 122.17
  Q 51.68 127.86 52.77 140.56
  Q 52.92 142.25 53.06 143.79
  C 53.35 147.00 56.11 150.32 58.49 152.17
  Q 59.43 152.89 60.65 153.13
  Q 60.87 153.18 60.98 153.38
  Z
  M 195.45 125.87
  Q 194.73 126.36 194.10 127.34
  Q 188.30 136.44 191.77 145.67
  Q 193.32 149.79 196.37 151.84
  Q 200.00 154.27 203.81 154.84
  Q 210.77 155.89 217.42 152.48
  C 219.67 151.33 221.64 149.57 223.46 147.86
  Q 223.92 147.43 224.22 147.98
  Q 225.98 151.16 226.91 151.62
  Q 227.84 152.07 228.46 152.99
  Q 230.42 155.89 232.94 153.60
  Q 236.55 150.33 240.53 147.11
  A 1.72 1.71 -40.3 0 0 240.74 144.64
  C 237.73 141.24 236.60 138.38 236.61 133.50
  Q 236.63 122.45 236.34 110.44
  C 236.14 101.83 229.47 96.40 221.34 95.10
  Q 211.41 93.52 203.22 97.31
  Q 198.52 99.48 196.10 102.72
  Q 193.24 106.55 192.47 111.26
  A 1.43 1.43 0.0 0 0 193.64 112.90
  C 196.85 113.44 200.06 113.72 203.22 114.25
  Q 205.39 114.61 206.03 112.50
  C 207.88 106.36 214.48 103.73 219.64 107.80
  Q 221.10 108.95 221.28 110.70
  Q 221.62 113.88 221.63 117.12
  Q 221.63 117.64 221.12 117.73
  Q 217.19 118.40 213.50 118.61
  Q 205.78 119.07 199.11 122.66
  Q 197.37 123.60 196.14 125.22
  Q 195.84 125.60 195.45 125.87
  Z
  M 137.14 111.07
  Q 138.78 113.45 138.75 116.12
  Q 138.49 135.02 138.87 152.80
  A 1.42 1.42 0.0 0 0 140.29 154.19
  L 151.25 154.21
  A 1.94 1.94 0.0 0 0 153.20 152.28
  Q 153.28 135.82 153.17 120.13
  C 153.14 115.37 154.20 110.54 159.13 108.87
  Q 161.41 108.09 163.85 109.45
  C 166.17 110.75 166.87 114.46 166.86 116.91
  Q 166.78 134.03 166.85 152.29
  A 1.91 1.90 89.8 0 0 168.75 154.19
  L 179.48 154.21
  A 1.93 1.93 0.0 0 0 181.42 152.28
  Q 181.53 131.27 181.44 110.63
  C 181.41 104.13 178.60 98.69 172.43 96.35
  Q 162.71 92.66 154.87 100.37
  Q 153.07 102.15 152.46 104.48
  Q 152.18 105.53 151.74 104.54
  Q 148.05 96.32 140.62 95.34
  Q 135.54 94.67 131.29 96.86
  Q 127.43 98.84 124.66 104.68
  Q 124.60 104.79 124.59 104.67
  Q 124.20 101.76 124.47 98.84
  A 2.26 2.26 0.0 0 0 122.22 96.36
  L 112.84 96.36
  Q 110.54 96.36 110.54 98.66
  L 110.55 152.56
  A 1.63 1.63 0.0 0 0 112.18 154.19
  L 122.94 154.20
  A 2.12 2.11 0.4 0 0 125.07 152.11
  Q 125.24 135.22 125.09 117.56
  C 125.05 113.19 127.93 108.03 132.84 108.37
  Q 135.41 108.56 137.14 111.07
  Z
  M 333.09 149.09
  C 334.09 148.00 335.34 147.02 336.12 145.75
  Q 337.41 143.65 338.57 141.39
  Q 339.60 139.37 340.25 136.90
  Q 342.95 126.57 340.80 116.09
  Q 340.19 113.09 339.07 110.33
  Q 337.77 107.10 336.04 104.71
  Q 327.57 92.99 312.53 95.75
  C 310.35 96.15 308.48 97.29 306.51 98.31
  Q 303.42 99.92 301.51 102.09
  Q 298.99 104.95 297.62 108.10
  Q 291.58 121.99 295.39 136.19
  Q 297.26 143.16 300.51 147.19
  Q 304.47 152.10 310.92 154.30
  Q 316.66 156.25 322.08 155.02
  Q 326.34 154.06 329.77 151.92
  Q 331.41 150.90 333.09 149.09
  Z
  M 363.50 104.99
  L 363.48 98.42
  A 2.07 2.06 89.9 0 0 361.42 96.36
  L 351.81 96.37
  A 2.07 2.06 -90.0 0 0 349.75 98.44
  L 349.75 152.48
  A 1.73 1.72 -0.0 0 0 351.48 154.20
  L 362.24 154.21
  A 2.03 2.03 0.0 0 0 364.28 152.16
  Q 364.13 136.03 364.41 118.72
  Q 364.52 112.08 369.84 108.80
  A 1.29 1.27 -60.3 0 1 370.51 108.61
  L 373.56 108.62
  A 1.43 1.42 61.6 0 1 374.35 108.86
  Q 378.40 111.53 378.43 116.30
  Q 378.54 133.80 378.47 152.16
  Q 378.46 154.21 380.51 154.21
  L 391.18 154.20
  A 1.75 1.75 0.0 0 0 392.93 152.46
  Q 392.99 136.72 393.10 120.75
  Q 393.17 111.78 391.96 105.76
  Q 390.82 100.13 385.25 97.01
  Q 380.57 94.39 374.73 95.49
  Q 367.32 96.89 364.12 105.11
  Q 363.51 106.69 363.50 104.99
  Z
  M 255.02 128.83
  Q 254.79 128.95 254.65 129.16
  Q 251.63 133.45 248.65 137.65
  A 6.80 6.79 -27.3 0 0 247.39 141.59
  L 247.37 151.20
  A 1.69 1.69 0.0 0 0 249.76 152.74
  Q 252.12 151.66 254.52 150.54
  Q 256.66 149.55 259.14 149.22
  C 263.88 148.60 268.12 147.80 272.92 148.71
  Q 274.82 149.07 276.71 149.09
  Q 278.53 149.11 280.11 149.83
  Q 283.27 151.26 286.56 152.67
  A 1.72 1.72 0.0 0 0 288.95 151.14
  L 289.20 142.69
  A 3.25 3.25 0.0 0 0 287.30 139.63
  Q 285.22 138.68 283.15 137.72
  Q 281.39 136.91 278.94 136.64
  Q 277.26 136.45 275.57 136.14
  C 273.12 135.69 270.74 136.06 268.21 135.40
  Q 267.57 135.23 267.93 134.68
  Q 269.39 132.48 270.97 130.26
  A 23.31 8.56 -37.3 0 0 272.63 127.66
  Q 273.39 126.32 274.66 125.37
  A 1.34 1.33 -14.4 0 0 275.18 124.50
  C 275.41 122.84 276.77 121.98 277.44 121.02
  Q 282.06 114.36 287.28 106.79
  A 4.06 4.03 -27.8 0 0 288.00 104.49
  L 288.00 98.48
  A 2.28 2.27 90.0 0 0 285.73 96.20
  L 251.26 96.20
  A 2.04 2.03 90.0 0 0 249.23 98.24
  L 249.22 105.92
  A 2.21 2.21 0.0 0 0 251.42 108.13
  L 267.76 108.13
  A 0.77 0.76 16.0 0 1 268.41 109.30
  Q 265.95 113.26 262.90 117.09
  C 261.52 118.81 260.46 120.71 259.28 122.55
  Q 258.36 123.99 257.25 125.30
  Q 256.08 126.69 255.41 128.39
  Q 255.30 128.68 255.02 128.83
  Z
  M 279.11 173.53
  Q 281.53 166.01 281.04 160.52
  Q 281.00 160.12 280.77 159.80
  Q 279.30 157.75 275.73 157.20
  Q 262.89 155.23 252.18 159.94
  Q 249.59 161.08 247.66 162.83
  Q 246.84 163.57 247.48 164.36
  A 1.58 1.57 -24.1 0 0 248.94 164.91
  Q 255.05 163.95 262.21 163.68
  C 264.98 163.58 272.22 163.39 272.47 167.19
  Q 272.74 171.48 271.08 176.34
  Q 269.08 182.16 266.64 188.50
  Q 266.11 189.87 267.51 190.20
  Q 267.99 190.31 268.39 190.01
  Q 275.54 184.57 279.11 173.53
  Z
  M 139.39 187.22
  Q 142.34 188.68 145.37 189.75
  Q 159.03 194.56 174.18 196.49
  Q 192.15 198.77 210.46 195.86
  C 229.82 192.79 248.74 186.16 264.20 174.68
  C 266.79 172.76 264.58 169.53 261.48 170.26
  C 258.89 170.88 256.64 172.19 254.14 173.10
  Q 192.84 195.33 131.07 173.54
  Q 116.96 168.56 102.84 160.35
  A 1.58 1.57 20.9 0 0 100.51 161.39
  C 100.37 162.10 100.70 162.89 101.22 163.36
  Q 117.90 178.44 138.90 187.24
  Q 139.07 187.32 139.23 187.22
  Q 139.31 187.18 139.39 187.22
  Z"
/>
<path fill="#231f20" d="
  M 60.65 153.13
  Q 59.43 152.89 58.49 152.17
  C 56.11 150.32 53.35 147.00 53.06 143.79
  Q 52.92 142.25 52.77 140.56
  Q 51.68 127.86 62.12 122.17
  Q 67.88 119.02 75.47 118.62
  Q 77.48 118.52 79.49 118.22
  Q 81.27 117.96 83.09 117.83
  Q 83.63 117.79 83.64 117.25
  Q 83.65 115.00 83.60 112.72
  C 83.46 105.70 75.12 104.09 70.49 108.10
  Q 68.14 110.14 67.55 113.14
  A 1.50 1.49 9.3 0 1 65.89 114.33
  L 55.82 113.03
  Q 53.83 112.77 54.21 110.81
  Q 54.84 107.53 56.64 104.84
  Q 56.87 104.50 56.91 104.09
  Q 56.96 103.70 57.19 103.39
  Q 61.66 97.35 71.25 95.32
  Q 82.60 92.91 91.75 98.45
  Q 97.85 102.15 98.13 110.48
  Q 98.46 120.84 98.24 133.20
  C 98.15 138.38 99.91 141.00 102.72 145.05
  A 1.34 1.34 0.0 0 1 102.55 146.78
  Q 98.66 150.50 94.38 153.76
  Q 92.51 155.19 91.44 154.14
  C 90.23 152.93 88.89 152.00 87.92 150.54
  Q 86.95 149.11 85.87 147.78
  Q 85.55 147.38 85.18 147.74
  Q 82.98 149.86 80.48 151.78
  Q 79.62 152.44 78.68 152.69
  Q 77.97 152.87 77.34 153.27
  Q 76.77 153.63 76.12 153.85
  Q 68.28 156.47 61.22 153.60
  Q 61.06 153.54 60.98 153.38
  Q 60.87 153.18 60.65 153.13
  Z
  M 83.68 132.36
  C 83.84 130.49 83.95 128.54 83.71 126.71
  Q 83.65 126.20 83.14 126.18
  Q 78.24 125.93 74.51 127.47
  C 69.02 129.72 66.41 134.78 68.55 140.38
  C 70.02 144.24 74.57 145.40 77.83 143.27
  Q 83.04 139.86 83.68 132.36
  Z"
/>
<path fill="#231f20" d="
  M 196.14 125.22
  Q 197.37 123.60 199.11 122.66
  Q 205.78 119.07 213.50 118.61
  Q 217.19 118.40 221.12 117.73
  Q 221.63 117.64 221.63 117.12
  Q 221.62 113.88 221.28 110.70
  Q 221.10 108.95 219.64 107.80
  C 214.48 103.73 207.88 106.36 206.03 112.50
  Q 205.39 114.61 203.22 114.25
  C 200.06 113.72 196.85 113.44 193.64 112.90
  A 1.43 1.43 0.0 0 1 192.47 111.26
  Q 193.24 106.55 196.10 102.72
  Q 198.52 99.48 203.22 97.31
  Q 211.41 93.52 221.34 95.10
  C 229.47 96.40 236.14 101.83 236.34 110.44
  Q 236.63 122.45 236.61 133.50
  C 236.60 138.38 237.73 141.24 240.74 144.64
  A 1.72 1.71 -40.3 0 1 240.53 147.11
  Q 236.55 150.33 232.94 153.60
  Q 230.42 155.89 228.46 152.99
  Q 227.84 152.07 226.91 151.62
  Q 225.98 151.16 224.22 147.98
  Q 223.92 147.43 223.46 147.86
  C 221.64 149.57 219.67 151.33 217.42 152.48
  Q 210.77 155.89 203.81 154.84
  Q 200.00 154.27 196.37 151.84
  Q 193.32 149.79 191.77 145.67
  Q 188.30 136.44 194.10 127.34
  Q 194.73 126.36 195.45 125.87
  Q 195.84 125.60 196.14 125.22
  Z
  M 206.98 132.44
  C 205.68 135.66 205.83 139.46 207.88 142.32
  Q 208.43 143.08 209.23 143.47
  Q 213.84 145.72 217.93 141.77
  Q 220.71 139.08 221.09 136.38
  Q 221.68 132.27 221.57 126.76
  Q 221.56 126.23 221.02 126.20
  C 216.04 125.97 208.97 127.46 206.98 132.44
  Z"
/>
<path fill="#231f20" d="
  M 132.84 108.37
  C 127.93 108.03 125.05 113.19 125.09 117.56
  Q 125.24 135.22 125.07 152.11
  A 2.12 2.11 0.4 0 1 122.94 154.20
  L 112.18 154.19
  A 1.63 1.63 0.0 0 1 110.55 152.56
  L 110.54 98.66
  Q 110.54 96.36 112.84 96.36
  L 122.22 96.36
  A 2.26 2.26 0.0 0 1 124.47 98.84
  Q 124.20 101.76 124.59 104.67
  Q 124.60 104.79 124.66 104.68
  Q 127.43 98.84 131.29 96.86
  Q 135.54 94.67 140.62 95.34
  Q 148.05 96.32 151.74 104.54
  Q 152.18 105.53 152.46 104.48
  Q 153.07 102.15 154.87 100.37
  Q 162.71 92.66 172.43 96.35
  C 178.60 98.69 181.41 104.13 181.44 110.63
  Q 181.53 131.27 181.42 152.28
  A 1.93 1.93 0.0 0 1 179.48 154.21
  L 168.75 154.19
  A 1.91 1.90 89.8 0 1 166.85 152.29
  Q 166.78 134.03 166.86 116.91
  C 166.87 114.46 166.17 110.75 163.85 109.45
  Q 161.41 108.09 159.13 108.87
  C 154.20 110.54 153.14 115.37 153.17 120.13
  Q 153.28 135.82 153.20 152.28
  A 1.94 1.94 0.0 0 1 151.25 154.21
  L 140.29 154.19
  A 1.42 1.42 0.0 0 1 138.87 152.80
  Q 138.49 135.02 138.75 116.12
  Q 138.78 113.45 137.14 111.07
  Q 135.41 108.56 132.84 108.37
  Z"
/>
<path fill="#231f20" d="
  M 333.09 149.09
  Q 331.41 150.90 329.77 151.92
  Q 326.34 154.06 322.08 155.02
  Q 316.66 156.25 310.92 154.30
  Q 304.47 152.10 300.51 147.19
  Q 297.26 143.16 295.39 136.19
  Q 291.58 121.99 297.62 108.10
  Q 298.99 104.95 301.51 102.09
  Q 303.42 99.92 306.51 98.31
  C 308.48 97.29 310.35 96.15 312.53 95.75
  Q 327.57 92.99 336.04 104.71
  Q 337.77 107.10 339.07 110.33
  Q 340.19 113.09 340.80 116.09
  Q 342.95 126.57 340.25 136.90
  Q 339.60 139.37 338.57 141.39
  Q 337.41 143.65 336.12 145.75
  C 335.34 147.02 334.09 148.00 333.09 149.09
  Z
  M 326.01 132.63
  C 326.51 127.03 328.13 103.29 316.08 106.63
  C 307.68 108.96 309.11 126.80 309.86 132.99
  Q 310.26 136.31 311.58 139.48
  C 313.46 143.99 317.55 145.35 321.71 143.00
  Q 323.57 141.96 324.37 139.66
  Q 325.72 135.80 326.01 132.63
  Z"
/>
<path fill="#231f20" d="
  M 363.50 104.99
  Q 363.51 106.69 364.12 105.11
  Q 367.32 96.89 374.73 95.49
  Q 380.57 94.39 385.25 97.01
  Q 390.82 100.13 391.96 105.76
  Q 393.17 111.78 393.10 120.75
  Q 392.99 136.72 392.93 152.46
  A 1.75 1.75 0.0 0 1 391.18 154.20
  L 380.51 154.21
  Q 378.46 154.21 378.47 152.16
  Q 378.54 133.80 378.43 116.30
  Q 378.40 111.53 374.35 108.86
  A 1.43 1.42 61.6 0 0 373.56 108.62
  L 370.51 108.61
  A 1.29 1.27 -60.3 0 0 369.84 108.80
  Q 364.52 112.08 364.41 118.72
  Q 364.13 136.03 364.28 152.16
  A 2.03 2.03 0.0 0 1 362.24 154.21
  L 351.48 154.20
  A 1.73 1.72 -0.0 0 1 349.75 152.48
  L 349.75 98.44
  A 2.07 2.06 -90.0 0 1 351.81 96.37
  L 361.42 96.36
  A 2.07 2.06 89.9 0 1 363.48 98.42
  L 363.50 104.99
  Z"
/>
<path fill="#231f20" d="
  M 255.41 128.39
  Q 256.08 126.69 257.25 125.30
  Q 258.36 123.99 259.28 122.55
  C 260.46 120.71 261.52 118.81 262.90 117.09
  Q 265.95 113.26 268.41 109.30
  A 0.77 0.76 16.0 0 0 267.76 108.13
  L 251.42 108.13
  A 2.21 2.21 0.0 0 1 249.22 105.92
  L 249.23 98.24
  A 2.04 2.03 90.0 0 1 251.26 96.20
  L 285.73 96.20
  A 2.28 2.27 -90.0 0 1 288.00 98.48
  L 288.00 104.49
  A 4.06 4.03 -27.8 0 1 287.28 106.79
  Q 282.06 114.36 277.44 121.02
  C 276.77 121.98 275.41 122.84 275.18 124.50
  A 1.34 1.33 -14.4 0 1 274.66 125.37
  Q 273.39 126.32 272.63 127.66
  A 23.31 8.56 -37.3 0 1 270.97 130.26
  Q 269.39 132.48 267.93 134.68
  Q 267.57 135.23 268.21 135.40
  C 270.74 136.06 273.12 135.69 275.57 136.14
  Q 277.26 136.45 278.94 136.64
  Q 281.39 136.91 283.15 137.72
  Q 285.22 138.68 287.30 139.63
  A 3.25 3.25 0.0 0 1 289.20 142.69
  L 288.95 151.14
  A 1.72 1.72 0.0 0 1 286.56 152.67
  Q 283.27 151.26 280.11 149.83
  Q 278.53 149.11 276.71 149.09
  Q 274.82 149.07 272.92 148.71
  C 268.12 147.80 263.88 148.60 259.14 149.22
  Q 256.66 149.55 254.52 150.54
  Q 252.12 151.66 249.76 152.74
  A 1.69 1.69 0.0 0 1 247.37 151.20
  L 247.39 141.59
  A 6.80 6.79 -27.3 0 1 248.65 137.65
  Q 251.63 133.45 254.65 129.16
  Q 254.79 128.95 255.02 128.83
  Q 255.30 128.68 255.41 128.39
  Z"
/>
<path fill="#f9fafb" d="
  M 316.08 106.63
  C 328.13 103.29 326.51 127.03 326.01 132.63
  Q 325.72 135.80 324.37 139.66
  Q 323.57 141.96 321.71 143.00
  C 317.55 145.35 313.46 143.99 311.58 139.48
  Q 310.26 136.31 309.86 132.99
  C 309.11 126.80 307.68 108.96 316.08 106.63
  Z"
/>
<path fill="#f9fafb" d="
  M 83.68 132.36
  Q 83.04 139.86 77.83 143.27
  C 74.57 145.40 70.02 144.24 68.55 140.38
  C 66.41 134.78 69.02 129.72 74.51 127.47
  Q 78.24 125.93 83.14 126.18
  Q 83.65 126.20 83.71 126.71
  C 83.95 128.54 83.84 130.49 83.68 132.36
  Z"
/>
<path fill="#f9fafb" d="
  M 207.88 142.32
  C 205.83 139.46 205.68 135.66 206.98 132.44
  C 208.97 127.46 216.04 125.97 221.02 126.20
  Q 221.56 126.23 221.57 126.76
  Q 221.68 132.27 221.09 136.38
  Q 220.71 139.08 217.93 141.77
  Q 213.84 145.72 209.23 143.47
  Q 208.43 143.08 207.88 142.32
  Z"
/>
<path fill="#f8991c" d="
  M 279.11 173.53
  Q 275.54 184.57 268.39 190.01
  Q 267.99 190.31 267.51 190.20
  Q 266.11 189.87 266.64 188.50
  Q 269.08 182.16 271.08 176.34
  Q 272.74 171.48 272.47 167.19
  C 272.22 163.39 264.98 163.58 262.21 163.68
  Q 255.05 163.95 248.94 164.91
  A 1.58 1.57 -24.1 0 1 247.48 164.36
  Q 246.84 163.57 247.66 162.83
  Q 249.59 161.08 252.18 159.94
  Q 262.89 155.23 275.73 157.20
  Q 279.30 157.75 280.77 159.80
  Q 281.00 160.12 281.04 160.52
  Q 281.53 166.01 279.11 173.53
  Z"
/>
<path fill="#f8991c" d="
  M 139.23 187.22
  Q 139.07 187.32 138.90 187.24
  Q 117.90 178.44 101.22 163.36
  C 100.70 162.89 100.37 162.10 100.51 161.39
  A 1.58 1.57 20.9 0 1 102.84 160.35
  Q 116.96 168.56 131.07 173.54
  Q 192.84 195.33 254.14 173.10
  C 256.64 172.19 258.89 170.88 261.48 170.26
  C 264.58 169.53 266.79 172.76 264.20 174.68
  C 248.74 186.16 229.82 192.79 210.46 195.86
  Q 192.15 198.77 174.18 196.49
  Q 159.03 194.56 145.37 189.75
  Q 142.34 188.68 139.39 187.22
  Q 139.31 187.18 139.23 187.22
  Z"
/>
</svg>
