<svg xmlns="http://www.w3.org/2000/svg" version="1.1" viewBox="0.00 0.00 184.00 72.00">
<path fill="#4285f4" d="
  M 38.30 30.03
  L 24.28 30.05
  Q 24.01 30.05 24.01 29.78
  L 24.00 24.25
  Q 24.00 24.00 24.25 24.00
  L 44.55 24.00
  Q 45.23 24.00 45.30 24.68
  Q 46.50 37.93 37.42 44.73
  C 31.43 49.22 22.54 50.03 15.78 47.33
  C 1.08 41.46 -4.80 22.94 6.71 10.69
  C 15.56 1.28 29.70 0.14 39.48 9.09
  A 0.29 0.28 -47.0 0 1 39.49 9.51
  L 35.62 13.40
  Q 35.39 13.64 35.13 13.43
  Q 27.14 6.88 17.77 10.45
  C 12.02 12.65 8.10 18.32 7.58 24.47
  C 6.48 37.45 19.08 45.87 30.64 41.32
  Q 37.67 38.56 38.94 30.78
  Q 39.06 30.03 38.30 30.03
  Z"
/>
<rect fill="#34a853" x="143.50" y="4.52" width="6.50" height="43.48" rx="0.33"/>
<path fill="#ea4335" d="
  M 77.81 34.10
  A 14.82 14.82 0.0 0 1 62.99 48.92
  A 14.82 14.82 0.0 0 1 48.17 34.10
  A 14.82 14.82 0.0 0 1 62.99 19.28
  A 14.82 14.82 0.0 0 1 77.81 34.10
  Z
  M 62.9900 43.1000
  A 8.99 8.36 90.0 0 0 71.3500 34.1100
  A 8.99 8.36 90.0 0 0 62.9900 25.1200
  A 8.99 8.36 90.0 0 0 54.6300 34.1100
  A 8.99 8.36 90.0 0 0 62.9900 43.1000
  Z"
/>
<path fill="#fbbc05" d="
  M 109.80 34.10
  A 14.81 14.81 0.0 0 1 94.99 48.91
  A 14.81 14.81 0.0 0 1 80.18 34.10
  A 14.81 14.81 0.0 0 1 94.99 19.29
  A 14.81 14.81 0.0 0 1 109.80 34.10
  Z
  M 95.0057 43.1000
  A 8.99 8.36 89.9 0 0 103.3500 34.0954
  A 8.99 8.36 89.9 0 0 94.9743 25.1200
  A 8.99 8.36 89.9 0 0 86.6300 34.1246
  A 8.99 8.36 89.9 0 0 95.0057 43.1000
  Z"
/>
<path fill="#4285f4" d="
  M 133.78 21.97
  L 133.81 20.96
  A 0.73 0.72 0.4 0 1 134.54 20.25
  L 139.46 20.24
  Q 140.03 20.24 140.02 20.80
  Q 139.93 32.65 140.04 43.88
  C 140.13 53.23 137.82 61.06 127.59 62.05
  C 121.16 62.67 115.67 59.49 112.96 53.65
  A 0.25 0.25 0.0 0 1 113.09 53.31
  L 118.25 51.18
  Q 118.49 51.08 118.60 51.32
  Q 120.73 55.72 124.95 56.20
  C 131.56 56.97 134.42 51.94 133.78 46.10
  Q 133.71 45.46 133.23 45.90
  Q 128.51 50.23 122.08 48.24
  C 109.07 44.20 108.72 25.37 121.05 20.32
  Q 127.76 17.57 133.25 22.21
  Q 133.77 22.65 133.78 21.97
  Z
  M 126.3600 43.1200
  A 9.02 7.95 90.0 0 0 134.3100 34.1000
  A 9.02 7.95 90.0 0 0 126.3600 25.0800
  A 9.02 7.95 90.0 0 0 118.4100 34.1000
  A 9.02 7.95 90.0 0 0 126.3600 43.1200
  Z"
/>
<path fill="#ea4335" d="
  M 160.19 39.24
  Q 161.36 41.41 163.51 42.31
  Q 169.70 44.90 174.26 39.18
  Q 174.38 39.03 174.54 39.13
  L 179.09 42.19
  Q 179.35 42.36 179.16 42.61
  C 174.42 48.90 166.06 50.86 159.42 46.76
  C 150.50 41.26 149.76 27.88 158.57 21.70
  C 163.19 18.46 169.88 18.49 174.28 22.17
  Q 177.86 25.16 179.36 29.87
  Q 179.53 30.42 179.00 30.64
  L 160.53 38.30
  Q 159.84 38.59 160.19 39.24
  Z
  M 159.35 33.53
  L 171.89 28.15
  A 0.12 0.12 0.0 0 0 171.95 28.00
  L 171.93 27.95
  A 6.78 5.25 -23.2 0 0 163.63 25.80
  L 163.34 25.92
  A 6.78 5.25 -23.2 0 0 159.17 33.42
  L 159.19 33.46
  A 0.12 0.12 0.0 0 0 159.35 33.53
  Z"
/>
</svg>
