<?xml version="1.0" encoding="UTF-8" standalone="no"?>
<!DOCTYPE svg PUBLIC "-//W3C//DTD SVG 1.1//EN" "http://www.w3.org/Graphics/SVG/1.1/DTD/svg11.dtd">
<svg xmlns="http://www.w3.org/2000/svg" version="1.1" viewBox="0.00 0.00 191.00 72.00">
<g stroke-width="2.00" fill="none" stroke-linecap="butt">
<path stroke="#98abe9" vector-effect="non-scaling-stroke" d="
  M 95.20 32.02
  L 95.33 25.61
  Q 95.35 24.62 94.36 24.59
  L 89.79 24.46
  Q 89.02 24.44 89.02 25.21
  L 88.89 45.85
  Q 88.88 46.81 89.85 46.82
  L 94.19 46.86
  A 1.04 1.04 0.0 0 0 95.24 45.81
  L 95.17 37.23
  Q 95.16 36.56 95.82 36.69
  L 96.18 36.76
  Q 97.04 36.93 97.02 37.81
  L 96.84 45.81
  A 0.96 0.96 0.0 0 0 97.81 46.79
  L 103.01 46.76
  Q 104.19 46.75 104.03 45.58
  Q 103.52 41.97 103.77 37.32
  Q 103.93 34.37 102.63 32.06
  A 1.35 1.34 85.3 0 0 101.94 31.47
  Q 98.46 30.18 96.13 32.43
  A 0.55 0.55 0.0 0 1 95.20 32.02"
/>
<path stroke="#98abe9" vector-effect="non-scaling-stroke" d="
  M 132.20 32.16
  L 130.03 31.18
  A 1.35 1.32 -30.5 0 0 129.50 31.05
  C 127.20 31.00 124.94 32.54 124.76 35.04
  Q 124.38 40.33 125.06 44.77
  A 2.59 2.59 0.0 0 0 127.69 46.97
  L 139.32 46.68
  A 0.71 0.70 83.2 0 0 139.99 45.82
  Q 139.84 45.10 139.82 44.41
  Q 139.60 35.72 139.80 25.91
  Q 139.83 24.50 138.42 24.50
  L 134.28 24.48
  Q 133.04 24.48 133.05 25.72
  L 133.10 31.57
  Q 133.11 32.57 132.20 32.16"
/>
<path stroke="#98abe9" vector-effect="non-scaling-stroke" d="
  M 168.5419 25.2836
  A 0.75 0.75 0.0 0 0 167.7906 24.5350
  L 161.9906 24.5451
  A 0.75 0.75 0.0 0 0 161.2419 25.2964
  L 161.2781 46.0164
  A 0.75 0.75 0.0 0 0 162.0294 46.7650
  L 167.8294 46.7549
  A 0.75 0.75 0.0 0 0 168.5781 46.0036
  L 168.5419 25.2836"
/>
<path stroke="#98abe9" vector-effect="non-scaling-stroke" d="
  M 10.96 41.08
  C 14.82 40.62 19.21 42.02 19.88 36.40
  C 20.20 33.74 20.42 29.80 18.85 27.47
  Q 18.55 27.02 18.03 26.89
  C 13.47 25.73 8.27 26.09 3.65 26.12
  A 0.64 0.64 0.0 0 0 3.01 26.76
  L 3.01 45.54
  Q 3.01 46.83 4.29 46.81
  L 9.75 46.75
  Q 11.00 46.73 10.80 45.49
  L 10.24 42.04
  Q 10.10 41.18 10.96 41.08"
/>
<path stroke="#98abe9" vector-effect="non-scaling-stroke" d="
  M 62.10 31.27
  L 68.63 31.20
  Q 70.19 31.19 70.16 29.63
  L 70.13 28.60
  A 2.13 2.13 0.0 0 0 68.52 26.57
  C 65.19 25.74 58.09 25.30 55.70 28.13
  C 54.06 30.08 54.72 35.77 55.15 38.01
  A 0.90 0.90 0.0 0 0 55.95 38.73
  L 62.16 39.25
  Q 63.43 39.35 63.69 40.60
  Q 63.72 40.76 63.73 40.92
  A 1.11 1.10 -3.1 0 1 62.72 42.04
  Q 59.44 42.33 56.32 41.68
  Q 55.23 41.45 55.12 42.56
  L 54.85 45.47
  A 1.18 1.17 -85.2 0 0 55.93 46.75
  Q 60.68 47.13 65.57 47.04
  C 71.70 46.92 71.62 40.41 70.59 36.19
  Q 70.47 35.73 70.10 35.44
  C 68.15 33.94 65.07 33.70 62.72 33.14
  Q 61.78 32.91 61.54 32.02
  Q 61.34 31.28 62.10 31.27"
/>
<path stroke="#98abe9" vector-effect="non-scaling-stroke" d="
  M 29.55 32.67
  Q 28.92 32.34 28.43 31.80
  A 1.42 1.40 -18.8 0 0 27.48 31.34
  L 24.20 31.10
  Q 22.91 31.00 22.92 32.29
  L 22.96 46.02
  Q 22.96 46.83 23.77 46.82
  L 28.67 46.81
  Q 29.69 46.80 29.59 45.79
  C 29.21 42.22 28.83 36.64 33.52 36.73
  A 1.17 1.17 0.0 0 0 34.71 35.52
  L 34.59 31.88
  Q 34.56 31.08 33.76 31.13
  Q 31.88 31.25 30.40 32.56
  Q 30.01 32.91 29.55 32.67"
/>
<path stroke="#98abe9" vector-effect="non-scaling-stroke" d="
  M 51.7067 35.2930
  A 4.04 4.04 0.0 0 0 47.6738 31.2459
  L 40.8738 31.2341
  A 4.04 4.04 0.0 0 0 36.8267 35.2670
  L 36.8133 42.9870
  A 4.04 4.04 0.0 0 0 40.8462 47.0341
  L 47.6462 47.0459
  A 4.04 4.04 0.0 0 0 51.6933 43.0130
  L 51.7067 35.2930"
/>
<path stroke="#98abe9" vector-effect="non-scaling-stroke" d="
  M 81.68 36.26
  L 85.17 36.21
  Q 85.25 36.21 85.28 36.12
  Q 85.72 34.48 85.48 32.61
  Q 85.32 31.41 84.12 31.22
  C 79.59 30.51 73.92 30.91 73.72 36.89
  C 73.61 40.02 73.40 43.47 75.18 46.06
  A 1.26 1.26 0.0 0 0 75.97 46.58
  Q 80.86 47.56 85.46 46.52
  A 0.96 0.95 -11.0 0 0 86.19 45.44
  L 85.86 43.44
  A 0.68 0.67 -3.2 0 0 85.23 42.88
  L 82.18 42.69
  A 1.78 1.77 83.8 0 1 80.57 41.39
  Q 79.78 38.60 80.94 36.68
  A 0.89 0.86 -73.6 0 1 81.68 36.26"
/>
<path stroke="#98abe9" vector-effect="non-scaling-stroke" d="
  M 113.19 41.69
  Q 113.17 41.11 113.75 41.05
  Q 116.98 40.74 120.35 40.94
  A 1.09 1.08 0.7 0 0 121.50 39.83
  Q 121.40 36.97 121.12 34.32
  C 120.68 30.05 112.53 30.89 109.93 31.81
  C 108.18 32.43 106.90 33.74 106.80 35.67
  Q 106.63 39.30 106.83 42.47
  Q 107.09 46.73 111.84 46.97
  Q 116.12 47.19 120.07 46.84
  Q 120.96 46.76 120.97 45.87
  L 121.01 43.53
  Q 121.02 42.56 120.06 42.69
  Q 116.99 43.11 113.88 42.51
  Q 113.20 42.38 113.19 41.69"
/>
<path stroke="#98abe9" vector-effect="non-scaling-stroke" d="
  M 177.83 42.13
  A 0.59 0.59 0.0 0 1 178.12 41.09
  Q 181.27 40.65 184.56 40.99
  Q 186.91 41.23 186.53 38.89
  L 185.84 34.75
  A 4.08 4.08 0.0 0 0 182.82 31.45
  C 178.79 30.42 172.28 30.46 171.34 35.78
  C 170.76 39.04 170.85 43.55 173.13 46.24
  Q 173.43 46.60 173.91 46.67
  Q 179.02 47.38 183.97 46.81
  Q 185.55 46.63 185.54 45.04
  L 185.53 44.46
  Q 185.52 42.74 183.80 42.78
  C 182.28 42.81 179.00 43.07 177.83 42.13"
/>
<path stroke="#98abe9" vector-effect="non-scaling-stroke" d="
  M 150.13 41.76
  A 0.37 0.37 0.0 0 1 149.70 41.40
  L 149.48 32.26
  Q 149.45 31.31 148.50 31.30
  L 144.04 31.23
  Q 143.20 31.22 143.15 32.05
  C 142.91 35.90 142.65 40.67 143.37 44.59
  C 143.99 47.98 148.96 47.10 151.24 46.42
  A 1.87 1.84 -45.6 0 1 152.24 46.40
  Q 154.97 47.07 157.76 46.70
  A 0.90 0.89 -5.8 0 0 158.54 45.75
  Q 158.06 38.97 158.51 32.50
  Q 158.60 31.19 157.29 31.24
  L 152.38 31.43
  Q 151.25 31.48 151.28 32.61
  L 151.51 40.54
  A 1.15 1.15 0.0 0 1 150.54 41.70
  L 150.13 41.76"
/>
<path stroke="#98abe9" vector-effect="non-scaling-stroke" d="
  M 133.1169 37.5392
  A 0.97 0.97 0.0 0 0 132.1554 36.5608
  L 131.9954 36.5594
  A 0.97 0.97 0.0 0 0 131.0170 37.5209
  L 130.9831 41.4008
  A 0.97 0.97 0.0 0 0 131.9446 42.3792
  L 132.1046 42.3806
  A 0.97 0.97 0.0 0 0 133.0830 41.4191
  L 133.1169 37.5392"
/>
<path stroke="#98abe9" vector-effect="non-scaling-stroke" d="
  M 12.9560 32.1692
  A 1.04 1.04 0.0 0 0 11.9548 31.0918
  L 11.3952 31.0713
  A 1.04 1.04 0.0 0 0 10.3178 32.0725
  L 10.2240 34.6308
  A 1.04 1.04 0.0 0 0 11.2252 35.7082
  L 11.7848 35.7287
  A 1.04 1.04 0.0 0 0 12.8622 34.7275
  L 12.9560 32.1692"
/>
<path stroke="#98abe9" vector-effect="non-scaling-stroke" d="
  M 45.0719 37.0662
  A 1.03 1.03 0.0 0 0 44.0383 36.0398
  L 43.9383 36.0402
  A 1.03 1.03 0.0 0 0 42.9119 37.0738
  L 42.9281 41.6938
  A 1.03 1.03 0.0 0 0 43.9617 42.7202
  L 44.0617 42.7198
  A 1.03 1.03 0.0 0 0 45.0881 41.6862
  L 45.0719 37.0662"
/>
<path stroke="#98abe9" vector-effect="non-scaling-stroke" d="
  M 114.2590 38.2000
  A 1.58 1.02 90.4 0 0 115.2900 36.6271
  A 1.58 1.02 90.4 0 0 114.2810 35.0400
  A 1.58 1.02 90.4 0 0 113.2500 36.6129
  A 1.58 1.02 90.4 0 0 114.2590 38.2000"
/>
<path stroke="#98abe9" vector-effect="non-scaling-stroke" d="
  M 178.2491 37.7796
  A 1.41 1.07 121.7 0 0 179.9004 37.1423
  A 1.41 1.07 121.7 0 0 179.7309 35.3804
  A 1.41 1.07 121.7 0 0 178.0796 36.0177
  A 1.41 1.07 121.7 0 0 178.2491 37.7796"
/>
</g>
<path fill="#3056d3" d="
  M 0.00 0.00
  L 191.00 0.00
  L 191.00 72.00
  L 0.00 72.00
  L 0.00 0.00
  Z
  M 95.20 32.02
  L 95.33 25.61
  Q 95.35 24.62 94.36 24.59
  L 89.79 24.46
  Q 89.02 24.44 89.02 25.21
  L 88.89 45.85
  Q 88.88 46.81 89.85 46.82
  L 94.19 46.86
  A 1.04 1.04 0.0 0 0 95.24 45.81
  L 95.17 37.23
  Q 95.16 36.56 95.82 36.69
  L 96.18 36.76
  Q 97.04 36.93 97.02 37.81
  L 96.84 45.81
  A 0.96 0.96 0.0 0 0 97.81 46.79
  L 103.01 46.76
  Q 104.19 46.75 104.03 45.58
  Q 103.52 41.97 103.77 37.32
  Q 103.93 34.37 102.63 32.06
  A 1.35 1.34 85.3 0 0 101.94 31.47
  Q 98.46 30.18 96.13 32.43
  A 0.55 0.55 0.0 0 1 95.20 32.02
  Z
  M 132.20 32.16
  L 130.03 31.18
  A 1.35 1.32 -30.5 0 0 129.50 31.05
  C 127.20 31.00 124.94 32.54 124.76 35.04
  Q 124.38 40.33 125.06 44.77
  A 2.59 2.59 0.0 0 0 127.69 46.97
  L 139.32 46.68
  A 0.71 0.70 83.2 0 0 139.99 45.82
  Q 139.84 45.10 139.82 44.41
  Q 139.60 35.72 139.80 25.91
  Q 139.83 24.50 138.42 24.50
  L 134.28 24.48
  Q 133.04 24.48 133.05 25.72
  L 133.10 31.57
  Q 133.11 32.57 132.20 32.16
  Z
  M 168.5419 25.2836
  A 0.75 0.75 0.0 0 0 167.7906 24.5350
  L 161.9906 24.5451
  A 0.75 0.75 0.0 0 0 161.2419 25.2964
  L 161.2781 46.0164
  A 0.75 0.75 0.0 0 0 162.0294 46.7650
  L 167.8294 46.7549
  A 0.75 0.75 0.0 0 0 168.5781 46.0036
  L 168.5419 25.2836
  Z
  M 10.96 41.08
  C 14.82 40.62 19.21 42.02 19.88 36.40
  C 20.20 33.74 20.42 29.80 18.85 27.47
  Q 18.55 27.02 18.03 26.89
  C 13.47 25.73 8.27 26.09 3.65 26.12
  A 0.64 0.64 0.0 0 0 3.01 26.76
  L 3.01 45.54
  Q 3.01 46.83 4.29 46.81
  L 9.75 46.75
  Q 11.00 46.73 10.80 45.49
  L 10.24 42.04
  Q 10.10 41.18 10.96 41.08
  Z
  M 62.10 31.27
  L 68.63 31.20
  Q 70.19 31.19 70.16 29.63
  L 70.13 28.60
  A 2.13 2.13 0.0 0 0 68.52 26.57
  C 65.19 25.74 58.09 25.30 55.70 28.13
  C 54.06 30.08 54.72 35.77 55.15 38.01
  A 0.90 0.90 0.0 0 0 55.95 38.73
  L 62.16 39.25
  Q 63.43 39.35 63.69 40.60
  Q 63.72 40.76 63.73 40.92
  A 1.11 1.10 -3.1 0 1 62.72 42.04
  Q 59.44 42.33 56.32 41.68
  Q 55.23 41.45 55.12 42.56
  L 54.85 45.47
  A 1.18 1.17 -85.2 0 0 55.93 46.75
  Q 60.68 47.13 65.57 47.04
  C 71.70 46.92 71.62 40.41 70.59 36.19
  Q 70.47 35.73 70.10 35.44
  C 68.15 33.94 65.07 33.70 62.72 33.14
  Q 61.78 32.91 61.54 32.02
  Q 61.34 31.28 62.10 31.27
  Z
  M 29.55 32.67
  Q 28.92 32.34 28.43 31.80
  A 1.42 1.40 -18.8 0 0 27.48 31.34
  L 24.20 31.10
  Q 22.91 31.00 22.92 32.29
  L 22.96 46.02
  Q 22.96 46.83 23.77 46.82
  L 28.67 46.81
  Q 29.69 46.80 29.59 45.79
  C 29.21 42.22 28.83 36.64 33.52 36.73
  A 1.17 1.17 0.0 0 0 34.71 35.52
  L 34.59 31.88
  Q 34.56 31.08 33.76 31.13
  Q 31.88 31.25 30.40 32.56
  Q 30.01 32.91 29.55 32.67
  Z
  M 51.7067 35.2930
  A 4.04 4.04 0.0 0 0 47.6738 31.2459
  L 40.8738 31.2341
  A 4.04 4.04 0.0 0 0 36.8267 35.2670
  L 36.8133 42.9870
  A 4.04 4.04 0.0 0 0 40.8462 47.0341
  L 47.6462 47.0459
  A 4.04 4.04 0.0 0 0 51.6933 43.0130
  L 51.7067 35.2930
  Z
  M 81.68 36.26
  L 85.17 36.21
  Q 85.25 36.21 85.28 36.12
  Q 85.72 34.48 85.48 32.61
  Q 85.32 31.41 84.12 31.22
  C 79.59 30.51 73.92 30.91 73.72 36.89
  C 73.61 40.02 73.40 43.47 75.18 46.06
  A 1.26 1.26 0.0 0 0 75.97 46.58
  Q 80.86 47.56 85.46 46.52
  A 0.96 0.95 -11.0 0 0 86.19 45.44
  L 85.86 43.44
  A 0.68 0.67 -3.2 0 0 85.23 42.88
  L 82.18 42.69
  A 1.78 1.77 83.8 0 1 80.57 41.39
  Q 79.78 38.60 80.94 36.68
  A 0.89 0.86 -73.6 0 1 81.68 36.26
  Z
  M 113.19 41.69
  Q 113.17 41.11 113.75 41.05
  Q 116.98 40.74 120.35 40.94
  A 1.09 1.08 0.7 0 0 121.50 39.83
  Q 121.40 36.97 121.12 34.32
  C 120.68 30.05 112.53 30.89 109.93 31.81
  C 108.18 32.43 106.90 33.74 106.80 35.67
  Q 106.63 39.30 106.83 42.47
  Q 107.09 46.73 111.84 46.97
  Q 116.12 47.19 120.07 46.84
  Q 120.96 46.76 120.97 45.87
  L 121.01 43.53
  Q 121.02 42.56 120.06 42.69
  Q 116.99 43.11 113.88 42.51
  Q 113.20 42.38 113.19 41.69
  Z
  M 177.83 42.13
  A 0.59 0.59 0.0 0 1 178.12 41.09
  Q 181.27 40.65 184.56 40.99
  Q 186.91 41.23 186.53 38.89
  L 185.84 34.75
  A 4.08 4.08 0.0 0 0 182.82 31.45
  C 178.79 30.42 172.28 30.46 171.34 35.78
  C 170.76 39.04 170.85 43.55 173.13 46.24
  Q 173.43 46.60 173.91 46.67
  Q 179.02 47.38 183.97 46.81
  Q 185.55 46.63 185.54 45.04
  L 185.53 44.46
  Q 185.52 42.74 183.80 42.78
  C 182.28 42.81 179.00 43.07 177.83 42.13
  Z
  M 150.13 41.76
  A 0.37 0.37 0.0 0 1 149.70 41.40
  L 149.48 32.26
  Q 149.45 31.31 148.50 31.30
  L 144.04 31.23
  Q 143.20 31.22 143.15 32.05
  C 142.91 35.90 142.65 40.67 143.37 44.59
  C 143.99 47.98 148.96 47.10 151.24 46.42
  A 1.87 1.84 -45.6 0 1 152.24 46.40
  Q 154.97 47.07 157.76 46.70
  A 0.90 0.89 -5.8 0 0 158.54 45.75
  Q 158.06 38.97 158.51 32.50
  Q 158.60 31.19 157.29 31.24
  L 152.38 31.43
  Q 151.25 31.48 151.28 32.61
  L 151.51 40.54
  A 1.15 1.15 0.0 0 1 150.54 41.70
  L 150.13 41.76
  Z"
/>
<path fill="#ffffff" d="
  M 95.20 32.02
  A 0.55 0.55 0.0 0 0 96.13 32.43
  Q 98.46 30.18 101.94 31.47
  A 1.35 1.34 85.3 0 1 102.63 32.06
  Q 103.93 34.37 103.77 37.32
  Q 103.52 41.97 104.03 45.58
  Q 104.19 46.75 103.01 46.76
  L 97.81 46.79
  A 0.96 0.96 0.0 0 1 96.84 45.81
  L 97.02 37.81
  Q 97.04 36.93 96.18 36.76
  L 95.82 36.69
  Q 95.16 36.56 95.17 37.23
  L 95.24 45.81
  A 1.04 1.04 0.0 0 1 94.19 46.86
  L 89.85 46.82
  Q 88.88 46.81 88.89 45.85
  L 89.02 25.21
  Q 89.02 24.44 89.79 24.46
  L 94.36 24.59
  Q 95.35 24.62 95.33 25.61
  L 95.20 32.02
  Z"
/>
<path fill="#ffffff" d="
  M 133.10 31.57
  L 133.05 25.72
  Q 133.04 24.48 134.28 24.48
  L 138.42 24.50
  Q 139.83 24.50 139.80 25.91
  Q 139.60 35.72 139.82 44.41
  Q 139.84 45.10 139.99 45.82
  A 0.71 0.70 83.2 0 1 139.32 46.68
  L 127.69 46.97
  A 2.59 2.59 0.0 0 1 125.06 44.77
  Q 124.38 40.33 124.76 35.04
  C 124.94 32.54 127.20 31.00 129.50 31.05
  A 1.35 1.32 -30.5 0 1 130.03 31.18
  L 132.20 32.16
  Q 133.11 32.57 133.10 31.57
  Z
  M 133.1169 37.5392
  A 0.97 0.97 0.0 0 0 132.1554 36.5608
  L 131.9954 36.5594
  A 0.97 0.97 0.0 0 0 131.0170 37.5209
  L 130.9831 41.4008
  A 0.97 0.97 0.0 0 0 131.9446 42.3792
  L 132.1046 42.3806
  A 0.97 0.97 0.0 0 0 133.0830 41.4191
  L 133.1169 37.5392
  Z"
/>
<rect fill="#ffffff" x="-3.65" y="-11.11" transform="translate(164.91,35.65) rotate(-0.1)" width="7.30" height="22.22" rx="0.75"/>
<path fill="#ffffff" d="
  M 10.96 41.08
  Q 10.10 41.18 10.24 42.04
  L 10.80 45.49
  Q 11.00 46.73 9.75 46.75
  L 4.29 46.81
  Q 3.01 46.83 3.01 45.54
  L 3.01 26.76
  A 0.64 0.64 0.0 0 1 3.65 26.12
  C 8.27 26.09 13.47 25.73 18.03 26.89
  Q 18.55 27.02 18.85 27.47
  C 20.42 29.80 20.20 33.74 19.88 36.40
  C 19.21 42.02 14.82 40.62 10.96 41.08
  Z
  M 12.9560 32.1692
  A 1.04 1.04 0.0 0 0 11.9548 31.0918
  L 11.3952 31.0713
  A 1.04 1.04 0.0 0 0 10.3178 32.0725
  L 10.2240 34.6308
  A 1.04 1.04 0.0 0 0 11.2252 35.7082
  L 11.7848 35.7287
  A 1.04 1.04 0.0 0 0 12.8622 34.7275
  L 12.9560 32.1692
  Z"
/>
<path fill="#ffffff" d="
  M 61.54 32.02
  Q 61.78 32.91 62.72 33.14
  C 65.07 33.70 68.15 33.94 70.10 35.44
  Q 70.47 35.73 70.59 36.19
  C 71.62 40.41 71.70 46.92 65.57 47.04
  Q 60.68 47.13 55.93 46.75
  A 1.18 1.17 -85.2 0 1 54.85 45.47
  L 55.12 42.56
  Q 55.23 41.45 56.32 41.68
  Q 59.44 42.33 62.72 42.04
  A 1.11 1.10 -3.1 0 0 63.73 40.92
  Q 63.72 40.76 63.69 40.60
  Q 63.43 39.35 62.16 39.25
  L 55.95 38.73
  A 0.90 0.90 0.0 0 1 55.15 38.01
  C 54.72 35.77 54.06 30.08 55.70 28.13
  C 58.09 25.30 65.19 25.74 68.52 26.57
  A 2.13 2.13 0.0 0 1 70.13 28.60
  L 70.16 29.63
  Q 70.19 31.19 68.63 31.20
  L 62.10 31.27
  Q 61.34 31.28 61.54 32.02
  Z"
/>
<rect fill="#3056d3" x="-1.32" y="-2.32" transform="translate(11.59,33.40) rotate(2.1)" width="2.64" height="4.64" rx="1.04"/>
<path fill="#ffffff" d="
  M 30.40 32.56
  Q 31.88 31.25 33.76 31.13
  Q 34.56 31.08 34.59 31.88
  L 34.71 35.52
  A 1.17 1.17 0.0 0 1 33.52 36.73
  C 28.83 36.64 29.21 42.22 29.59 45.79
  Q 29.69 46.80 28.67 46.81
  L 23.77 46.82
  Q 22.96 46.83 22.96 46.02
  L 22.92 32.29
  Q 22.91 31.00 24.20 31.10
  L 27.48 31.34
  A 1.42 1.40 -18.8 0 1 28.43 31.80
  Q 28.92 32.34 29.55 32.67
  Q 30.01 32.91 30.40 32.56
  Z"
/>
<path fill="#ffffff" d="
  M 51.6933 43.0130
  A 4.04 4.04 0.0 0 1 47.6462 47.0459
  L 40.8462 47.0341
  A 4.04 4.04 0.0 0 1 36.8133 42.9870
  L 36.8267 35.2670
  A 4.04 4.04 0.0 0 1 40.8738 31.2341
  L 47.6738 31.2459
  A 4.04 4.04 0.0 0 1 51.7067 35.2930
  L 51.6933 43.0130
  Z
  M 45.0719 37.0662
  A 1.03 1.03 0.0 0 0 44.0383 36.0398
  L 43.9383 36.0402
  A 1.03 1.03 0.0 0 0 42.9119 37.0738
  L 42.9281 41.6938
  A 1.03 1.03 0.0 0 0 43.9617 42.7202
  L 44.0617 42.7198
  A 1.03 1.03 0.0 0 0 45.0881 41.6862
  L 45.0719 37.0662
  Z"
/>
<path fill="#ffffff" d="
  M 80.94 36.68
  Q 79.78 38.60 80.57 41.39
  A 1.78 1.77 83.8 0 0 82.18 42.69
  L 85.23 42.88
  A 0.68 0.67 -3.2 0 1 85.86 43.44
  L 86.19 45.44
  A 0.96 0.95 -11.0 0 1 85.46 46.52
  Q 80.86 47.56 75.97 46.58
  A 1.26 1.26 0.0 0 1 75.18 46.06
  C 73.40 43.47 73.61 40.02 73.72 36.89
  C 73.92 30.91 79.59 30.51 84.12 31.22
  Q 85.32 31.41 85.48 32.61
  Q 85.72 34.48 85.28 36.12
  Q 85.25 36.21 85.17 36.21
  L 81.68 36.26
  A 0.89 0.86 -73.6 0 0 80.94 36.68
  Z"
/>
<path fill="#ffffff" d="
  M 113.88 42.51
  Q 116.99 43.11 120.06 42.69
  Q 121.02 42.56 121.01 43.53
  L 120.97 45.87
  Q 120.96 46.76 120.07 46.84
  Q 116.12 47.19 111.84 46.97
  Q 107.09 46.73 106.83 42.47
  Q 106.63 39.30 106.80 35.67
  C 106.90 33.74 108.18 32.43 109.93 31.81
  C 112.53 30.89 120.68 30.05 121.12 34.32
  Q 121.40 36.97 121.50 39.83
  A 1.09 1.08 0.7 0 1 120.35 40.94
  Q 116.98 40.74 113.75 41.05
  Q 113.17 41.11 113.19 41.69
  Q 113.20 42.38 113.88 42.51
  Z
  M 114.2590 38.2000
  A 1.58 1.02 90.4 0 0 115.2900 36.6271
  A 1.58 1.02 90.4 0 0 114.2810 35.0400
  A 1.58 1.02 90.4 0 0 113.2500 36.6129
  A 1.58 1.02 90.4 0 0 114.2590 38.2000
  Z"
/>
<path fill="#ffffff" d="
  M 177.83 42.13
  C 179.00 43.07 182.28 42.81 183.80 42.78
  Q 185.52 42.74 185.53 44.46
  L 185.54 45.04
  Q 185.55 46.63 183.97 46.81
  Q 179.02 47.38 173.91 46.67
  Q 173.43 46.60 173.13 46.24
  C 170.85 43.55 170.76 39.04 171.34 35.78
  C 172.28 30.46 178.79 30.42 182.82 31.45
  A 4.08 4.08 0.0 0 1 185.84 34.75
  L 186.53 38.89
  Q 186.91 41.23 184.56 40.99
  Q 181.27 40.65 178.12 41.09
  A 0.59 0.59 0.0 0 0 177.83 42.13
  Z
  M 178.2491 37.7796
  A 1.41 1.07 121.7 0 0 179.9004 37.1423
  A 1.41 1.07 121.7 0 0 179.7309 35.3804
  A 1.41 1.07 121.7 0 0 178.0796 36.0177
  A 1.41 1.07 121.7 0 0 178.2491 37.7796
  Z"
/>
<path fill="#ffffff" d="
  M 150.13 41.76
  L 150.54 41.70
  A 1.15 1.15 0.0 0 0 151.51 40.54
  L 151.28 32.61
  Q 151.25 31.48 152.38 31.43
  L 157.29 31.24
  Q 158.60 31.19 158.51 32.50
  Q 158.06 38.97 158.54 45.75
  A 0.90 0.89 -5.8 0 1 157.76 46.70
  Q 154.97 47.07 152.24 46.40
  A 1.87 1.84 -45.6 0 0 151.24 46.42
  C 148.96 47.10 143.99 47.98 143.37 44.59
  C 142.65 40.67 142.91 35.90 143.15 32.05
  Q 143.20 31.22 144.04 31.23
  L 148.50 31.30
  Q 149.45 31.31 149.48 32.26
  L 149.70 41.40
  A 0.37 0.37 0.0 0 0 150.13 41.76
  Z"
/>
<ellipse fill="#3056d3" cx="0.00" cy="0.00" transform="translate(114.27,36.62) rotate(90.4)" rx="1.58" ry="1.02"/>
<ellipse fill="#3056d3" cx="0.00" cy="0.00" transform="translate(178.99,36.58) rotate(121.7)" rx="1.41" ry="1.07"/>
<rect fill="#3056d3" x="-1.08" y="-3.34" transform="translate(44.00,39.38) rotate(-0.2)" width="2.16" height="6.68" rx="1.03"/>
<rect fill="#3056d3" x="-1.05" y="-2.91" transform="translate(132.05,39.47) rotate(0.5)" width="2.10" height="5.82" rx="0.97"/>
</svg>
