<?xml version="1.0" encoding="UTF-8" standalone="no"?>
<!DOCTYPE svg PUBLIC "-//W3C//DTD SVG 1.1//EN" "http://www.w3.org/Graphics/SVG/1.1/DTD/svg11.dtd">
<svg xmlns="http://www.w3.org/2000/svg" version="1.1" viewBox="0.00 0.00 574.00 139.00">
<g stroke-width="2.00" fill="none" stroke-linecap="butt">
<path stroke="#ff8383" vector-effect="non-scaling-stroke" d="
  M 0.58 0.35
  Q -0.06 0.48 0.58 0.63
  Q 1.59 0.86 2.55 0.65
  Q 3.30 0.49 2.55 0.35
  Q 1.57 0.15 0.58 0.35"
/>
<path stroke="#ff8383" vector-effect="non-scaling-stroke" d="
  M 163.22 76.76
  L 163.22 44.98
  Q 163.22 44.74 162.98 44.74
  L 157.01 44.72
  Q 156.75 44.72 156.75 44.99
  L 156.75 98.75
  Q 156.75 99.00 157.00 99.00
  L 162.98 98.99
  Q 163.22 98.99 163.22 98.74
  L 163.22 86.12
  Q 163.22 85.60 163.57 85.24
  L 167.14 81.52
  A 0.27 0.27 0.0 0 1 167.56 81.55
  L 180.44 98.79
  Q 180.58 98.98 180.82 98.99
  Q 184.41 99.10 187.99 98.89
  A 0.05 0.04 68.8 0 0 188.02 98.82
  Q 179.71 87.76 171.80 77.09
  A 0.42 0.42 0.0 0 1 171.83 76.55
  Q 178.96 68.98 186.31 61.14
  A 0.04 0.04 0.0 0 0 186.28 61.07
  Q 182.71 60.96 178.76 61.02
  Q 178.53 61.02 178.37 61.19
  L 163.69 76.94
  Q 163.22 77.45 163.22 76.76"
/>
<path stroke="#ff8383" vector-effect="non-scaling-stroke" d="
  M 314.32 95.50
  L 314.51 98.16
  Q 314.57 99.00 315.41 99.00
  L 319.58 99.00
  Q 320.41 99.00 320.41 98.17
  L 320.41 44.95
  Q 320.41 44.75 320.20 44.74
  L 314.25 44.73
  A 0.27 0.26 -89.0 0 0 313.98 45.00
  L 313.97 64.21
  Q 313.97 65.13 313.34 64.47
  C 308.15 59.10 298.55 59.28 293.51 64.69
  C 288.50 70.07 287.73 78.06 288.84 85.24
  C 289.72 90.91 293.44 97.27 299.22 98.82
  Q 307.73 101.10 313.69 95.26
  Q 314.26 94.69 314.32 95.50"
/>
<path stroke="#ff8383" vector-effect="non-scaling-stroke" d="
  M 69.81 88.94
  C 69.31 87.61 69.30 86.19 68.94 84.84
  Q 64.10 66.81 58.83 47.59
  A 0.80 0.80 0.0 0 0 58.06 47.00
  L 53.67 47.00
  Q 53.08 47.00 52.92 47.57
  L 41.54 88.60
  Q 41.38 89.17 41.31 88.59
  Q 40.81 84.39 39.98 80.69
  Q 36.24 63.97 32.38 47.27
  Q 32.32 46.99 32.03 46.99
  L 25.89 47.02
  A 0.15 0.15 0.0 0 0 25.74 47.21
  L 37.98 98.44
  Q 38.11 99.00 38.70 99.00
  L 43.48 99.00
  Q 44.18 99.00 44.37 98.33
  L 55.95 57.91
  Q 56.01 57.71 56.06 57.91
  Q 61.44 78.16 67.23 98.42
  Q 67.39 99.00 68.00 99.00
  L 72.69 99.00
  Q 73.40 99.00 73.57 98.31
  L 85.72 47.21
  Q 85.77 47.03 85.58 47.03
  L 79.31 46.99
  Q 79.10 46.99 79.06 47.19
  Q 75.23 64.37 71.38 81.72
  C 70.85 84.09 70.62 86.55 70.28 88.88
  Q 70.14 89.81 69.81 88.94"
/>
<path stroke="#ff8383" vector-effect="non-scaling-stroke" d="
  M 356.52 93.50
  A 0.30 0.30 0.0 0 1 356.22 93.20
  L 356.20 75.30
  A 0.30 0.30 0.0 0 1 356.50 75.00
  L 377.98 75.00
  A 0.30 0.30 0.0 0 0 378.28 74.70
  L 378.29 69.80
  A 0.30 0.30 0.0 0 0 377.99 69.50
  L 356.52 69.50
  A 0.30 0.30 0.0 0 1 356.22 69.20
  L 356.21 52.80
  A 0.30 0.30 0.0 0 1 356.51 52.50
  L 381.23 52.51
  A 0.30 0.30 0.0 0 0 381.53 52.21
  L 381.50 47.30
  A 0.30 0.30 0.0 0 0 381.20 47.00
  L 349.80 47.00
  A 0.30 0.30 0.0 0 0 349.50 47.30
  L 349.50 98.70
  A 0.30 0.30 0.0 0 0 349.80 99.00
  L 381.65 98.99
  A 0.30 0.30 0.0 0 0 381.95 98.69
  L 381.97 93.80
  A 0.30 0.30 0.0 0 0 381.67 93.50
  L 356.52 93.50"
/>
<path stroke="#ff8383" vector-effect="non-scaling-stroke" d="
  M 122.14 89.69
  C 127.19 78.43 122.83 62.09 108.86 60.67
  C 96.53 59.42 89.50 68.56 89.52 80.12
  Q 89.53 86.62 92.30 91.35
  C 99.07 102.94 116.58 102.09 122.14 89.69"
/>
<path stroke="#ff8383" vector-effect="non-scaling-stroke" d="
  M 138.52 64.97
  L 138.51 62.00
  Q 138.50 61.00 137.50 61.00
  L 133.25 61.00
  Q 132.25 61.00 132.25 62.00
  L 132.25 98.50
  Q 132.25 99.00 132.75 99.00
  L 138.26 99.00
  A 0.41 0.40 90.0 0 0 138.66 98.59
  Q 138.69 86.00 138.66 73.41
  Q 138.66 71.61 139.85 70.11
  C 142.21 67.14 146.01 66.24 149.94 66.98
  A 0.47 0.47 0.0 0 0 150.50 66.52
  L 150.50 61.46
  Q 150.50 60.87 149.92 60.77
  Q 142.92 59.61 138.98 65.12
  Q 138.52 65.77 138.52 64.97"
/>
<path stroke="#ff8383" vector-effect="non-scaling-stroke" d="
  M 232.71 75.38
  C 224.75 75.06 212.10 75.15 210.13 85.39
  C 208.56 93.53 214.54 99.36 222.55 99.43
  Q 228.52 99.49 233.09 95.05
  A 0.34 0.33 -26.1 0 1 233.66 95.24
  L 234.03 97.84
  A 1.05 1.04 -3.7 0 0 235.07 98.74
  L 240.52 98.74
  Q 241.43 98.74 241.09 97.90
  Q 239.90 94.97 239.86 90.98
  Q 239.79 83.23 239.87 74.51
  C 239.91 68.90 238.43 64.20 232.91 61.97
  C 225.01 58.76 213.47 60.84 210.69 70.13
  Q 210.36 71.23 211.52 71.23
  L 215.83 71.22
  Q 217.12 71.22 217.41 69.97
  C 218.19 66.62 223.51 65.40 226.67 65.79
  Q 234.35 66.74 233.48 74.71
  Q 233.41 75.40 232.71 75.38"
/>
<path stroke="#ff8383" vector-effect="non-scaling-stroke" d="
  M 256.46 65.21
  L 256.35 61.79
  Q 256.32 61.00 255.54 61.00
  L 251.25 61.00
  Q 250.25 61.00 250.25 62.00
  L 250.25 98.62
  Q 250.25 98.99 250.62 98.99
  L 256.25 99.00
  A 0.41 0.41 0.0 0 0 256.66 98.59
  Q 256.70 85.95 256.65 73.40
  Q 256.64 71.68 257.75 70.24
  Q 261.44 65.46 267.37 66.05
  C 272.09 66.52 273.59 69.75 273.63 74.26
  Q 273.74 86.91 273.64 98.63
  A 0.37 0.37 0.0 0 0 274.01 99.00
  L 279.71 99.00
  Q 280.12 99.00 280.12 98.59
  Q 280.06 86.09 280.10 74.08
  C 280.11 69.64 279.07 64.44 274.75 62.22
  C 268.91 59.23 261.48 60.25 257.11 65.44
  Q 256.49 66.19 256.46 65.21"
/>
<path stroke="#ff8383" vector-effect="non-scaling-stroke" d="
  M 395.45 65.20
  L 395.34 61.78
  Q 395.32 61.00 394.53 61.00
  L 390.25 61.00
  Q 389.25 61.00 389.25 62.00
  L 389.25 98.50
  Q 389.25 99.00 389.75 99.00
  L 395.21 99.00
  Q 395.66 99.00 395.66 98.54
  Q 395.70 86.99 395.65 73.32
  C 395.64 69.68 400.18 66.65 403.14 66.19
  C 412.21 64.77 412.90 71.05 412.75 78.20
  Q 412.54 88.00 412.71 98.71
  Q 412.71 99.00 413.00 99.00
  L 418.75 99.00
  Q 419.11 99.00 419.11 98.64
  Q 419.06 86.93 419.11 74.40
  Q 419.12 70.92 418.17 67.72
  C 416.12 60.75 407.90 59.46 401.78 61.45
  C 399.52 62.18 397.69 63.73 396.08 65.44
  Q 395.48 66.09 395.45 65.20"
/>
<path stroke="#ff8383" vector-effect="non-scaling-stroke" d="
  M 434.71 81.26
  L 459.07 81.27
  Q 459.66 81.27 459.71 80.68
  C 460.41 71.19 456.52 61.12 445.52 60.59
  C 435.94 60.14 429.01 67.00 427.85 76.22
  C 426.15 89.70 432.41 100.64 447.69 99.27
  Q 454.26 98.68 458.99 92.42
  Q 459.24 92.08 458.92 91.82
  L 455.73 89.25
  Q 455.31 88.90 454.97 89.34
  Q 450.64 95.01 443.65 94.04
  C 437.53 93.19 434.34 87.64 434.06 81.94
  Q 434.03 81.26 434.71 81.26"
/>
<path stroke="#ff8383" vector-effect="non-scaling-stroke" d="
  M 473.52 64.96
  L 473.51 61.75
  Q 473.50 61.00 472.75 61.00
  L 468.13 61.00
  Q 467.25 61.00 467.25 61.87
  L 467.25 98.62
  Q 467.25 98.99 467.62 98.99
  L 473.25 99.00
  A 0.42 0.42 0.0 0 0 473.67 98.58
  Q 473.69 86.00 473.66 73.46
  C 473.65 68.03 480.42 66.13 484.92 66.97
  Q 485.50 67.08 485.50 66.48
  L 485.50 61.45
  Q 485.50 60.87 484.93 60.77
  Q 477.91 59.62 473.99 65.11
  Q 473.52 65.77 473.52 64.96"
/>
<path stroke="#ff8383" vector-effect="non-scaling-stroke" d="
  M 514.85 64.98
  C 514.30 64.45 513.75 63.74 513.14 63.30
  C 505.70 58.00 495.55 60.30 491.63 69.02
  C 487.81 77.53 488.36 95.06 499.93 98.76
  C 504.84 100.33 510.91 99.32 514.51 95.32
  A 0.23 0.22 63.0 0 1 514.90 95.45
  C 515.70 102.62 513.24 110.16 504.48 109.67
  Q 498.78 109.35 494.81 104.07
  Q 494.68 103.89 494.55 104.06
  L 491.55 108.01
  A 0.37 0.36 -44.3 0 0 491.54 108.45
  C 494.78 113.03 500.87 115.02 506.19 114.92
  C 514.94 114.75 521.36 108.72 521.41 99.79
  Q 521.50 81.12 521.46 61.93
  Q 521.46 61.00 520.53 61.00
  L 516.29 61.00
  Q 515.58 61.00 515.56 61.71
  L 515.47 64.73
  Q 515.44 65.54 514.85 64.98"
/>
<path stroke="#ff8383" vector-effect="non-scaling-stroke" d="
  M 543.50 88.74
  L 534.39 61.23
  Q 534.31 60.99 534.06 60.99
  L 527.61 61.02
  A 0.19 0.18 79.9 0 0 527.44 61.27
  L 540.65 98.37
  Q 540.88 99.02 540.67 99.68
  C 538.84 105.32 537.32 110.15 529.71 109.18
  Q 529.52 109.15 529.52 109.34
  L 529.53 114.03
  Q 529.53 114.35 529.84 114.44
  C 536.88 116.49 542.02 112.17 544.18 105.93
  Q 551.81 83.90 559.54 61.23
  A 0.16 0.16 0.0 0 0 559.40 61.02
  L 553.03 60.99
  Q 552.79 60.99 552.72 61.22
  L 544.29 88.74
  Q 543.91 89.99 543.50 88.74"
/>
<path stroke="#ff8383" vector-effect="non-scaling-stroke" d="
  M 307.00 66.17
  C 295.12 64.43 293.53 77.82 295.61 86.03
  Q 298.02 95.56 307.84 93.60
  C 310.53 93.06 314.07 90.20 314.02 87.01
  Q 313.92 79.70 314.01 72.62
  C 314.05 69.19 309.91 66.59 307.00 66.17"
/>
<path stroke="#ff8383" vector-effect="non-scaling-stroke" d="
  M 97.09 73.10
  C 94.27 81.53 96.43 96.19 109.02 93.91
  C 120.29 91.87 120.47 69.16 109.99 66.29
  C 104.16 64.69 99.06 67.18 97.09 73.10"
/>
<path stroke="#ff8383" vector-effect="non-scaling-stroke" d="
  M 221.96 93.64
  Q 227.94 94.62 232.24 89.79
  C 234.29 87.50 233.36 83.53 233.54 80.72
  Q 233.58 80.10 232.96 80.06
  C 226.85 79.66 215.64 79.13 216.42 87.81
  Q 216.87 92.80 221.96 93.64"
/>
<path stroke="#ff8383" vector-effect="non-scaling-stroke" d="
  M 434.75 76.06
  L 453.21 75.94
  A 0.21 0.21 0.0 0 0 453.41 75.72
  L 453.41 75.25
  A 9.46 9.43 89.6 0 0 443.91 65.86
  L 443.89 65.86
  A 9.46 9.43 89.6 0 0 434.53 75.39
  L 434.53 75.86
  A 0.21 0.21 0.0 0 0 434.75 76.06"
/>
<path stroke="#ff8383" vector-effect="non-scaling-stroke" d="
  M 496.98 72.89
  C 494.71 80.17 495.20 94.32 506.36 93.97
  C 510.14 93.85 515.10 91.28 515.04 86.96
  Q 514.94 79.70 515.03 72.82
  C 515.08 68.98 510.50 66.30 507.23 66.03
  Q 499.33 65.38 496.98 72.89"
/>
</g>
<path fill="#fff5f5" d="
  M 0.00 0.00
  L 574.00 0.00
  L 574.00 139.00
  L 0.00 139.00
  L 0.00 0.00
  Z
  M 0.58 0.35
  Q -0.06 0.48 0.58 0.63
  Q 1.59 0.86 2.55 0.65
  Q 3.30 0.49 2.55 0.35
  Q 1.57 0.15 0.58 0.35
  Z
  M 163.22 76.76
  L 163.22 44.98
  Q 163.22 44.74 162.98 44.74
  L 157.01 44.72
  Q 156.75 44.72 156.75 44.99
  L 156.75 98.75
  Q 156.75 99.00 157.00 99.00
  L 162.98 98.99
  Q 163.22 98.99 163.22 98.74
  L 163.22 86.12
  Q 163.22 85.60 163.57 85.24
  L 167.14 81.52
  A 0.27 0.27 0.0 0 1 167.56 81.55
  L 180.44 98.79
  Q 180.58 98.98 180.82 98.99
  Q 184.41 99.10 187.99 98.89
  A 0.05 0.04 68.8 0 0 188.02 98.82
  Q 179.71 87.76 171.80 77.09
  A 0.42 0.42 0.0 0 1 171.83 76.55
  Q 178.96 68.98 186.31 61.14
  A 0.04 0.04 0.0 0 0 186.28 61.07
  Q 182.71 60.96 178.76 61.02
  Q 178.53 61.02 178.37 61.19
  L 163.69 76.94
  Q 163.22 77.45 163.22 76.76
  Z
  M 314.32 95.50
  L 314.51 98.16
  Q 314.57 99.00 315.41 99.00
  L 319.58 99.00
  Q 320.41 99.00 320.41 98.17
  L 320.41 44.95
  Q 320.41 44.75 320.20 44.74
  L 314.25 44.73
  A 0.27 0.26 -89.0 0 0 313.98 45.00
  L 313.97 64.21
  Q 313.97 65.13 313.34 64.47
  C 308.15 59.10 298.55 59.28 293.51 64.69
  C 288.50 70.07 287.73 78.06 288.84 85.24
  C 289.72 90.91 293.44 97.27 299.22 98.82
  Q 307.73 101.10 313.69 95.26
  Q 314.26 94.69 314.32 95.50
  Z
  M 69.81 88.94
  C 69.31 87.61 69.30 86.19 68.94 84.84
  Q 64.10 66.81 58.83 47.59
  A 0.80 0.80 0.0 0 0 58.06 47.00
  L 53.67 47.00
  Q 53.08 47.00 52.92 47.57
  L 41.54 88.60
  Q 41.38 89.17 41.31 88.59
  Q 40.81 84.39 39.98 80.69
  Q 36.24 63.97 32.38 47.27
  Q 32.32 46.99 32.03 46.99
  L 25.89 47.02
  A 0.15 0.15 0.0 0 0 25.74 47.21
  L 37.98 98.44
  Q 38.11 99.00 38.70 99.00
  L 43.48 99.00
  Q 44.18 99.00 44.37 98.33
  L 55.95 57.91
  Q 56.01 57.71 56.06 57.91
  Q 61.44 78.16 67.23 98.42
  Q 67.39 99.00 68.00 99.00
  L 72.69 99.00
  Q 73.40 99.00 73.57 98.31
  L 85.72 47.21
  Q 85.77 47.03 85.58 47.03
  L 79.31 46.99
  Q 79.10 46.99 79.06 47.19
  Q 75.23 64.37 71.38 81.72
  C 70.85 84.09 70.62 86.55 70.28 88.88
  Q 70.14 89.81 69.81 88.94
  Z
  M 356.52 93.50
  A 0.30 0.30 0.0 0 1 356.22 93.20
  L 356.20 75.30
  A 0.30 0.30 0.0 0 1 356.50 75.00
  L 377.98 75.00
  A 0.30 0.30 0.0 0 0 378.28 74.70
  L 378.29 69.80
  A 0.30 0.30 0.0 0 0 377.99 69.50
  L 356.52 69.50
  A 0.30 0.30 0.0 0 1 356.22 69.20
  L 356.21 52.80
  A 0.30 0.30 0.0 0 1 356.51 52.50
  L 381.23 52.51
  A 0.30 0.30 0.0 0 0 381.53 52.21
  L 381.50 47.30
  A 0.30 0.30 0.0 0 0 381.20 47.00
  L 349.80 47.00
  A 0.30 0.30 0.0 0 0 349.50 47.30
  L 349.50 98.70
  A 0.30 0.30 0.0 0 0 349.80 99.00
  L 381.65 98.99
  A 0.30 0.30 0.0 0 0 381.95 98.69
  L 381.97 93.80
  A 0.30 0.30 0.0 0 0 381.67 93.50
  L 356.52 93.50
  Z
  M 122.14 89.69
  C 127.19 78.43 122.83 62.09 108.86 60.67
  C 96.53 59.42 89.50 68.56 89.52 80.12
  Q 89.53 86.62 92.30 91.35
  C 99.07 102.94 116.58 102.09 122.14 89.69
  Z
  M 138.52 64.97
  L 138.51 62.00
  Q 138.50 61.00 137.50 61.00
  L 133.25 61.00
  Q 132.25 61.00 132.25 62.00
  L 132.25 98.50
  Q 132.25 99.00 132.75 99.00
  L 138.26 99.00
  A 0.41 0.40 90.0 0 0 138.66 98.59
  Q 138.69 86.00 138.66 73.41
  Q 138.66 71.61 139.85 70.11
  C 142.21 67.14 146.01 66.24 149.94 66.98
  A 0.47 0.47 0.0 0 0 150.50 66.52
  L 150.50 61.46
  Q 150.50 60.87 149.92 60.77
  Q 142.92 59.61 138.98 65.12
  Q 138.52 65.77 138.52 64.97
  Z
  M 232.71 75.38
  C 224.75 75.06 212.10 75.15 210.13 85.39
  C 208.56 93.53 214.54 99.36 222.55 99.43
  Q 228.52 99.49 233.09 95.05
  A 0.34 0.33 -26.1 0 1 233.66 95.24
  L 234.03 97.84
  A 1.05 1.04 -3.7 0 0 235.07 98.74
  L 240.52 98.74
  Q 241.43 98.74 241.09 97.90
  Q 239.90 94.97 239.86 90.98
  Q 239.79 83.23 239.87 74.51
  C 239.91 68.90 238.43 64.20 232.91 61.97
  C 225.01 58.76 213.47 60.84 210.69 70.13
  Q 210.36 71.23 211.52 71.23
  L 215.83 71.22
  Q 217.12 71.22 217.41 69.97
  C 218.19 66.62 223.51 65.40 226.67 65.79
  Q 234.35 66.74 233.48 74.71
  Q 233.41 75.40 232.71 75.38
  Z
  M 256.46 65.21
  L 256.35 61.79
  Q 256.32 61.00 255.54 61.00
  L 251.25 61.00
  Q 250.25 61.00 250.25 62.00
  L 250.25 98.62
  Q 250.25 98.99 250.62 98.99
  L 256.25 99.00
  A 0.41 0.41 0.0 0 0 256.66 98.59
  Q 256.70 85.95 256.65 73.40
  Q 256.64 71.68 257.75 70.24
  Q 261.44 65.46 267.37 66.05
  C 272.09 66.52 273.59 69.75 273.63 74.26
  Q 273.74 86.91 273.64 98.63
  A 0.37 0.37 0.0 0 0 274.01 99.00
  L 279.71 99.00
  Q 280.12 99.00 280.12 98.59
  Q 280.06 86.09 280.10 74.08
  C 280.11 69.64 279.07 64.44 274.75 62.22
  C 268.91 59.23 261.48 60.25 257.11 65.44
  Q 256.49 66.19 256.46 65.21
  Z
  M 395.45 65.20
  L 395.34 61.78
  Q 395.32 61.00 394.53 61.00
  L 390.25 61.00
  Q 389.25 61.00 389.25 62.00
  L 389.25 98.50
  Q 389.25 99.00 389.75 99.00
  L 395.21 99.00
  Q 395.66 99.00 395.66 98.54
  Q 395.70 86.99 395.65 73.32
  C 395.64 69.68 400.18 66.65 403.14 66.19
  C 412.21 64.77 412.90 71.05 412.75 78.20
  Q 412.54 88.00 412.71 98.71
  Q 412.71 99.00 413.00 99.00
  L 418.75 99.00
  Q 419.11 99.00 419.11 98.64
  Q 419.06 86.93 419.11 74.40
  Q 419.12 70.92 418.17 67.72
  C 416.12 60.75 407.90 59.46 401.78 61.45
  C 399.52 62.18 397.69 63.73 396.08 65.44
  Q 395.48 66.09 395.45 65.20
  Z
  M 434.71 81.26
  L 459.07 81.27
  Q 459.66 81.27 459.71 80.68
  C 460.41 71.19 456.52 61.12 445.52 60.59
  C 435.94 60.14 429.01 67.00 427.85 76.22
  C 426.15 89.70 432.41 100.64 447.69 99.27
  Q 454.26 98.68 458.99 92.42
  Q 459.24 92.08 458.92 91.82
  L 455.73 89.25
  Q 455.31 88.90 454.97 89.34
  Q 450.64 95.01 443.65 94.04
  C 437.53 93.19 434.34 87.64 434.06 81.94
  Q 434.03 81.26 434.71 81.26
  Z
  M 473.52 64.96
  L 473.51 61.75
  Q 473.50 61.00 472.75 61.00
  L 468.13 61.00
  Q 467.25 61.00 467.25 61.87
  L 467.25 98.62
  Q 467.25 98.99 467.62 98.99
  L 473.25 99.00
  A 0.42 0.42 0.0 0 0 473.67 98.58
  Q 473.69 86.00 473.66 73.46
  C 473.65 68.03 480.42 66.13 484.92 66.97
  Q 485.50 67.08 485.50 66.48
  L 485.50 61.45
  Q 485.50 60.87 484.93 60.77
  Q 477.91 59.62 473.99 65.11
  Q 473.52 65.77 473.52 64.96
  Z
  M 514.85 64.98
  C 514.30 64.45 513.75 63.74 513.14 63.30
  C 505.70 58.00 495.55 60.30 491.63 69.02
  C 487.81 77.53 488.36 95.06 499.93 98.76
  C 504.84 100.33 510.91 99.32 514.51 95.32
  A 0.23 0.22 63.0 0 1 514.90 95.45
  C 515.70 102.62 513.24 110.16 504.48 109.67
  Q 498.78 109.35 494.81 104.07
  Q 494.68 103.89 494.55 104.06
  L 491.55 108.01
  A 0.37 0.36 -44.3 0 0 491.54 108.45
  C 494.78 113.03 500.87 115.02 506.19 114.92
  C 514.94 114.75 521.36 108.72 521.41 99.79
  Q 521.50 81.12 521.46 61.93
  Q 521.46 61.00 520.53 61.00
  L 516.29 61.00
  Q 515.58 61.00 515.56 61.71
  L 515.47 64.73
  Q 515.44 65.54 514.85 64.98
  Z
  M 543.50 88.74
  L 534.39 61.23
  Q 534.31 60.99 534.06 60.99
  L 527.61 61.02
  A 0.19 0.18 79.9 0 0 527.44 61.27
  L 540.65 98.37
  Q 540.88 99.02 540.67 99.68
  C 538.84 105.32 537.32 110.15 529.71 109.18
  Q 529.52 109.15 529.52 109.34
  L 529.53 114.03
  Q 529.53 114.35 529.84 114.44
  C 536.88 116.49 542.02 112.17 544.18 105.93
  Q 551.81 83.90 559.54 61.23
  A 0.16 0.16 0.0 0 0 559.40 61.02
  L 553.03 60.99
  Q 552.79 60.99 552.72 61.22
  L 544.29 88.74
  Q 543.91 89.99 543.50 88.74
  Z"
/>
<path fill="#ff1111" d="
  M 0.58 0.35
  Q 1.57 0.15 2.55 0.35
  Q 3.30 0.49 2.55 0.65
  Q 1.59 0.86 0.58 0.63
  Q -0.06 0.48 0.58 0.35
  Z"
/>
<path fill="#ff1111" d="
  M 163.69 76.94
  L 178.37 61.19
  Q 178.53 61.02 178.76 61.02
  Q 182.71 60.96 186.28 61.07
  A 0.04 0.04 0.0 0 1 186.31 61.14
  Q 178.96 68.98 171.83 76.55
  A 0.42 0.42 0.0 0 0 171.80 77.09
  Q 179.71 87.76 188.02 98.82
  A 0.05 0.04 68.8 0 1 187.99 98.89
  Q 184.41 99.10 180.82 98.99
  Q 180.58 98.98 180.44 98.79
  L 167.56 81.55
  A 0.27 0.27 0.0 0 0 167.14 81.52
  L 163.57 85.24
  Q 163.22 85.60 163.22 86.12
  L 163.22 98.74
  Q 163.22 98.99 162.98 98.99
  L 157.00 99.00
  Q 156.75 99.00 156.75 98.75
  L 156.75 44.99
  Q 156.75 44.72 157.01 44.72
  L 162.98 44.74
  Q 163.22 44.74 163.22 44.98
  L 163.22 76.76
  Q 163.22 77.45 163.69 76.94
  Z"
/>
<path fill="#ff1111" d="
  M 313.69 95.26
  Q 307.73 101.10 299.22 98.82
  C 293.44 97.27 289.72 90.91 288.84 85.24
  C 287.73 78.06 288.50 70.07 293.51 64.69
  C 298.55 59.28 308.15 59.10 313.34 64.47
  Q 313.97 65.13 313.97 64.21
  L 313.98 45.00
  A 0.27 0.26 -89.0 0 1 314.25 44.73
  L 320.20 44.74
  Q 320.41 44.75 320.41 44.95
  L 320.41 98.17
  Q 320.41 99.00 319.58 99.00
  L 315.41 99.00
  Q 314.57 99.00 314.51 98.16
  L 314.32 95.50
  Q 314.26 94.69 313.69 95.26
  Z
  M 307.00 66.17
  C 295.12 64.43 293.53 77.82 295.61 86.03
  Q 298.02 95.56 307.84 93.60
  C 310.53 93.06 314.07 90.20 314.02 87.01
  Q 313.92 79.70 314.01 72.62
  C 314.05 69.19 309.91 66.59 307.00 66.17
  Z"
/>
<path fill="#ff1111" d="
  M 70.28 88.88
  C 70.62 86.55 70.85 84.09 71.38 81.72
  Q 75.23 64.37 79.06 47.19
  Q 79.10 46.99 79.31 46.99
  L 85.58 47.03
  Q 85.77 47.03 85.72 47.21
  L 73.57 98.31
  Q 73.40 99.00 72.69 99.00
  L 68.00 99.00
  Q 67.39 99.00 67.23 98.42
  Q 61.44 78.16 56.06 57.91
  Q 56.01 57.71 55.95 57.91
  L 44.37 98.33
  Q 44.18 99.00 43.48 99.00
  L 38.70 99.00
  Q 38.11 99.00 37.98 98.44
  L 25.74 47.21
  A 0.15 0.15 0.0 0 1 25.89 47.02
  L 32.03 46.99
  Q 32.32 46.99 32.38 47.27
  Q 36.24 63.97 39.98 80.69
  Q 40.81 84.39 41.31 88.59
  Q 41.38 89.17 41.54 88.60
  L 52.92 47.57
  Q 53.08 47.00 53.67 47.00
  L 58.06 47.00
  A 0.80 0.80 0.0 0 1 58.83 47.59
  Q 64.10 66.81 68.94 84.84
  C 69.30 86.19 69.31 87.61 69.81 88.94
  Q 70.14 89.81 70.28 88.88
  Z"
/>
<path fill="#ff1111" d="
  M 356.52 93.50
  L 381.67 93.50
  A 0.30 0.30 0.0 0 1 381.97 93.80
  L 381.95 98.69
  A 0.30 0.30 0.0 0 1 381.65 98.99
  L 349.80 99.00
  A 0.30 0.30 0.0 0 1 349.50 98.70
  L 349.50 47.30
  A 0.30 0.30 0.0 0 1 349.80 47.00
  L 381.20 47.00
  A 0.30 0.30 0.0 0 1 381.50 47.30
  L 381.53 52.21
  A 0.30 0.30 0.0 0 1 381.23 52.51
  L 356.51 52.50
  A 0.30 0.30 0.0 0 0 356.21 52.80
  L 356.22 69.20
  A 0.30 0.30 0.0 0 0 356.52 69.50
  L 377.99 69.50
  A 0.30 0.30 0.0 0 1 378.29 69.80
  L 378.28 74.70
  A 0.30 0.30 0.0 0 1 377.98 75.00
  L 356.50 75.00
  A 0.30 0.30 0.0 0 0 356.20 75.30
  L 356.22 93.20
  A 0.30 0.30 0.0 0 0 356.52 93.50
  Z"
/>
<path fill="#ff1111" d="
  M 122.14 89.69
  C 116.58 102.09 99.07 102.94 92.30 91.35
  Q 89.53 86.62 89.52 80.12
  C 89.50 68.56 96.53 59.42 108.86 60.67
  C 122.83 62.09 127.19 78.43 122.14 89.69
  Z
  M 97.09 73.10
  C 94.27 81.53 96.43 96.19 109.02 93.91
  C 120.29 91.87 120.47 69.16 109.99 66.29
  C 104.16 64.69 99.06 67.18 97.09 73.10
  Z"
/>
<path fill="#ff1111" d="
  M 138.98 65.12
  Q 142.92 59.61 149.92 60.77
  Q 150.50 60.87 150.50 61.46
  L 150.50 66.52
  A 0.47 0.47 0.0 0 1 149.94 66.98
  C 146.01 66.24 142.21 67.14 139.85 70.11
  Q 138.66 71.61 138.66 73.41
  Q 138.69 86.00 138.66 98.59
  A 0.41 0.40 90.0 0 1 138.26 99.00
  L 132.75 99.00
  Q 132.25 99.00 132.25 98.50
  L 132.25 62.00
  Q 132.25 61.00 133.25 61.00
  L 137.50 61.00
  Q 138.50 61.00 138.51 62.00
  L 138.52 64.97
  Q 138.52 65.77 138.98 65.12
  Z"
/>
<path fill="#ff1111" d="
  M 233.48 74.71
  Q 234.35 66.74 226.67 65.79
  C 223.51 65.40 218.19 66.62 217.41 69.97
  Q 217.12 71.22 215.83 71.22
  L 211.52 71.23
  Q 210.36 71.23 210.69 70.13
  C 213.47 60.84 225.01 58.76 232.91 61.97
  C 238.43 64.20 239.91 68.90 239.87 74.51
  Q 239.79 83.23 239.86 90.98
  Q 239.90 94.97 241.09 97.90
  Q 241.43 98.74 240.52 98.74
  L 235.07 98.74
  A 1.05 1.04 -3.7 0 1 234.03 97.84
  L 233.66 95.24
  A 0.34 0.33 -26.1 0 0 233.09 95.05
  Q 228.52 99.49 222.55 99.43
  C 214.54 99.36 208.56 93.53 210.13 85.39
  C 212.10 75.15 224.75 75.06 232.71 75.38
  Q 233.41 75.40 233.48 74.71
  Z
  M 221.96 93.64
  Q 227.94 94.62 232.24 89.79
  C 234.29 87.50 233.36 83.53 233.54 80.72
  Q 233.58 80.10 232.96 80.06
  C 226.85 79.66 215.64 79.13 216.42 87.81
  Q 216.87 92.80 221.96 93.64
  Z"
/>
<path fill="#ff1111" d="
  M 257.11 65.44
  C 261.48 60.25 268.91 59.23 274.75 62.22
  C 279.07 64.44 280.11 69.64 280.10 74.08
  Q 280.06 86.09 280.12 98.59
  Q 280.12 99.00 279.71 99.00
  L 274.01 99.00
  A 0.37 0.37 0.0 0 1 273.64 98.63
  Q 273.74 86.91 273.63 74.26
  C 273.59 69.75 272.09 66.52 267.37 66.05
  Q 261.44 65.46 257.75 70.24
  Q 256.64 71.68 256.65 73.40
  Q 256.70 85.95 256.66 98.59
  A 0.41 0.41 0.0 0 1 256.25 99.00
  L 250.62 98.99
  Q 250.25 98.99 250.25 98.62
  L 250.25 62.00
  Q 250.25 61.00 251.25 61.00
  L 255.54 61.00
  Q 256.32 61.00 256.35 61.79
  L 256.46 65.21
  Q 256.49 66.19 257.11 65.44
  Z"
/>
<path fill="#ff1111" d="
  M 396.08 65.44
  C 397.69 63.73 399.52 62.18 401.78 61.45
  C 407.90 59.46 416.12 60.75 418.17 67.72
  Q 419.12 70.92 419.11 74.40
  Q 419.06 86.93 419.11 98.64
  Q 419.11 99.00 418.75 99.00
  L 413.00 99.00
  Q 412.71 99.00 412.71 98.71
  Q 412.54 88.00 412.75 78.20
  C 412.90 71.05 412.21 64.77 403.14 66.19
  C 400.18 66.65 395.64 69.68 395.65 73.32
  Q 395.70 86.99 395.66 98.54
  Q 395.66 99.00 395.21 99.00
  L 389.75 99.00
  Q 389.25 99.00 389.25 98.50
  L 389.25 62.00
  Q 389.25 61.00 390.25 61.00
  L 394.53 61.00
  Q 395.32 61.00 395.34 61.78
  L 395.45 65.20
  Q 395.48 66.09 396.08 65.44
  Z"
/>
<path fill="#ff1111" d="
  M 434.06 81.94
  C 434.34 87.64 437.53 93.19 443.65 94.04
  Q 450.64 95.01 454.97 89.34
  Q 455.31 88.90 455.73 89.25
  L 458.92 91.82
  Q 459.24 92.08 458.99 92.42
  Q 454.26 98.68 447.69 99.27
  C 432.41 100.64 426.15 89.70 427.85 76.22
  C 429.01 67.00 435.94 60.14 445.52 60.59
  C 456.52 61.12 460.41 71.19 459.71 80.68
  Q 459.66 81.27 459.07 81.27
  L 434.71 81.26
  Q 434.03 81.26 434.06 81.94
  Z
  M 434.75 76.06
  L 453.21 75.94
  A 0.21 0.21 0.0 0 0 453.41 75.72
  L 453.41 75.25
  A 9.46 9.43 89.6 0 0 443.91 65.86
  L 443.89 65.86
  A 9.46 9.43 89.6 0 0 434.53 75.39
  L 434.53 75.86
  A 0.21 0.21 0.0 0 0 434.75 76.06
  Z"
/>
<path fill="#ff1111" d="
  M 473.99 65.11
  Q 477.91 59.62 484.93 60.77
  Q 485.50 60.87 485.50 61.45
  L 485.50 66.48
  Q 485.50 67.08 484.92 66.97
  C 480.42 66.13 473.65 68.03 473.66 73.46
  Q 473.69 86.00 473.67 98.58
  A 0.42 0.42 0.0 0 1 473.25 99.00
  L 467.62 98.99
  Q 467.25 98.99 467.25 98.62
  L 467.25 61.87
  Q 467.25 61.00 468.13 61.00
  L 472.75 61.00
  Q 473.50 61.00 473.51 61.75
  L 473.52 64.96
  Q 473.52 65.77 473.99 65.11
  Z"
/>
<path fill="#ff1111" d="
  M 515.47 64.73
  L 515.56 61.71
  Q 515.58 61.00 516.29 61.00
  L 520.53 61.00
  Q 521.46 61.00 521.46 61.93
  Q 521.50 81.12 521.41 99.79
  C 521.36 108.72 514.94 114.75 506.19 114.92
  C 500.87 115.02 494.78 113.03 491.54 108.45
  A 0.37 0.36 -44.3 0 1 491.55 108.01
  L 494.55 104.06
  Q 494.68 103.89 494.81 104.07
  Q 498.78 109.35 504.48 109.67
  C 513.24 110.16 515.70 102.62 514.90 95.45
  A 0.23 0.22 63.0 0 0 514.51 95.32
  C 510.91 99.32 504.84 100.33 499.93 98.76
  C 488.36 95.06 487.81 77.53 491.63 69.02
  C 495.55 60.30 505.70 58.00 513.14 63.30
  C 513.75 63.74 514.30 64.45 514.85 64.98
  Q 515.44 65.54 515.47 64.73
  Z
  M 496.98 72.89
  C 494.71 80.17 495.20 94.32 506.36 93.97
  C 510.14 93.85 515.10 91.28 515.04 86.96
  Q 514.94 79.70 515.03 72.82
  C 515.08 68.98 510.50 66.30 507.23 66.03
  Q 499.33 65.38 496.98 72.89
  Z"
/>
<path fill="#ff1111" d="
  M 543.50 88.74
  Q 543.91 89.99 544.29 88.74
  L 552.72 61.22
  Q 552.79 60.99 553.03 60.99
  L 559.40 61.02
  A 0.16 0.16 0.0 0 1 559.54 61.23
  Q 551.81 83.90 544.18 105.93
  C 542.02 112.17 536.88 116.49 529.84 114.44
  Q 529.53 114.35 529.53 114.03
  L 529.52 109.34
  Q 529.52 109.15 529.71 109.18
  C 537.32 110.15 538.84 105.32 540.67 99.68
  Q 540.88 99.02 540.65 98.37
  L 527.44 61.27
  A 0.19 0.18 79.9 0 1 527.61 61.02
  L 534.06 60.99
  Q 534.31 60.99 534.39 61.23
  L 543.50 88.74
  Z"
/>
<path fill="#fff5f5" d="
  M 97.09 73.10
  C 99.06 67.18 104.16 64.69 109.99 66.29
  C 120.47 69.16 120.29 91.87 109.02 93.91
  C 96.43 96.19 94.27 81.53 97.09 73.10
  Z"
/>
<path fill="#fff5f5" d="
  M 434.75 76.06
  A 0.21 0.21 0.0 0 1 434.53 75.86
  L 434.53 75.39
  A 9.46 9.43 89.6 0 1 443.89 65.86
  L 443.91 65.86
  A 9.46 9.43 89.6 0 1 453.41 75.25
  L 453.41 75.72
  A 0.21 0.21 0.0 0 1 453.21 75.94
  L 434.75 76.06
  Z"
/>
<path fill="#fff5f5" d="
  M 295.61 86.03
  C 293.53 77.82 295.12 64.43 307.00 66.17
  C 309.91 66.59 314.05 69.19 314.01 72.62
  Q 313.92 79.70 314.02 87.01
  C 314.07 90.20 310.53 93.06 307.84 93.60
  Q 298.02 95.56 295.61 86.03
  Z"
/>
<path fill="#fff5f5" d="
  M 496.98 72.89
  Q 499.33 65.38 507.23 66.03
  C 510.50 66.30 515.08 68.98 515.03 72.82
  Q 514.94 79.70 515.04 86.96
  C 515.10 91.28 510.14 93.85 506.36 93.97
  C 495.20 94.32 494.71 80.17 496.98 72.89
  Z"
/>
<path fill="#fff5f5" d="
  M 221.96 93.64
  Q 216.87 92.80 216.42 87.81
  C 215.64 79.13 226.85 79.66 232.96 80.06
  Q 233.58 80.10 233.54 80.72
  C 233.36 83.53 234.29 87.50 232.24 89.79
  Q 227.94 94.62 221.96 93.64
  Z"
/>
</svg>
