<svg xmlns="http://www.w3.org/2000/svg" version="1.1" viewBox="0.00 0.00 200.00 200.00">
<path fill="#ffffff" d="
  M 67.87 49.74
  Q 90.57 49.89 115.29 49.71
  Q 128.63 49.61 135.19 50.73
  Q 164.63 55.74 181.90 79.81
  C 212.00 121.72 187.54 181.49 136.93 190.81
  Q 129.82 192.12 117.52 192.08
  Q 65.09 191.91 12.07 192.04
  A 0.50 0.50 0.0 0 1 11.57 191.54
  L 11.57 160.21
  A 0.59 0.59 0.0 0 1 12.16 159.62
  Q 64.87 159.41 117.51 159.66
  Q 129.04 159.72 134.43 158.15
  C 153.06 152.72 164.88 135.03 162.41 115.80
  C 160.40 100.15 149.00 87.62 133.83 83.47
  Q 128.39 81.98 115.23 82.12
  Q 88.87 82.39 67.63 82.13
  A 0.28 0.28 0.0 0 0 67.43 82.60
  L 85.63 100.80
  A 0.53 0.53 0.0 0 1 85.62 101.55
  L 63.40 123.64
  Q 63.01 124.02 62.62 123.64
  L 5.26 66.27
  A 0.38 0.37 45.6 0 1 5.26 65.74
  L 62.63 8.37
  A 0.55 0.54 -45.0 0 1 63.40 8.36
  L 85.68 30.49
  A 0.45 0.45 0.0 0 1 85.68 31.13
  L 67.64 49.18
  Q 67.08 49.74 67.87 49.74
  Z"
/>
</svg>
