<svg version="1.1" xmlns="http://www.w3.org/2000/svg" xmlns:xlink="http://www.w3.org/1999/xlink" x="0px" y="0px" width="500" height="500" viewBox="0 0 256 256" enable-background="new 0 0 256 256" xml:space="preserve">
<g><g><path fill="#ffffff" d="M229.9,47.3c-24.6-5-48.7-13.8-71.4-26.1l-0.6-0.3c-8.2-4.5-16.6-9.3-26.7-10.9h-6.6c-0.7,0.1-1.5,0.3-2,0.4c-1.6,0.3-3.2,0.6-4.7,1.3c-3.1,1.3-6,2.8-9,4.2l-4.4,2c-3.3,1.6-6.7,3.2-10.2,4.8c-1.2,0.4-2.3,1-3.5,1.6c-1.2,0.6-2.3,1-3.5,1.6L87,26.2c-7.4,3.5-15.1,7-22.9,10.2c-12.4,5.1-25.4,8.2-38,11.1c-1.3,0.1-2.6,0.6-2.6,2.6c0.1,15.7,1,29.3,2.9,42.5c4.5,31.5,14,58.9,28.7,83.6c16.8,28,38.6,50.3,64.8,66c4.1,2.6,6.1,3.8,8.2,3.8c2.3,0,4.4-1.4,8-3.9c17.8-11.4,33.8-25.8,47.5-43c22.6-28,37.6-61.1,44.6-98.3c2.9-14.9,4.2-30.6,4.4-50C232.7,48.9,232.2,47.7,229.9,47.3z M221.7,59.4c0.1,2.8,0.1,5.3,0,7.9c-1.6,28.6-7.4,54.2-17.9,78.7c-10.3,23.7-24.5,44.7-41.8,62c-10.3,10.4-20.8,18.9-31.8,25.9c-0.9,0.6-1.6,0.9-2.5,0.9c-0.6,0-1.2-0.1-2.3-0.9c-20.5-12.2-38.3-29-53-49.7C54.5,158.6,42.7,129,37.3,95.8c-1.9-12.1-3.1-24.9-3.3-39.3c1.6-0.6,3.1-1,4.7-1.3c4.1-1,7.3-1.9,10.5-2.8c16.6-4.8,33.2-11.5,50.8-20.7c0.9-0.4,1.9-1,2.8-1.4c1-0.6,2-1,3.2-1.6c2.6-1.4,5.3-2.6,7.9-4.1c9.2-5.3,19.1-5.1,28.4-0.1c13.1,6.8,23,11.8,32.5,16c13.6,6.3,28.4,11.2,45.3,15.1l1.6,0.4L221.7,59.4z"/></g></g>
</svg>